{
.appVersion = "3257";
.formatVersion = 3;
DisplayStrings = (
"รง",
"",
t,
""
);
date = "2021-02-08 14:14:59 +0000";
familyName = Biarnesa;
featurePrefixes = (
{
automatic = 1;
code = "languagesystem DFLT dflt;
";
name = Languagesystems;
}
);
features = (
{
automatic = 1;
code = "lookupflag IgnoreMarks;
sub t i n d a by t_i_n_d_a.liga;
sub l l o by l_l_o.liga;
sub n i h by n_i_h.liga;
sub l a by l_a.liga;
sub l e by l_e.liga;
sub l h by l_h.liga;
sub l l by l_l.liga;
sub l o by l_o.liga;
sub n h by n_h.liga;
";
tag = liga;
}
);
fontMaster = (
{
guides = (
{
pos = (396,164);
}
);
id = "EBE2A6F1-3CB0-4D17-AF87-54EF93F0B568";
metricValues = (
{
pos = 800;
},
{
pos = 700;
},
{
pos = 500;
},
{
},
{
pos = -200;
},
{
}
);
name = Regular;
userData = {
GSCornerRadius = 15;
GSOffsetHorizontal = 50;
GSOffsetMakeStroke = 1;
GSOffsetVertical = 50;
};
}
);
glyphs = (
{
glyphname = a;
lastChange = "2021-05-27 14:30:12 +0000";
layers = (
{
layerId = "EBE2A6F1-3CB0-4D17-AF87-54EF93F0B568";
shapes = (
{
closed = 1;
nodes = (
(451,600,l),
(451,426,l),
(446,426,l),
(420,450,o),
(368,480,o),
(300,480,cs),
(165,480,o),
(55,371,o),
(55,235,cs),
(55,100,o),
(164,-10,o),
(300,-10,cs),
(378,-10,o),
(431,33,o),
(445,55,c),
(451,55,l),
(451,0,l),
(561,0,l),
(561,700,l),
(98,700,l),
(98,600,l)
);
},
{
closed = 1;
nodes = (
(223,92,o),
(159,157,o),
(159,238,cs),
(159,319,o),
(222,384,o),
(304,384,cs),
(384,384,o),
(448,319,o),
(448,239,cs),
(448,157,o),
(384,92,o),
(304,92,cs)
);
}
);
width = 621;
}
);
metricRight = h;
unicode = 97;
},
{
glyphname = agrave;
lastChange = "2023-01-27 15:45:00 +0000";
layers = (
{
layerId = "EBE2A6F1-3CB0-4D17-AF87-54EF93F0B568";
shapes = (
{
alignment = -1;
pos = (81,0);
ref = grave;
},
{
alignment = -1;
pos = (11,0);
ref = aacc;
}
);
width = 504;
},
{
associatedMasterId = "EBE2A6F1-3CB0-4D17-AF87-54EF93F0B568";
layerId = "C7F30527-F3F6-4A4C-9C47-FC45462580A6";
name = "Apr 8 21, 10:52";
shapes = (
{
alignment = -1;
ref = a;
},
{
alignment = -1;
ref = grave;
}
);
width = 600;
},
{
associatedMasterId = "EBE2A6F1-3CB0-4D17-AF87-54EF93F0B568";
layerId = "1F8AC8AC-2DAE-4769-A6FD-F66F349A94DC";
name = "Apr 8 21, 11:32";
shapes = (
{
closed = 1;
nodes = (
(460.833,491.681,l),
(457.02,491.614,l),
(411.051,534.246,o),
(349.864,560.104,o),
(279.723,560.104,c),
(124.989,560.104,o),
(-0.371,434.762,o),
(-0.371,280.062,c),
(-0.371,125.373,o),
(124.989,0,o),
(279.723,0,c),
(349.676,0,o),
(410.708,25.713,o),
(456.614,68.132,c),
(460.817,68.136,l),
(460.833,14.875,l),
(562.254,14.875,l),
(562.254,545.332,l),
(460.833,545.525,l)
);
},
{
closed = 1;
nodes = (
(176.067,92.145,o),
(91.77,176.448,o),
(91.77,280.062,cs),
(91.77,383.657,o),
(176.067,467.959,o),
(279.723,467.959,cs),
(383.286,467.959,o),
(467.614,383.657,o),
(467.614,280.062,cs),
(467.614,176.448,o),
(383.286,92.145,o),
(279.723,92.145,cs)
);
},
{
pos = (100,0);
ref = grave;
}
);
width = 600;
},
{
associatedMasterId = "EBE2A6F1-3CB0-4D17-AF87-54EF93F0B568";
background = {
shapes = (
{
closed = 1;
nodes = (
(323,434,l),
(323,321,l),
(319,321,l),
(299,339,o),
(259,362,o),
(207,362,cs),
(104,362,o),
(20,279,o),
(20,175,cs),
(20,72,o),
(103,-13,o),
(207,-13,cs),
(267,-13,o),
(307,20,o),
(318,37,c),
(323,37,l),
(323,-5,l),
(427,-5,l),
(427,530,l),
(73,530,l),
(73,434,l)
);
},
{
closed = 1;
nodes = (
(157,80,o),
(114,123,o),
(114,177,cs),
(114,231,o),
(156,274,o),
(211,274,cs),
(264,274,o),
(306,231,o),
(306,178,cs),
(306,123,o),
(264,80,o),
(211,80,cs)
);
}
);
};
layerId = "04A2A123-EA49-4F3A-83C1-935D29ADE5E2";
name = "Apr 8 21, 11:47";
shapes = (
{
closed = 1;
nodes = (
(83,0,o),
(0,83,o),
(0,186,cs),
(0,288,o),
(83,371,o),
(186,371,cs),
(335,371,l),
(335,281,l),
(187,281,l),
(135,281,o),
(96,239,o),
(96,188,cs),
(96,137,o),
(135,95,o),
(187,95,cs),
(325,95,l),
(322,0,l),
(186,0,l)
);
},
{
closed = 1;
nodes = (
(305,449,l),
(43,449,l),
(43,540,l),
(408,540,l),
(408,0,l),
(305,0,l)
);
},
{
pos = (20,0);
ref = grave;
}
);
width = 463;
}
);
unicode = 224;
},
{
glyphname = ae;
lastChange = "2021-05-27 14:30:12 +0000";
layers = (
{
associatedMasterId = "EBE2A6F1-3CB0-4D17-AF87-54EF93F0B568";
layerId = "E0100E5D-5C1D-4581-93EB-7E86BA29D9DB";
name = "Apr 8 21, 11:27";
shapes = (
{
closed = 1;
nodes = (
(627,567,l),
(547,675,o),
(446,707,o),
(356,707,c),
(159,707,o),
(0,548,o),
(0,351,c),
(0,154,o),
(159,-6,o),
(356,-6,c),
(445,-6,o),
(523,27,o),
(581,81,c),
(587,81,l),
(587,0,l),
(696,0,l),
(696,560,l)
);
},
{
closed = 1;
nodes = (
(206,106,o),
(97,216,o),
(97,351,cs),
(97,485,o),
(206,595,o),
(341,595,cs),
(476,595,o),
(585,485,o),
(585,351,cs),
(585,216,o),
(476,106,o),
(341,106,cs)
);
},
{
closed = 1;
nodes = (
(589,0,l),
(1069,0,l),
(1069,100,l),
(699,100,l),
(699,265,l),
(702,268,l),
(732,245,o),
(783,222,o),
(843,222,cs),
(974,222,o),
(1085,326,o),
(1085,461,cs),
(1085,597,o),
(976,710,o),
(840,710,cs),
(733,710,o),
(588,635,o),
(588,426,cs)
);
},
{
closed = 1;
nodes = (
(912,604,o),
(975,540,o),
(975,461,cs),
(975,384,o),
(912,320,o),
(834,320,cs),
(757,320,o),
(694,384,o),
(694,461,cs),
(694,540,o),
(757,604,o),
(834,604,cs)
);
}
);
width = 1230;
},
{
background = {
shapes = (
{
closed = 0;
nodes = (
(701,710,ls),
(638,710,o),
(590,682,o),
(566,660,c),
(561,660,l)
);
}
);
};
layerId = "EBE2A6F1-3CB0-4D17-AF87-54EF93F0B568";
shapes = (
{
closed = 1;
nodes = (
(451,600,l),
(450,426,l),
(445,426,l),
(419,450,o),
(368,480,o),
(300,480,cs),
(165,480,o),
(55,371,o),
(55,235,cs),
(55,100,o),
(164,-10,o),
(300,-10,cs),
(378,-10,o),
(431,33,o),
(445,55,c),
(451,55,l),
(451,0,l),
(561,0,l),
(561,399,l),
(550,458,l),
(561,531,l),
(561,700,l),
(98,700,l),
(98,600,l)
);
},
{
closed = 1;
nodes = (
(228,93,o),
(165,157,o),
(165,238,cs),
(165,319,o),
(227,383,o),
(308,383,cs),
(388,383,o),
(451,319,o),
(451,239,cs),
(451,157,o),
(388,93,o),
(308,93,cs)
);
},
{
closed = 1;
nodes = (
(450,272,l),
(459,237,l),
(450,214,l),
(451,0,l),
(911,0,l),
(911,100,l),
(561,100,l),
(561,265,l),
(564,268,l),
(595,245,o),
(645,222,o),
(705,222,cs),
(836,222,o),
(947,326,o),
(947,461,cs),
(947,597,o),
(838,710,o),
(703,710,cs),
(645,710,o),
(590,682,o),
(566,660,c),
(561,660,l),
(498,625,o),
(450,547,o),
(450,426,cs)
);
},
{
closed = 1;
nodes = (
(774,606,o),
(837,541,o),
(837,461,cs),
(837,384,o),
(774,318,o),
(695,318,cs),
(616,318,o),
(553,383,o),
(553,461,cs),
(553,541,o),
(616,606,o),
(695,606,cs)
);
}
);
width = 977;
},
{
associatedMasterId = "EBE2A6F1-3CB0-4D17-AF87-54EF93F0B568";
layerId = "5108716C-9774-4B65-8500-EBBA81509BB8";
name = "Apr 8 21, 11:41";
shapes = (
{
closed = 1;
nodes = (
(420,0,l),
(420,96,l),
(306,96,ls),
(222,96,o),
(155,164,o),
(155,248,cs),
(155,332,o),
(221,400,o),
(306,400,c),
(438,400,l),
(438,490,l),
(300,490,ls),
(165,490,o),
(55,381,o),
(55,245,cs),
(55,110,o),
(164,0,o),
(300,0,c)
);
},
{
closed = 1;
nodes = (
(501,0,l),
(501,413,l),
(488,462,l),
(501,510,l),
(501,700,l),
(118,700,l),
(118,600,l),
(391,600,l),
(391,0,l)
);
},
{
closed = 1;
nodes = (
(392,0,l),
(852,0,l),
(852,100,l),
(502,100,l),
(502,265,l),
(505,268,l),
(536,245,o),
(586,222,o),
(646,222,cs),
(777,222,o),
(888,326,o),
(888,461,cs),
(888,597,o),
(779,710,o),
(643,710,cs),
(536,710,o),
(391,635,o),
(391,426,cs)
);
},
{
closed = 1;
nodes = (
(715,604,o),
(778,540,o),
(778,461,cs),
(778,384,o),
(715,320,o),
(637,320,cs),
(560,320,o),
(497,384,o),
(497,461,cs),
(497,540,o),
(560,604,o),
(637,604,cs)
);
}
);
width = 943;
}
);
metricLeft = a;
metricRight = e;
unicode = 230;
},
{
glyphname = b;
lastChange = "2021-05-27 14:30:12 +0000";
layers = (
{
background = {
shapes = (
{
closed = 1;
nodes = (
(160,324,l),
(160,67,l),
(60,67,l),
(60,701,l),
(332,701,ls),
(435,701,o),
(520,618,o),
(520,513,cs),
(520,409,o),
(436,324,o),
(332,324,cs)
);
},
{
closed = 1;
nodes = (
(377,415,o),
(420,459,o),
(420,512,cs),
(420,566,o),
(378,610,o),
(325,610,cs),
(160,610,l),
(160,415,l),
(325,415,ls)
);
}
);
};
layerId = "EBE2A6F1-3CB0-4D17-AF87-54EF93F0B568";
shapes = (
{
closed = 1;
nodes = (
(170,100,l),
(170,316,l),
(346,316,ls),
(405,316,o),
(457,278,o),
(457,208,cs),
(457,142,o),
(404,100,o),
(347,100,cs)
);
},
{
closed = 1;
nodes = (
(309,606,ls),
(362,606,o),
(415,583,o),
(415,515,cs),
(415,448,o),
(362,421,o),
(309,421,cs),
(170,421,l),
(170,606,l)
);
},
{
closed = 1;
nodes = (
(315,365,l),
(436,363,o),
(522,415,o),
(522,524,cs),
(522,636,o),
(437,700,o),
(313,700,cs),
(60,700,l),
(60,0,l),
(349,0,ls),
(473,0,o),
(567,86,o),
(567,209,cs),
(567,323,o),
(473,394,o),
(313,393,c)
);
}
);
width = 619;
}
);
metricLeft = n;
unicode = 98;
},
{
glyphname = c;
lastChange = "2021-05-31 16:11:21 +0000";
layers = (
{
layerId = "EBE2A6F1-3CB0-4D17-AF87-54EF93F0B568";
shapes = (
{
closed = 1;
nodes = (
(30,150,o),
(192,-12,o),
(392,-12,cs),
(518,-12,o),
(631,55,o),
(690,155,c),
(603,204,l),
(557,136,o),
(477,90,o),
(392,90,cs),
(252,90,o),
(142,201,o),
(142,349,cs),
(142,497,o),
(252,608,o),
(392,608,cs),
(477,608,o),
(557,562,o),
(603,494,c),
(690,543,l),
(631,643,o),
(518,710,o),
(392,710,cs),
(192,710,o),
(30,548,o),
(30,349,cs)
);
}
);
width = 715;
},
{
associatedMasterId = "EBE2A6F1-3CB0-4D17-AF87-54EF93F0B568";
background = {
shapes = (
{
closed = 1;
nodes = (
(56,150,o),
(217,-12,o),
(417,-12,cs),
(543,-12,o),
(656,55,o),
(715,155,c),
(628,204,l),
(582,134,o),
(502,88,o),
(417,88,cs),
(277,88,o),
(166,201,o),
(166,349,cs),
(166,497,o),
(277,610,o),
(417,610,cs),
(502,610,o),
(582,564,o),
(628,494,c),
(715,543,l),
(656,643,o),
(543,710,o),
(417,710,cs),
(217,710,o),
(56,548,o),
(56,349,cs)
);
}
);
};
layerId = "6BBDB477-495F-49FA-856F-5D2158FAE809";
name = "Feb 11 21, 14:42";
shapes = (
{
closed = 1;
nodes = (
(601,188,o),
(515,89,o),
(390,89,cs),
(241,89,o),
(141,200,o),
(141,350,cs),
(141,498,o),
(241,611,o),
(390,611,cs),
(489,611,o),
(552,573,o),
(601,486,c),
(688,536,l),
(626,648,o),
(527,710,o),
(390,710,cs),
(191,710,o),
(30,548,o),
(30,350,cs),
(30,151,o),
(178,-11,o),
(390,-11,cs),
(539,-11,o),
(638,52,o),
(700,163,c),
(614,213,l)
);
}
);
width = 714;
}
);
metricLeft = o;
unicode = 99;
},
{
glyphname = ccedilla;
lastChange = "2021-05-31 16:14:51 +0000";
layers = (
{
background = {
shapes = (
{
closed = 0;
nodes = (
(388,83,ls),
(481,83,o),
(550,132,o),
(591,215,c),
(682,161,l),
(619,53,o),
(523,-15,o),
(388,-15,cs)
);
}
);
};
layerId = "EBE2A6F1-3CB0-4D17-AF87-54EF93F0B568";
shapes = (
{
closed = 1;
nodes = (
(407,-19,o),
(466,-38,o),
(466,-100,cs),
(466,-148,o),
(428,-200,o),
(352,-200,cs),
(308,-200,o),
(274,-187,o),
(265,-178,c),
(284,-100,l),
(284,-100,o),
(313,-125,o),
(351,-125,cs),
(390,-125,o),
(406,-107,o),
(406,-87,cs),
(406,-40,o),
(337,-22,o),
(256,10,cs),
(160,49,o),
(30,148,o),
(30,339,cs),
(30,553,o),
(183,715,o),
(388,715,cs),
(523,715,o),
(619,647,o),
(682,539,c),
(591,485,l),
(550,568,o),
(481,617,o),
(388,617,cs),
(239,617,o),
(135,497,o),
(135,349,cs),
(135,204,o),
(240,82,o),
(388,82,cs),
(508,82,o),
(565,164,o),
(591,215,c),
(682,161,l),
(619,53,o),
(519,-11,o),
(407,-14,c),
(407,-19,l)
);
}
);
width = 707;
}
);
metricLeft = C;
metricRight = C;
unicode = 231;
},
{
glyphname = d;
lastChange = "2021-05-27 14:30:12 +0000";
layers = (
{
associatedMasterId = "EBE2A6F1-3CB0-4D17-AF87-54EF93F0B568";
layerId = "B1F83745-45F9-4A14-908E-957D3CD6B9B0";
name = "Feb 11 21, 14:43";
shapes = (
{
closed = 1;
nodes = (
(165,706,o),
(84,665,o),
(21,605,c),
(21,0,l),
(385,0,l),
(525,48,o),
(624,181,o),
(624,340,c),
(624,543,o),
(466,706,o),
(265,706,c)
);
},
{
closed = 1;
nodes = (
(120,96,l),
(120,560,l),
(161,591,o),
(209,610,o),
(265,610,cs),
(417,610,o),
(518,496,o),
(518,340,cs),
(518,229,o),
(459,136,o),
(370,96,c)
);
}
);
width = 669;
},
{
associatedMasterId = "EBE2A6F1-3CB0-4D17-AF87-54EF93F0B568";
layerId = "D2005664-F9C4-4038-B287-0414C6213F6F";
name = "Feb 11 21, 14:44";
shapes = (
{
closed = 1;
nodes = (
(186,710,o),
(109,671,o),
(48,631,c),
(48,0,l),
(416,0,l),
(551,48,o),
(649,185,o),
(649,342,cs),
(649,539,o),
(521,710,o),
(293,710,c)
);
},
{
closed = 1;
nodes = (
(145,97,l),
(145,574,l),
(183,599,o),
(233,613,o),
(293,613,cs),
(440,613,o),
(539,503,o),
(539,342,cs),
(539,233,o),
(491,135,o),
(390,97,c)
);
}
);
width = 669;
},
{
associatedMasterId = "EBE2A6F1-3CB0-4D17-AF87-54EF93F0B568";
layerId = "C245D4A7-9512-4DAA-A8B7-D5347BD12177";
name = "Feb 11 21, 15:25";
shapes = (
{
closed = 1;
nodes = (
(699,548,o),
(538,710,o),
(338,710,cs),
(212,710,o),
(99,643,o),
(40,543,c),
(127,494,l),
(173,564,o),
(253,610,o),
(338,610,cs),
(478,610,o),
(589,497,o),
(589,349,cs),
(589,201,o),
(478,88,o),
(338,88,cs),
(253,88,o),
(173,134,o),
(127,204,c),
(40,155,l),
(99,55,o),
(212,-12,o),
(338,-12,cs),
(538,-12,o),
(699,150,o),
(699,349,cs)
);
},
{
closed = 1;
nodes = (
(150,0,l),
(150,700,l),
(40,700,l),
(40,0,l)
);
}
);
width = 729;
},
{
associatedMasterId = "EBE2A6F1-3CB0-4D17-AF87-54EF93F0B568";
layerId = "AE1EBF3D-0911-4C01-B719-121DF32EBEF3";
name = "Feb 17 21, 15:14";
shapes = (
{
closed = 1;
nodes = (
(210,574,l),
(248,599,o),
(305,613,o),
(358,613,cs),
(505,613,o),
(604,503,o),
(604,350,cs),
(604,197,o),
(505,87,o),
(358,87,cs),
(305,87,o),
(248,101,o),
(210,126,c)
);
},
{
closed = 1;
nodes = (
(164,22,o),
(251,-10,o),
(358,-10,cs),
(591,-10,o),
(714,161,o),
(714,350,cs),
(714,539,o),
(591,710,o),
(358,710,cs),
(251,710,o),
(164,678,o),
(100,631,c),
(100,69,l)
);
}
);
width = 749;
},
{
layerId = "EBE2A6F1-3CB0-4D17-AF87-54EF93F0B568";
shapes = (
{
closed = 1;
nodes = (
(211,710,o),
(124,678,o),
(60,631,c),
(60,0,l),
(469,0,l),
(632,90,o),
(675,215,o),
(675,342,cs),
(675,549,o),
(541,710,o),
(318,710,cs)
);
},
{
closed = 1;
nodes = (
(170,100,l),
(170,571,l),
(208,596,o),
(258,610,o),
(318,610,cs),
(465,610,o),
(563,503,o),
(563,342,cs),
(563,233,o),
(526,157,o),
(437,100,c)
);
}
);
width = 729;
},
{
associatedMasterId = "EBE2A6F1-3CB0-4D17-AF87-54EF93F0B568";
layerId = "5161AF0C-CFDF-4B3C-A395-001B0CE362F1";
name = "Apr 9 21, 18:14";
shapes = (
{
closed = 1;
nodes = (
(80,0,l),
(499,0,l),
(665,92,o),
(709,220,o),
(709,350,cs),
(709,480,o),
(665,608,o),
(499,700,c),
(80,700,l)
);
},
{
closed = 1;
nodes = (
(466,600,l),
(557,541,o),
(595,462,o),
(595,350,cs),
(595,238,o),
(557,159,o),
(466,100,c),
(190,100,l),
(190,600,l)
);
}
);
width = 749;
}
);
metricLeft = n;
unicode = 100;
},
{
glyphname = e;
lastChange = "2021-05-27 14:30:12 +0000";
layers = (
{
associatedMasterId = "EBE2A6F1-3CB0-4D17-AF87-54EF93F0B568";
background = {
shapes = (
{
closed = 1;
nodes = (
(173,90,l),
(173,274,l),
(178,274,l),
(204,250,o),
(256,221,o),
(324,221,cs),
(459,221,o),
(569,326,o),
(569,461,cs),
(569,597,o),
(460,710,o),
(324,710,cs),
(246,710,o),
(193,667,o),
(179,645,c),
(173,645,l),
(173,700,l),
(63,700,l),
(63,0,l),
(526,0,l),
(526,90,l)
);
},
{
closed = 1;
nodes = (
(402,614,o),
(469,546,o),
(469,461,cs),
(469,378,o),
(402,310,o),
(318,310,cs),
(235,310,o),
(168,378,o),
(168,461,cs),
(168,546,o),
(235,614,o),
(318,614,cs)
);
}
);
};
layerId = "3BE622E0-CD12-4FB9-8606-2E2E54EF2DDA";
name = "Feb 11 21, 14:49";
shapes = (
{
closed = 1;
nodes = (
(400,610,o),
(464,547,o),
(464,460,c),
(464,379,o),
(398,314,o),
(317,314,c),
(236,314,o),
(170,379,o),
(170,460,c),
(170,540,o),
(233,610,o),
(315,610,c)
);
},
{
closed = 1;
nodes = (
(76,0,l),
(554,0,l),
(554,90,l),
(174,90,l),
(174,271,l),
(179,271,l),
(193,255,o),
(241,217,o),
(317,217,cs),
(452,217,o),
(563,322,o),
(563,460,cs),
(563,597,o),
(453,710,o),
(317,710,cs),
(164,710,o),
(76,592,o),
(76,458,cs)
);
}
);
width = 600;
},
{
associatedMasterId = "EBE2A6F1-3CB0-4D17-AF87-54EF93F0B568";
background = {
shapes = (
{
closed = 1;
nodes = (
(464,222,o),
(571,331,o),
(571,468,cs),
(571,601,o),
(464,710,o),
(330,710,cs),
(195,710,o),
(88,601,o),
(88,468,cs),
(88,331,o),
(195,222,o),
(330,222,cs)
);
}
);
};
layerId = "2BAC7454-4D79-45ED-A7EE-963060DFD886";
name = "Feb 11 21, 14:53";
shapes = (
{
closed = 1;
nodes = (
(74,0,l),
(554,0,l),
(554,90,l),
(184,90,l),
(186,264,l),
(190,267,l),
(218,245,o),
(269,222,o),
(325,222,cs),
(460,222,o),
(570,326,o),
(570,461,cs),
(570,597,o),
(461,710,o),
(325,710,cs),
(218,710,o),
(73,635,o),
(73,426,cs)
);
},
{
closed = 1;
nodes = (
(403,614,o),
(470,546,o),
(470,461,cs),
(470,378,o),
(403,310,o),
(319,310,cs),
(236,310,o),
(169,378,o),
(169,461,cs),
(169,546,o),
(236,614,o),
(319,614,cs)
);
}
);
width = 600;
},
{
associatedMasterId = "EBE2A6F1-3CB0-4D17-AF87-54EF93F0B568";
layerId = "EFBADC11-55AC-4B0D-B38C-531043ED58DA";
shapes = (
{
closed = 1;
nodes = (
(400,610,o),
(464,547,o),
(464,460,c),
(464,379,o),
(398,314,o),
(317,314,c),
(236,314,o),
(170,379,o),
(170,460,c),
(170,540,o),
(233,610,o),
(315,610,c)
);
},
{
closed = 1;
nodes = (
(76,0,l),
(554,0,l),
(554,90,l),
(174,90,l),
(174,271,l),
(179,271,l),
(193,255,o),
(241,217,o),
(317,217,cs),
(452,217,o),
(563,322,o),
(563,460,cs),
(563,597,o),
(453,710,o),
(317,710,cs),
(164,710,o),
(76,592,o),
(76,458,cs)
);
}
);
width = 600;
},
{
associatedMasterId = "EBE2A6F1-3CB0-4D17-AF87-54EF93F0B568";
layerId = "C64EFA43-E550-4983-B6F8-5A512C25F1A7";
name = "Feb 11 21, 15:27";
shapes = (
{
closed = 1;
nodes = (
(31,0,l),
(511,0,l),
(511,95,l),
(141,95,l),
(143,364,l),
(149,364,l),
(157,329,ls),
(172,263,o),
(235,222,o),
(297,222,cs),
(417,222,o),
(527,326,o),
(527,461,cs),
(527,597,o),
(418,710,o),
(282,710,cs),
(175,710,o),
(30,635,o),
(30,426,cs)
);
},
{
closed = 1;
nodes = (
(354,604,o),
(417,540,o),
(417,461,cs),
(417,384,o),
(354,320,o),
(276,320,cs),
(199,320,o),
(136,384,o),
(136,461,cs),
(136,540,o),
(199,604,o),
(276,604,cs)
);
}
);
width = 557;
},
{
associatedMasterId = "EBE2A6F1-3CB0-4D17-AF87-54EF93F0B568";
background = {
shapes = (
{
closed = 0;
nodes = (
(511,8,l),
(504,1,o),
(487,0,o),
(480,0,cs)
);
}
);
};
layerId = "7E43D764-8B09-4B9B-AB2A-0EAC00D77118";
name = "Feb 11 21, 15:30";
shapes = (
{
closed = 1;
nodes = (
(199,604,o),
(136,540,o),
(136,461,cs),
(136,384,o),
(199,320,o),
(276,320,cs),
(354,320,o),
(417,384,o),
(417,461,cs),
(417,540,o),
(354,604,o),
(276,604,cs)
);
},
{
closed = 1;
nodes = (
(511,18,l),
(496,2,o),
(458,0,o),
(445,0,c),
(31,0,l),
(30,426,ls),
(30,635,o),
(175,710,o),
(282,710,cs),
(418,710,o),
(527,597,o),
(527,461,cs),
(527,326,o),
(417,222,o),
(297,222,cs),
(235,222,o),
(175,263,o),
(156,329,cs),
(146,364,l),
(143,364,l),
(141,120,ls),
(141,113,o),
(140,96,o),
(133,89,c),
(135,87,l),
(142,94,o),
(159,95,o),
(166,95,cs),
(445,95,ls),
(458,95,o),
(493,97,o),
(509,111,c),
(511,110,l)
);
}
);
width = 557;
},
{
associatedMasterId = "EBE2A6F1-3CB0-4D17-AF87-54EF93F0B568";
layerId = "8E4159D0-BCDC-41B9-92B8-B39A18611592";
name = "Feb 12 21, 12:22";
shapes = (
{
closed = 1;
nodes = (
(76,0,l),
(566,0,l),
(566,195,l),
(186,195,l),
(188,264,l),
(191,267,l),
(220,245,o),
(271,222,o),
(327,222,cs),
(462,222,o),
(572,326,o),
(572,461,cs),
(572,597,o),
(463,710,o),
(327,710,cs),
(220,710,o),
(75,635,o),
(75,426,cs)
);
},
{
closed = 1;
nodes = (
(355,524,o),
(383,496,o),
(383,462,cs),
(383,428,o),
(355,400,o),
(321,400,cs),
(288,400,o),
(260,428,o),
(260,462,cs),
(260,496,o),
(288,524,o),
(321,524,cs)
);
}
);
width = 602;
},
{
associatedMasterId = "EBE2A6F1-3CB0-4D17-AF87-54EF93F0B568";
layerId = "E4AB9A91-06BE-4AD6-B0F2-93DCF1767CD7";
name = "Feb 18 21, 16:07";
shapes = (
{
closed = 1;
nodes = (
(76,0,l),
(556,0,l),
(556,95,l),
(211,95,ls),
(204,95,o),
(188,93,o),
(181,85,c),
(176,90,l),
(184,97,o),
(186,113,o),
(186,120,cs),
(188,364,l),
(194,364,l),
(202,329,ls),
(217,263,o),
(280,222,o),
(342,222,cs),
(462,222,o),
(572,326,o),
(572,461,cs),
(572,597,o),
(463,710,o),
(327,710,cs),
(220,710,o),
(75,635,o),
(75,426,cs)
);
},
{
closed = 1;
nodes = (
(399,604,o),
(462,540,o),
(462,461,cs),
(462,384,o),
(399,320,o),
(321,320,cs),
(244,320,o),
(181,384,o),
(181,461,cs),
(181,540,o),
(244,604,o),
(321,604,cs)
);
}
);
width = 602;
},
{
associatedMasterId = "EBE2A6F1-3CB0-4D17-AF87-54EF93F0B568";
layerId = "038E3D09-4D40-4100-AF06-1D6087155A8A";
name = "Apr 7 21, 11:30";
shapes = (
{
closed = 1;
nodes = (
(18,251,l),
(379,251,l),
(379,341,l),
(18,341,l)
);
},
{
closed = 1;
nodes = (
(473,671,o),
(402,710,o),
(322,710,cs),
(215,710,o),
(69,635,o),
(70,426,cs),
(71,143,ls),
(71,122,o),
(71,101,o),
(41,80,c),
(151,80,l),
(181,101,o),
(181,122,o),
(181,143,cs),
(180,461,l),
(180,540,o),
(239,604,o),
(316,604,cs),
(367,604,o),
(412,576,o),
(437,535,c),
(518,610,l)
);
},
{
closed = 1;
nodes = (
(425,187,l),
(405,135,o),
(357,99,o),
(299,99,cs),
(18,99,l),
(18,0,l),
(299,0,ls),
(372,0,o),
(463,35,o),
(504,134,c)
);
}
);
userData = {
LWTimeline = "H4sIAAAAAAAAE3WSW2vCQBCF/8oyz9uSnb0l+1hbacFWUFsfipRg1gtELUmsD+J/727EYgb7lvNlzsycYY+wqPKNr8F9HqE8fNW+DJ8zDqPxAziZcPjOm9X597zc1b4A11R7z2G7K1obWMMSNnh5ewIOWhOR6YsSaVelDI36k5kI0l4kYsJQaTbs93vvo48W2VCBeI0k2ha1mo1fh8PJc8DKIK3UFplEQ5Eygpoj1pm9rlRGMisSOjkiYo5rk0qrmZGdIIGosErHOjvxf88rs4yZRHU3CkuqzpyIbsSJWKYdc+wnkcQRLaJxlKKVIhW0X0Q3JkdMdoz9SJI4OSJyjfD+DuuiWYEzCXLY1756zJsc3BEG08l648EJI6SQJpN4r40wqMSJw4+vmunZeCc4DOIbtjq2q/x8VxXr7RLcIi/rcOAyr5veKt8ubzf7BbsupjwZAwAA";
};
width = 622;
},
{
associatedMasterId = "EBE2A6F1-3CB0-4D17-AF87-54EF93F0B568";
layerId = "4CA7B042-1F79-4928-A4F0-97EA563C76F6";
name = "Apr 15 21, 14:36";
shapes = (
{
closed = 1;
nodes = (
(51,0,l),
(531,0,l),
(531,100,l),
(161,100,l),
(161,175,l),
(164,178,l),
(195,155,o),
(245,132,o),
(305,132,cs),
(436,132,o),
(547,236,o),
(547,371,cs),
(547,507,o),
(438,620,o),
(302,620,cs),
(195,620,o),
(49,545,o),
(50,336,cs)
);
},
{
closed = 1;
nodes = (
(378,517,o),
(443,452,o),
(443,371,cs),
(443,292,o),
(378,227,o),
(299,227,cs),
(220,227,o),
(156,292,o),
(156,371,cs),
(156,452,o),
(220,517,o),
(299,517,cs)
);
},
{
alignment = -1;
pos = (87,60);
ref = acute;
}
);
userData = {
LWTimeline = "H4sIAAAAAAAAE3WSW2vCQBCF/8oyz9uSnb0l+1hbacFWUFsfipRg1gtELUmsD+J/727EYgb7lvNlzsycYY+wqPKNr8F9HqE8fNW+DJ8zDqPxAziZcPjOm9X597zc1b4A11R7z2G7K1obWMMSNnh5ewIOWhOR6YsSaVelDI36k5kI0l4kYsJQaTbs93vvo48W2VCBeI0k2ha1mo1fh8PJc8DKIK3UFplEQ5Eygpoj1pm9rlRGMisSOjkiYo5rk0qrmZGdIIGosErHOjvxf88rs4yZRHU3CkuqzpyIbsSJWKYdc+wnkcQRLaJxlKKVIhW0X0Q3JkdMdoz9SJI4OSJyjfD+DuuiWYEzCXLY1756zJsc3BEG08l648EJI6SQJpN4r40wqMSJw4+vmunZeCc4DOIbtjq2q/x8VxXr7RLcIi/rcOAyr5veKt8ubzf7BbsupjwZAwAA";
};
width = 577;
},
{
layerId = "EBE2A6F1-3CB0-4D17-AF87-54EF93F0B568";
shapes = (
{
closed = 1;
nodes = (
(51,0,l),
(531,0,l),
(531,100,l),
(161,100,l),
(161,275,l),
(164,278,l),
(195,255,o),
(245,232,o),
(305,232,cs),
(436,232,o),
(547,336,o),
(547,471,cs),
(547,607,o),
(438,720,o),
(302,720,cs),
(195,720,o),
(50,645,o),
(50,436,cs)
);
},
{
closed = 1;
nodes = (
(378,617,o),
(443,552,o),
(443,471,cs),
(443,392,o),
(378,327,o),
(299,327,cs),
(220,327,o),
(156,392,o),
(156,471,cs),
(156,552,o),
(220,617,o),
(299,617,cs)
);
}
);
userData = {
LWTimeline = "H4sIAAAAAAAAE3WSW2vCQBCF/8oyz9uSnb0l+1hbacFWUFsfipRg1gtELUmsD+J/727EYgb7lvNlzsycYY+wqPKNr8F9HqE8fNW+DJ8zDqPxAziZcPjOm9X597zc1b4A11R7z2G7K1obWMMSNnh5ewIOWhOR6YsSaVelDI36k5kI0l4kYsJQaTbs93vvo48W2VCBeI0k2ha1mo1fh8PJc8DKIK3UFplEQ5Eygpoj1pm9rlRGMisSOjkiYo5rk0qrmZGdIIGosErHOjvxf88rs4yZRHU3CkuqzpyIbsSJWKYdc+wnkcQRLaJxlKKVIhW0X0Q3JkdMdoz9SJI4OSJyjfD+DuuiWYEzCXLY1756zJsc3BEG08l648EJI6SQJpN4r40wqMSJw4+vmunZeCc4DOIbtjq2q/x8VxXr7RLcIi/rcOAyr5veKt8ubzf7BbsupjwZAwAA";
};
width = 577;
}
);
metricLeft = u;
unicode = 101;
},
{
glyphname = eacute;
lastChange = "2021-05-27 14:30:12 +0000";
layers = (
{
associatedMasterId = "EBE2A6F1-3CB0-4D17-AF87-54EF93F0B568";
layerId = "7C4D4524-EF5B-49A3-BCE4-1E3CF910C870";
name = "Feb 12 21, 11:54";
shapes = (
{
closed = 1;
nodes = (
(76,0,l),
(556,0,l),
(556,95,l),
(186,95,l),
(188,264,l),
(192,267,l),
(220,245,o),
(271,222,o),
(327,222,cs),
(462,222,o),
(572,326,o),
(572,461,cs),
(572,597,o),
(463,710,o),
(327,710,cs),
(220,710,o),
(75,635,o),
(75,426,cs)
);
},
{
closed = 1;
nodes = (
(399,604,o),
(462,540,o),
(462,461,cs),
(462,384,o),
(399,320,o),
(321,320,cs),
(244,320,o),
(181,384,o),
(181,461,cs),
(181,540,o),
(244,604,o),
(321,604,cs)
);
}
);
width = 600;
},
{
associatedMasterId = "EBE2A6F1-3CB0-4D17-AF87-54EF93F0B568";
layerId = "E73664B0-9E3B-448E-8767-569DA70EEA5D";
name = "Feb 12 21, 12:04";
shapes = (
{
closed = 1;
nodes = (
(76,0,l),
(496,0,l),
(496,95,l),
(186,95,l),
(186,206,l),
(189,209,l),
(210,199,o),
(235,192,o),
(261,192,cs),
(360,192,o),
(441,269,o),
(441,368,cs),
(441,468,o),
(361,552,o),
(261,552,cs),
(182,552,o),
(75,496,o),
(75,342,cs)
);
},
{
closed = 1;
nodes = (
(303,454,o),
(341,416,o),
(341,368,cs),
(341,322,o),
(303,284,o),
(256,284,cs),
(210,284,o),
(173,322,o),
(173,368,cs),
(173,416,o),
(210,454,o),
(256,454,cs)
);
},
{
closed = 1;
nodes = (
(87,578,l),
(488,619,l),
(476,720,l),
(77,680,l)
);
}
);
width = 521;
},
{
associatedMasterId = "EBE2A6F1-3CB0-4D17-AF87-54EF93F0B568";
layerId = "6E60BFFA-E371-431C-B36D-23FF5B14EC9D";
name = "Apr 9 21, 17:43";
shapes = (
{
alignment = -1;
pos = (-20,0);
ref = eacc;
},
{
alignment = -1;
pos = (70,0);
ref = acute;
}
);
width = 521;
},
{
associatedMasterId = "EBE2A6F1-3CB0-4D17-AF87-54EF93F0B568";
layerId = "A08EC28F-CB05-435B-8B28-195C253832F4";
name = "Apr 9 21, 17:49";
shapes = (
{
closed = 1;
nodes = (
(31,0,l),
(511,0,l),
(511,100,l),
(141,100,l),
(141,165,l),
(144,168,l),
(175,145,o),
(225,122,o),
(285,122,cs),
(416,122,o),
(527,226,o),
(527,361,cs),
(527,497,o),
(418,610,o),
(282,610,cs),
(175,610,o),
(29,535,o),
(30,326,cs)
);
},
{
closed = 1;
nodes = (
(354,504,o),
(417,440,o),
(417,361,cs),
(417,284,o),
(354,220,o),
(276,220,cs),
(199,220,o),
(136,284,o),
(136,361,cs),
(136,440,o),
(199,504,o),
(276,504,cs)
);
},
{
alignment = -1;
pos = (80,40);
ref = acute;
}
);
width = 567;
},
{
associatedMasterId = "EBE2A6F1-3CB0-4D17-AF87-54EF93F0B568";
layerId = "A76F1336-A5FC-4C40-970B-71E61FAC3033";
name = "Apr 9 21, 17:55";
shapes = (
{
closed = 1;
nodes = (
(31,0,l),
(511,0,l),
(511,100,l),
(141,100,l),
(141,165,l),
(144,168,l),
(175,145,o),
(225,122,o),
(285,122,cs),
(416,122,o),
(527,226,o),
(527,361,cs),
(527,497,o),
(418,610,o),
(282,610,cs),
(175,610,o),
(29,535,o),
(30,326,cs)
);
},
{
closed = 1;
nodes = (
(354,504,o),
(417,440,o),
(417,361,cs),
(417,284,o),
(354,220,o),
(276,220,cs),
(199,220,o),
(136,284,o),
(136,361,cs),
(136,440,o),
(199,504,o),
(276,504,cs)
);
},
{
alignment = -1;
pos = (80,40);
ref = acute;
}
);
width = 521;
},
{
layerId = "EBE2A6F1-3CB0-4D17-AF87-54EF93F0B568";
shapes = (
{
alignment = -1;
pos = (-53,0);
ref = eacc;
},
{
alignment = -1;
pos = (46,0);
ref = acute;
}
);
width = 468;
}
);
unicode = 233;
},
{
glyphname = ecircumflex;
lastChange = "2023-01-27 15:45:00 +0000";
layers = (
{
layerId = "EBE2A6F1-3CB0-4D17-AF87-54EF93F0B568";
shapes = (
{
alignment = -1;
pos = (50,0);
ref = circumflex;
},
{
alignment = -1;
ref = eacc;
}
);
width = 600;
},
{
associatedMasterId = "EBE2A6F1-3CB0-4D17-AF87-54EF93F0B568";
layerId = "71E8E1C5-DFCC-4266-BB47-ED3427959997";
name = "Apr 9 21, 17:47";
shapes = (
{
closed = 1;
nodes = (
(51,0,l),
(531,0,l),
(531,100,l),
(161,100,l),
(161,165,l),
(164,168,l),
(195,145,o),
(245,122,o),
(305,122,cs),
(436,122,o),
(547,226,o),
(547,361,cs),
(547,497,o),
(438,610,o),
(302,610,cs),
(195,610,o),
(49,535,o),
(50,326,cs)
);
},
{
closed = 1;
nodes = (
(374,504,o),
(437,440,o),
(437,361,cs),
(437,284,o),
(374,220,o),
(296,220,cs),
(219,220,o),
(156,284,o),
(156,361,cs),
(156,440,o),
(219,504,o),
(296,504,cs)
);
},
{
pos = (62,40);
ref = circumflex;
}
);
width = 600;
}
);
unicode = 234;
},
{
glyphname = f;
lastChange = "2021-05-31 16:11:37 +0000";
layers = (
{
layerId = "EBE2A6F1-3CB0-4D17-AF87-54EF93F0B568";
shapes = (
{
closed = 1;
nodes = (
(60,701,l),
(505,701,l),
(505,601,l),
(170,601,l),
(170,409,l),
(475,409,l),
(475,309,l),
(170,309,l),
(170,0,l),
(60,0,l)
);
}
);
width = 535;
}
);
metricLeft = n;
unicode = 102;
},
{
glyphname = g;
lastChange = "2021-05-31 16:12:14 +0000";
layers = (
{
background = {
shapes = (
{
closed = 1;
nodes = (
(516,215,l),
(516,121,l),
(516,121,o),
(464,85,o),
(389,85,cs),
(247,85,o),
(138,200,o),
(138,349,cs),
(138,497,o),
(245,614,o),
(389,614,cs),
(484,614,o),
(551,562,o),
(590,484,c),
(680,536,l),
(618,643,o),
(523,710,o),
(389,710,cs),
(188,710,o),
(35,551,o),
(35,349,cs),
(35,145,o),
(181,-11,o),
(389,-11,cs),
(510,-11,o),
(594,50,o),
(614,67,c),
(614,315,l),
(415,315,l),
(415,215,l)
);
}
);
};
layerId = "EBE2A6F1-3CB0-4D17-AF87-54EF93F0B568";
shapes = (
{
closed = 1;
nodes = (
(530,114,o),
(461,90,o),
(392,90,cs),
(252,90,o),
(142,206,o),
(142,349,cs),
(142,497,o),
(252,610,o),
(392,610,cs),
(477,610,o),
(557,564,o),
(603,494,c),
(690,543,l),
(631,643,o),
(518,710,o),
(392,710,cs),
(192,710,o),
(30,548,o),
(30,349,cs),
(30,146,o),
(190,-12,o),
(384,-12,cs),
(509,-12,o),
(622,43,o),
(679,138,c),
(679,354,l),
(381,354,l),
(381,254,l),
(569,254,l),
(569,163,l)
);
}
);
width = 730;
},
{
associatedMasterId = "EBE2A6F1-3CB0-4D17-AF87-54EF93F0B568";
layerId = "5057A983-4B38-4B48-9687-B197CECF6E5F";
name = "Feb 11 21, 14:57";
shapes = (
{
closed = 1;
nodes = (
(485,215,l),
(485,121,l),
(485,121,o),
(433,85,o),
(358,85,cs),
(216,85,o),
(107,200,o),
(107,349,cs),
(107,497,o),
(214,614,o),
(358,614,cs),
(453,614,o),
(520,562,o),
(559,484,c),
(649,536,l),
(587,643,o),
(492,710,o),
(358,710,cs),
(157,710,o),
(4,551,o),
(4,349,cs),
(4,145,o),
(150,-11,o),
(358,-11,cs),
(479,-11,o),
(563,50,o),
(583,67,c),
(583,315,l),
(384,315,l),
(384,215,l)
);
}
);
width = 600;
},
{
associatedMasterId = "EBE2A6F1-3CB0-4D17-AF87-54EF93F0B568";
background = {
shapes = (
{
closed = 1;
nodes = (
(485,215,l),
(485,121,l),
(485,121,o),
(433,85,o),
(358,85,cs),
(216,85,o),
(107,200,o),
(107,349,cs),
(107,497,o),
(214,614,o),
(358,614,cs),
(453,614,o),
(520,562,o),
(559,484,c),
(649,536,l),
(587,643,o),
(492,710,o),
(358,710,cs),
(157,710,o),
(4,551,o),
(4,349,cs),
(4,145,o),
(150,-11,o),
(358,-11,cs),
(479,-11,o),
(563,50,o),
(583,67,c),
(583,315,l),
(384,315,l),
(384,215,l)
);
}
);
};
layerId = "8B581B53-113F-41DF-9D9C-288AC1BCE830";
name = "Feb 11 21, 14:59";
shapes = (
{
closed = 0;
nodes = (
(671,133,l),
(671,350,l),
(373,350,l),
(373,246,l),
(561,246,l),
(561,142,l)
);
},
{
closed = 1;
nodes = (
(20,150,o),
(181,-12,o),
(381,-12,cs),
(507,-12,o),
(620,55,o),
(679,155,c),
(592,204,l),
(546,134,o),
(466,88,o),
(381,88,cs),
(241,88,o),
(130,201,o),
(130,349,cs),
(130,497,o),
(241,610,o),
(381,610,cs),
(466,610,o),
(546,564,o),
(592,494,c),
(679,543,l),
(620,643,o),
(507,710,o),
(381,710,cs),
(181,710,o),
(20,548,o),
(20,349,cs)
);
}
);
width = 600;
}
);
metricLeft = o;
unicode = 103;
},
{
glyphname = h;
lastChange = "2021-05-27 14:30:12 +0000";
layers = (
{
layerId = "EBE2A6F1-3CB0-4D17-AF87-54EF93F0B568";
shapes = (
{
closed = 1;
nodes = (
(60,700,l),
(170,700,l),
(170,402,l),
(493,402,l),
(493,700,l),
(603,700,l),
(603,0,l),
(493,0,l),
(493,302,l),
(170,302,l),
(170,0,l),
(60,0,l)
);
}
);
width = 663;
},
{
associatedMasterId = "EBE2A6F1-3CB0-4D17-AF87-54EF93F0B568";
layerId = "E49E6652-6AF3-481A-8332-D673A3CEEBFD";
name = "Feb 11 21, 15:00";
shapes = (
{
closed = 1;
nodes = (
(12,700,l),
(119,700,l),
(119,404,l),
(552,404,l),
(552,700,l),
(659,700,l),
(659,0,l),
(552,0,l),
(552,309,l),
(119,309,l),
(119,0,l),
(12,0,l)
);
}
);
width = 600;
}
);
metricLeft = n;
metricRight = n;
unicode = 104;
},
{
glyphname = i;
lastChange = "2021-05-27 14:30:12 +0000";
layers = (
{
associatedMasterId = "EBE2A6F1-3CB0-4D17-AF87-54EF93F0B568";
layerId = "7E2531E1-4797-4661-BAD3-14794A0A5812";
name = "Feb 12 21, 11:44";
shapes = (
{
closed = 1;
nodes = (
(88,700,l),
(198,700,l),
(198,0,l),
(88,0,l)
);
}
);
width = 286;
},
{
layerId = "EBE2A6F1-3CB0-4D17-AF87-54EF93F0B568";
shapes = (
{
closed = 1;
nodes = (
(180,574,o),
(215,609,o),
(215,652,cs),
(215,696,o),
(180,731,o),
(136,731,cs),
(92,731,o),
(57,696,o),
(57,652,cs),
(57,609,o),
(92,574,o),
(136,574,cs)
);
},
{
pos = (-12,0);
ref = idotless;
}
);
width = 272;
},
{
associatedMasterId = "EBE2A6F1-3CB0-4D17-AF87-54EF93F0B568";
layerId = "6DD061AF-1688-45A9-8C42-723E6EFB4525";
name = "Feb 18 21, 15:27";
shapes = (
{
closed = 1;
nodes = (
(93,520,l),
(203,520,l),
(203,0,l),
(93,0,l)
);
},
{
closed = 1;
nodes = (
(186,575,o),
(216,605,o),
(216,642,cs),
(216,680,o),
(186,710,o),
(148,710,cs),
(110,710,o),
(80,680,o),
(80,642,cs),
(80,605,o),
(110,575,o),
(148,575,cs)
);
}
);
width = 296;
}
);
unicode = 105;
},
{
glyphname = idotless;
lastChange = "2021-05-27 14:30:12 +0000";
layers = (
{
layerId = "EBE2A6F1-3CB0-4D17-AF87-54EF93F0B568";
shapes = (
{
closed = 1;
nodes = (
(93,520,l),
(203,520,l),
(203,0,l),
(93,0,l)
);
}
);
width = 296;
}
);
unicode = 305;
},
{
glyphname = j;
lastChange = "2021-05-31 15:59:01 +0000";
layers = (
{
associatedMasterId = "EBE2A6F1-3CB0-4D17-AF87-54EF93F0B568";
background = {
shapes = (
{
closed = 1;
nodes = (
(327,-10,o),
(421,83,o),
(421,200,cs),
(421,316,o),
(327,410,o),
(211,410,cs),
(95,410,o),
(2,316,o),
(2,200,cs),
(2,83,o),
(95,-10,o),
(211,-10,cs)
);
},
{
closed = 1;
nodes = (
(266,100,o),
(311,144,o),
(311,200,cs),
(311,255,o),
(266,300,o),
(211,300,cs),
(156,300,o),
(112,255,o),
(112,200,cs),
(112,144,o),
(156,100,o),
(211,100,cs)
);
},
{
closed = 0;
nodes = (
(10,142,l),
(112,200,l)
);
}
);
};
layerId = "1292D261-A1B1-41CE-945F-8E6731E938B6";
name = "Feb 11 21, 15:20";
shapes = (
{
closed = 1;
nodes = (
(311,200,ls),
(311,139,o),
(266,100,o),
(212,100,cs),
(153,100,o),
(117,145,o),
(95,194,c),
(3,140,l),
(33,54,o),
(112,-10,o),
(210,-10,cs),
(329,-10,o),
(421,83,o),
(421,200,cs),
(421,520,l),
(311,520,l)
);
},
{
closed = 1;
nodes = (
(401,575,o),
(431,605,o),
(431,642,cs),
(431,680,o),
(401,710,o),
(363,710,cs),
(325,710,o),
(295,680,o),
(295,642,cs),
(295,605,o),
(325,575,o),
(363,575,cs)
);
}
);
width = 600;
},
{
associatedMasterId = "EBE2A6F1-3CB0-4D17-AF87-54EF93F0B568";
background = {
shapes = (
{
closed = 1;
nodes = (
(327,-10,o),
(421,83,o),
(421,200,cs),
(421,316,o),
(327,410,o),
(211,410,cs),
(95,410,o),
(2,316,o),
(2,200,cs),
(2,83,o),
(95,-10,o),
(211,-10,cs)
);
},
{
closed = 1;
nodes = (
(266,100,o),
(311,144,o),
(311,200,cs),
(311,255,o),
(266,300,o),
(211,300,cs),
(156,300,o),
(112,255,o),
(112,200,cs),
(112,144,o),
(156,100,o),
(211,100,cs)
);
},
{
closed = 0;
nodes = (
(24,94,l),
(126,152,l)
);
}
);
};
layerId = "CE1D7B23-3262-4665-9BD2-70746A7D4208";
name = "Feb 11 21, 15:20";
shapes = (
{
closed = 1;
nodes = (
(64,32,o),
(131,-10,o),
(210,-10,cs),
(329,-10,o),
(421,81,o),
(421,200,cs),
(421,520,l),
(311,520,l),
(311,197,ls),
(311,138,o),
(265,100,o),
(212,100,cs),
(169,100,o),
(141,121,o),
(124,151,c),
(28,96,l)
);
},
{
closed = 1;
nodes = (
(401,575,o),
(431,605,o),
(431,642,cs),
(431,680,o),
(401,710,o),
(363,710,cs),
(325,710,o),
(295,680,o),
(295,642,cs),
(295,605,o),
(325,575,o),
(363,575,cs)
);
}
);
width = 486;
},
{
associatedMasterId = "EBE2A6F1-3CB0-4D17-AF87-54EF93F0B568";
background = {
shapes = (
{
closed = 1;
nodes = (
(327,-10,o),
(421,83,o),
(421,200,cs),
(421,316,o),
(327,410,o),
(211,410,cs),
(95,410,o),
(2,316,o),
(2,200,cs),
(2,83,o),
(95,-10,o),
(211,-10,cs)
);
},
{
closed = 1;
nodes = (
(266,100,o),
(311,144,o),
(311,200,cs),
(311,255,o),
(266,300,o),
(211,300,cs),
(156,300,o),
(112,255,o),
(112,200,cs),
(112,144,o),
(156,100,o),
(211,100,cs)
);
},
{
closed = 0;
nodes = (
(10,142,l),
(112,200,l)
);
}
);
};
layerId = "89015AE3-6880-47B3-92D0-9F73274D134A";
name = "Feb 11 21, 15:20";
shapes = (
{
closed = 1;
nodes = (
(311,200,ls),
(311,145,o),
(266,100,o),
(211,100,cs),
(156,100,o),
(112,145,o),
(112,200,c),
(2,200,l),
(2,83,o),
(92,-10,o),
(210,-10,cs),
(329,-10,o),
(421,83,o),
(421,200,cs),
(421,520,l),
(311,520,l)
);
},
{
closed = 1;
nodes = (
(401,575,o),
(431,605,o),
(431,642,cs),
(431,680,o),
(401,710,o),
(363,710,cs),
(325,710,o),
(295,680,o),
(295,642,cs),
(295,605,o),
(325,575,o),
(363,575,cs)
);
}
);
width = 600;
},
{
associatedMasterId = "EBE2A6F1-3CB0-4D17-AF87-54EF93F0B568";
background = {
shapes = (
{
closed = 1;
nodes = (
(330,-10,o),
(424,83,o),
(424,200,cs),
(424,316,o),
(330,410,o),
(214,410,cs),
(98,410,o),
(5,316,o),
(5,200,cs),
(5,83,o),
(98,-10,o),
(214,-10,cs)
);
},
{
closed = 1;
nodes = (
(269,100,o),
(314,144,o),
(314,200,cs),
(314,255,o),
(269,300,o),
(214,300,cs),
(159,300,o),
(115,255,o),
(115,200,cs),
(115,144,o),
(159,100,o),
(214,100,cs)
);
},
{
closed = 0;
nodes = (
(13,142,l),
(115,200,l)
);
}
);
};
layerId = "16DC2AE9-EFFE-4D6F-A1D0-31293027BAA1";
name = "Feb 12 21, 11:44";
shapes = (
{
closed = 1;
nodes = (
(314,200,ls),
(314,145,o),
(269,100,o),
(214,100,cs),
(159,100,o),
(115,145,o),
(115,200,c),
(5,200,l),
(5,83,o),
(95,-10,o),
(213,-10,cs),
(332,-10,o),
(424,83,o),
(424,200,cs),
(424,700,l),
(314,700,l)
);
}
);
width = 509;
},
{
background = {
shapes = (
{
closed = 1;
nodes = (
(350,118,o),
(285,88,o),
(216,88,cs),
(76,88,o),
(-35,201,o),
(-35,349,cs),
(-35,497,o),
(76,610,o),
(216,610,cs),
(301,610,o),
(381,564,o),
(427,494,c),
(514,543,l),
(455,643,o),
(342,710,o),
(216,710,cs),
(16,710,o),
(-145,548,o),
(-145,349,cs),
(-145,150,o),
(16,-12,o),
(216,-12,cs),
(335,-12,o),
(442,47,o),
(503,138,c),
(503,349,l),
(205,349,l),
(205,254,l),
(393,254,l),
(393,163,l)
);
}
);
};
layerId = "EBE2A6F1-3CB0-4D17-AF87-54EF93F0B568";
shapes = (
{
closed = 1;
nodes = (
(314,210,ls),
(314,136,o),
(274,93,o),
(217,93,cs),
(159,93,o),
(115,136,o),
(115,190,c),
(5,190,l),
(5,73,o),
(95,-10,o),
(213,-10,cs),
(332,-10,o),
(424,73,o),
(424,210,cs),
(424,520,l),
(314,520,l)
);
},
{
closed = 1;
nodes = (
(404,575,o),
(434,605,o),
(434,642,cs),
(434,680,o),
(404,710,o),
(366,710,cs),
(328,710,o),
(298,680,o),
(298,642,cs),
(298,605,o),
(328,575,o),
(366,575,cs)
);
}
);
width = 509;
}
);
unicode = 106;
},
{
glyphname = k;
lastChange = "2021-05-27 14:30:12 +0000";
layers = (
{
associatedMasterId = "EBE2A6F1-3CB0-4D17-AF87-54EF93F0B568";
layerId = "AE4ED22B-54D0-4F08-85F7-796E98B086F1";
name = "Feb 11 21, 15:33";
shapes = (
{
closed = 1;
nodes = (
(270,356,l),
(336,395,o),
(418,479,o),
(418,653,cs),
(418,667,o),
(417,688,o),
(415,700,c),
(382,700,o),
(331,700,o),
(312,700,c),
(314,693,o),
(316,670,o),
(316,649,cs),
(316,443,o),
(162,397,o),
(107,390,c),
(107,469,o),
(107,700,o),
(107,700,c),
(0,700,l),
(0,0,l),
(107,0,l),
(107,299,l),
(122,300,o),
(148,302,o),
(180,314,c),
(380,0,l),
(513,0,l),
(513,0,l)
);
}
);
width = 600;
},
{
associatedMasterId = "EBE2A6F1-3CB0-4D17-AF87-54EF93F0B568";
layerId = "B0F0CBB6-D890-4764-BD63-47FD246D7A4C";
name = "Feb 11 21, 15:33";
shapes = (
{
closed = 1;
nodes = (
(270,356,l),
(336,395,o),
(418,479,o),
(418,653,cs),
(418,667,o),
(417,688,o),
(415,700,c),
(382,700,o),
(331,700,o),
(312,700,c),
(314,693,o),
(316,670,o),
(316,649,cs),
(316,443,o),
(162,397,o),
(107,390,c),
(107,469,o),
(107,700,o),
(107,700,c),
(0,700,l),
(0,0,l),
(107,0,l),
(107,299,l),
(122,300,o),
(148,302,o),
(180,314,c),
(380,0,l),
(513,0,l),
(513,0,l)
);
}
);
width = 600;
},
{
associatedMasterId = "EBE2A6F1-3CB0-4D17-AF87-54EF93F0B568";
background = {
shapes = (
{
closed = 1;
nodes = (
(270,356,l),
(336,395,o),
(418,479,o),
(418,653,cs),
(418,667,o),
(417,688,o),
(415,700,c),
(382,700,o),
(331,700,o),
(312,700,c),
(314,693,o),
(316,670,o),
(316,649,cs),
(316,443,o),
(162,397,o),
(107,330,c),
(107,469,o),
(107,700,o),
(107,700,c),
(0,700,l),
(0,0,l),
(107,0,l),
(107,239,l),
(122,240,o),
(148,242,o),
(180,314,c),
(389,-14,l),
(482,47,l)
);
}
);
};
layerId = "A06AECE3-47C4-4DBB-899B-721590772CB8";
name = "Feb 11 21, 15:36";
shapes = (
{
closed = 1;
nodes = (
(1,700,l),
(111,700,l),
(111,0,l),
(1,0,l)
);
},
{
closed = 0;
nodes = (
(366,702,l),
(346,486,o),
(237,343,o),
(77,279,c)
);
}
);
width = 600;
},
{
associatedMasterId = "EBE2A6F1-3CB0-4D17-AF87-54EF93F0B568";
background = {
shapes = (
{
closed = 1;
nodes = (
(445,0,l),
(519,0,l),
(243,401,l),
(506,698,l),
(433,698,l),
(203,434,l),
(91,305,l),
(89,305,l),
(89,698,l),
(29,698,l),
(29,0,l),
(89,0,l),
(89,235,l),
(202,360,l)
);
}
);
};
layerId = "235DA6FF-EA31-4CD0-A5D9-64550B30F425";
name = "Feb 11 21, 15:41";
shapes = (
{
closed = 1;
nodes = (
(270,356,l),
(336,395,o),
(418,479,o),
(418,653,cs),
(418,667,o),
(417,688,o),
(415,700,c),
(382,700,o),
(331,700,o),
(312,700,c),
(314,693,o),
(316,670,o),
(316,649,cs),
(316,443,o),
(162,397,o),
(107,330,c),
(107,469,o),
(107,700,o),
(107,700,c),
(0,700,l),
(0,0,l),
(107,0,l),
(107,239,l),
(122,240,o),
(148,242,o),
(180,314,c),
(389,-14,l),
(482,47,l)
);
}
);
width = 600;
},
{
associatedMasterId = "EBE2A6F1-3CB0-4D17-AF87-54EF93F0B568";
background = {
shapes = (
{
closed = 1;
nodes = (
(499,0,l),
(573,0,l),
(297,401,l),
(560,698,l),
(487,698,l),
(257,434,l),
(145,305,l),
(143,305,l),
(143,698,l),
(83,698,l),
(83,0,l),
(143,0,l),
(143,235,l),
(256,360,l)
);
}
);
};
layerId = "01985F3D-4561-4D9B-97AA-67BC92300202";
name = "Feb 11 21, 15:42";
shapes = (
{
closed = 1;
nodes = (
(55,700,l),
(165,700,l),
(165,0,l),
(55,0,l)
);
},
{
closed = 1;
nodes = (
(127,334,l),
(242,389,o),
(366,542,o),
(449,707,c),
(545,663,l),
(436,470,o),
(297,303,o),
(151,238,c)
);
},
{
closed = 1;
nodes = (
(328,393,l),
(566,47,l),
(473,-14,l),
(264,314,l)
);
}
);
width = 591;
},
{
associatedMasterId = "EBE2A6F1-3CB0-4D17-AF87-54EF93F0B568";
background = {
shapes = (
{
closed = 1;
nodes = (
(549,0,l),
(623,0,l),
(347,401,l),
(610,698,l),
(537,698,l),
(307,434,l),
(195,305,l),
(193,305,l),
(193,698,l),
(133,698,l),
(133,0,l),
(193,0,l),
(193,235,l),
(306,360,l)
);
}
);
};
layerId = "DE038B88-E06A-42BA-A90B-1362CCD2DCBB";
name = original;
shapes = (
{
closed = 1;
nodes = (
(333,356,l),
(389,395,o),
(473,479,o),
(473,653,cs),
(473,667,o),
(471,688,o),
(469,700,c),
(436,700,o),
(385,700,o),
(366,700,c),
(368,693,o),
(370,670,o),
(370,649,cs),
(370,443,o),
(216,396,o),
(161,391,c),
(161,469,o),
(161,700,o),
(161,700,c),
(55,700,l),
(55,0,l),
(161,0,l),
(161,299,l),
(177,300,o),
(201,302,o),
(240,314,c),
(399,0,l),
(525,0,l)
);
}
);
width = 587;
},
{
associatedMasterId = "EBE2A6F1-3CB0-4D17-AF87-54EF93F0B568";
background = {
shapes = (
{
closed = 1;
nodes = (
(559,0,l),
(633,0,l),
(357,401,l),
(620,698,l),
(547,698,l),
(317,434,l),
(205,305,l),
(203,305,l),
(203,698,l),
(143,698,l),
(143,0,l),
(203,0,l),
(203,235,l),
(316,360,l)
);
}
);
};
layerId = "CC101622-BBD6-4740-8B57-7C1311416F10";
name = "Apr 15 21, 13:53";
shapes = (
{
closed = 1;
nodes = (
(325,395,l),
(340,347,l),
(402,381,o),
(518,464,o),
(518,653,cs),
(518,667,o),
(516,688,o),
(514,700,c),
(481,700,o),
(430,700,o),
(411,700,c),
(413,693,o),
(415,670,o),
(415,649,cs),
(415,443,o),
(246,386,o),
(171,381,c),
(171,700,l),
(60,700,l),
(60,0,l),
(171,0,l),
(171,293,l),
(202,296,o),
(255,307,o),
(296,327,c),
(232,353,l),
(434,0,l),
(567,0,l)
);
}
);
width = 577;
},
{
associatedMasterId = "EBE2A6F1-3CB0-4D17-AF87-54EF93F0B568";
background = {
shapes = (
{
closed = 1;
nodes = (
(559,0,l),
(633,0,l),
(357,401,l),
(620,698,l),
(547,698,l),
(317,434,l),
(205,305,l),
(203,305,l),
(203,698,l),
(143,698,l),
(143,0,l),
(203,0,l),
(203,235,l),
(316,360,l)
);
}
);
};
layerId = "70E64395-5D89-4DC0-9670-D075FC02057E";
name = "Apr 15 21, 13:53";
shapes = (
{
closed = 1;
nodes = (
(325,395,l),
(340,347,l),
(402,381,o),
(518,464,o),
(518,653,cs),
(518,667,o),
(516,688,o),
(514,700,c),
(481,700,o),
(430,700,o),
(411,700,c),
(413,693,o),
(415,670,o),
(415,649,cs),
(415,443,o),
(246,386,o),
(171,381,c),
(171,700,l),
(60,700,l),
(60,0,l),
(171,0,l),
(171,293,l),
(202,296,o),
(255,307,o),
(296,327,c),
(232,353,l),
(434,0,l),
(567,0,l)
);
}
);
width = 577;
},
{
associatedMasterId = "EBE2A6F1-3CB0-4D17-AF87-54EF93F0B568";
background = {
shapes = (
{
closed = 1;
nodes = (
(559,0,l),
(633,0,l),
(357,401,l),
(620,698,l),
(547,698,l),
(317,434,l),
(205,305,l),
(203,305,l),
(203,698,l),
(143,698,l),
(143,0,l),
(203,0,l),
(203,235,l),
(316,360,l)
);
}
);
};
layerId = "977E0CBD-4328-4B2D-B8FA-88F92224D87B";
name = "Apr 15 21, 15:21";
shapes = (
{
closed = 1;
nodes = (
(171,700,l),
(60,700,l),
(60,0,l),
(171,0,l)
);
},
{
closed = 1;
nodes = (
(543,639,l),
(458,710,l),
(66,274,l),
(133,182,l)
);
},
{
closed = 1;
nodes = (
(215,349,l),
(466,-10,l),
(557,54,l),
(285,441,l)
);
}
);
width = 577;
},
{
background = {
shapes = (
{
closed = 1;
nodes = (
(340,347,l),
(402,381,o),
(516,464,o),
(516,653,cs),
(516,700,l),
(415,700,l),
(415,649,ls),
(415,443,o),
(246,396,o),
(171,391,c),
(171,700,l),
(60,700,l),
(60,0,l),
(171,0,l),
(171,293,l),
(202,296,o),
(255,307,o),
(296,327,c)
);
},
{
closed = 1;
nodes = (
(476,-9,l),
(567,44,l),
(377,375,l),
(285,328,l)
);
}
);
};
layerId = "EBE2A6F1-3CB0-4D17-AF87-54EF93F0B568";
shapes = (
{
closed = 1;
nodes = (
(340,347,l),
(471,419,o),
(521,523,o),
(516,700,c),
(414,697,l),
(415,679,l),
(421,446,o),
(275,412,o),
(171,390,c),
(171,700,l),
(60,700,l),
(60,0,l),
(171,0,l),
(171,293,l),
(202,296,o),
(255,307,o),
(296,327,c)
);
},
{
closed = 1;
nodes = (
(476,-9,l),
(567,44,l),
(377,375,l),
(285,328,l)
);
}
);
width = 577;
},
{
associatedMasterId = "EBE2A6F1-3CB0-4D17-AF87-54EF93F0B568";
background = {
shapes = (
{
closed = 1;
nodes = (
(559,0,l),
(633,0,l),
(357,401,l),
(620,698,l),
(547,698,l),
(317,434,l),
(205,305,l),
(203,305,l),
(203,698,l),
(143,698,l),
(143,0,l),
(203,0,l),
(203,235,l),
(316,360,l)
);
}
);
};
layerId = "02C1D7BD-3A9C-4945-87FF-DC36CBA4EBBC";
name = "May 9 21, 11:51";
shapes = (
{
closed = 1;
nodes = (
(325,395,l),
(340,347,l),
(402,381,o),
(518,464,o),
(518,653,cs),
(518,667,o),
(516,688,o),
(514,700,c),
(481,700,o),
(430,700,o),
(411,700,c),
(413,693,o),
(415,670,o),
(415,649,cs),
(415,443,o),
(246,386,o),
(171,381,c),
(171,700,l),
(60,700,l),
(60,0,l),
(171,0,l),
(171,293,l),
(202,296,o),
(255,307,o),
(296,327,c),
(232,353,l),
(434,0,l),
(567,0,l)
);
},
{
closed = 1;
nodes = (
(373,344,l),
(547,44,l),
(456,-9,l),
(279,303,l)
);
}
);
width = 577;
}
);
metricLeft = n;
unicode = 107;
},
{
glyphname = l;
lastChange = "2021-05-31 16:14:02 +0000";
layers = (
{
associatedMasterId = "EBE2A6F1-3CB0-4D17-AF87-54EF93F0B568";
layerId = "AF60205A-416F-48E7-A9D5-31570F421E56";
name = "Feb 11 21, 15:56";
shapes = (
{
closed = 1;
nodes = (
(165,700,l),
(165,95,l),
(600,95,l),
(600,0,l),
(55,0,l),
(55,700,l)
);
},
{
closed = 1;
nodes = (
(370,700,l),
(370,285,l),
(600,285,l),
(600,190,l),
(260,190,l),
(260,700,l)
);
}
);
width = 620;
},
{
layerId = "EBE2A6F1-3CB0-4D17-AF87-54EF93F0B568";
shapes = (
{
closed = 1;
nodes = (
(170,701,l),
(170,100,l),
(485,100,l),
(485,0,l),
(60,0,l),
(60,701,l)
);
}
);
width = 495;
}
);
metricLeft = n;
unicode = 108;
},
{
glyphname = m;
lastChange = "2021-05-27 14:30:12 +0000";
layers = (
{
layerId = "EBE2A6F1-3CB0-4D17-AF87-54EF93F0B568";
shapes = (
{
closed = 1;
nodes = (
(411,262,l),
(630,700,l),
(755,700,l),
(755,0,l),
(645,0,l),
(649,532,l),
(645,532,l),
(451,124,l),
(365,124,l),
(171,532,l),
(167,532,l),
(171,0,l),
(61,0,l),
(60,700,l),
(185,700,l),
(407,262,l)
);
}
);
width = 815;
},
{
associatedMasterId = "EBE2A6F1-3CB0-4D17-AF87-54EF93F0B568";
layerId = "5DF1FB29-86B0-4752-9663-6611607A7D1E";
name = "Feb 11 21, 15:57";
shapes = (
{
closed = 1;
nodes = (
(436,262,l),
(684,700,l),
(811,700,l),
(811,0,l),
(700,0,l),
(704,532,l),
(700,532,l),
(476,124,l),
(390,124,l),
(166,532,l),
(162,532,l),
(166,0,l),
(56,0,l),
(55,700,l),
(180,700,l),
(432,262,l)
);
}
);
width = 866;
},
{
associatedMasterId = "EBE2A6F1-3CB0-4D17-AF87-54EF93F0B568";
layerId = "A12C83DC-9849-4D22-95B4-1FF8A4461F4D";
name = "Apr 8 21, 12:19";
shapes = (
{
closed = 1;
nodes = (
(431,262,l),
(649,700,l),
(776,980,l),
(776,0,l),
(665,0,l),
(669,532,l),
(665,532,l),
(471,124,l),
(385,124,l),
(191,532,l),
(187,532,l),
(191,0,l),
(81,0,l),
(80,980,l),
(205,700,l),
(427,262,l)
);
}
);
width = 856;
},
{
associatedMasterId = "EBE2A6F1-3CB0-4D17-AF87-54EF93F0B568";
layerId = "4E55A7CD-0CF2-4C2B-8611-C3CE55B35D8C";
name = "Apr 16 21, 11:48";
shapes = (
{
closed = 1;
nodes = (
(266,0,l),
(266,436,l),
(456,218,l),
(646,436,l),
(646,0,l),
(756,0,l),
(756,720,l),
(456,393,l),
(156,720,l),
(156,0,l)
);
}
);
width = 816;
}
);
metricLeft = n;
metricRight = n;
unicode = 109;
},
{
glyphname = n;
lastChange = "2021-05-27 14:30:12 +0000";
layers = (
{
layerId = "EBE2A6F1-3CB0-4D17-AF87-54EF93F0B568";
shapes = (
{
closed = 1;
nodes = (
(484,0,l),
(618,0,l),
(618,700,l),
(508,700,l),
(508,201,l),
(512,165,l),
(526,175,l),
(498,163,l),
(511,165,l),
(194,700,l),
(60,700,l),
(60,0,l),
(170,0,l),
(170,511,l),
(166,537,l),
(155,526,l),
(180,537,l),
(167,537,l)
);
}
);
width = 678;
},
{
associatedMasterId = "EBE2A6F1-3CB0-4D17-AF87-54EF93F0B568";
layerId = "C7A57DF8-241F-4A67-81D6-7A64CB27BDDA";
name = "Feb 11 21, 15:49";
shapes = (
{
closed = 1;
nodes = (
(603,163,l),
(603,163,l),
(178,700,l),
(55,700,l),
(55,0,l),
(165,0,l),
(165,548,l),
(165,548,l),
(590,0,l),
(725,0,l),
(725,700,l),
(603,700,l)
);
}
);
width = 780;
},
{
associatedMasterId = "EBE2A6F1-3CB0-4D17-AF87-54EF93F0B568";
layerId = "C0260BD1-4B81-49D2-90EF-7D33ED6C57F0";
name = "Feb 11 21, 15:50";
shapes = (
{
closed = 1;
nodes = (
(533,193,l),
(531,193,l),
(198,700,l),
(55,700,l),
(55,0,l),
(165,0,l),
(167,518,l),
(169,518,l),
(500,0,l),
(655,0,l),
(655,700,l),
(533,700,l)
);
}
);
width = 780;
},
{
associatedMasterId = "EBE2A6F1-3CB0-4D17-AF87-54EF93F0B568";
layerId = "A25BBA3D-FDD9-4F53-93E9-AB4F23750E72";
name = "Apr 13 21, 18:07";
shapes = (
{
closed = 1;
nodes = (
(454,0,l),
(638,0,l),
(638,700,l),
(503,700,l),
(503,210,l),
(507,174,l),
(521,184,l),
(493,172,l),
(506,174,l),
(244,700,l),
(60,700,l),
(60,0,l),
(195,0,l),
(195,500,l),
(191,526,l),
(180,515,l),
(205,526,l),
(192,526,l)
);
}
);
width = 698;
},
{
associatedMasterId = "EBE2A6F1-3CB0-4D17-AF87-54EF93F0B568";
layerId = "34C7D864-B009-4CE8-BF0D-6EC94466C9BD";
name = "Apr 15 21, 10:18";
shapes = (
{
closed = 1;
nodes = (
(474,0,l),
(638,0,l),
(638,700,l),
(528,700,l),
(528,150,l),
(532,114,l),
(546,124,l),
(518,112,l),
(531,114,l),
(224,700,l),
(60,700,l),
(60,0,l),
(170,0,l),
(170,560,l),
(166,586,l),
(155,575,l),
(180,586,l),
(167,586,l)
);
}
);
width = 698;
},
{
associatedMasterId = "EBE2A6F1-3CB0-4D17-AF87-54EF93F0B568";
background = {
shapes = (
{
closed = 1;
nodes = (
(478,0,l),
(672,0,l),
(672,700,l),
(562,700,l),
(562,130,l),
(566,94,l),
(580,104,l),
(552,92,l),
(565,94,l),
(308,700,l),
(114,700,l),
(114,0,l),
(224,0,l),
(224,580,l),
(220,606,l),
(209,595,l),
(234,606,l),
(221,606,l)
);
}
);
};
layerId = "664888AA-3368-4722-9CA0-CA5BD2181C48";
name = "Apr 16 21, 11:30";
shapes = (
{
closed = 1;
nodes = (
(60,710,l),
(60,0,l),
(170,0,l),
(170,426,l),
(630,-10,l),
(630,700,l),
(520,700,l),
(520,274,l)
);
}
);
width = 690;
},
{
associatedMasterId = "EBE2A6F1-3CB0-4D17-AF87-54EF93F0B568";
layerId = "5350FAD4-85C9-4409-B849-5E9ABD14BE7D";
name = "Apr 24 21, 13:06";
shapes = (
{
closed = 1;
nodes = (
(424,0,l),
(618,0,l),
(618,700,l),
(508,700,l),
(508,130,l),
(512,94,l),
(526,104,l),
(498,92,l),
(511,94,l),
(254,700,l),
(60,700,l),
(60,0,l),
(170,0,l),
(170,580,l),
(166,606,l),
(155,595,l),
(180,606,l),
(167,606,l)
);
}
);
width = 678;
}
);
metricLeft = h;
metricRight = h;
unicode = 110;
},
{
glyphname = o;
lastChange = "2021-05-31 16:06:19 +0000";
layers = (
{
background = {
shapes = (
{
closed = 1;
nodes = (
(584,-10,o),
(741,147,o),
(741,350,cs),
(741,553,o),
(584,710,o),
(383,710,cs),
(182,710,o),
(25,553,o),
(25,350,cs),
(25,147,o),
(182,-10,o),
(383,-10,cs)
);
},
{
closed = 1;
nodes = (
(513,85,o),
(629,200,o),
(629,350,cs),
(629,500,o),
(513,615,o),
(383,615,cs),
(253,615,o),
(137,500,o),
(137,350,cs),
(137,200,o),
(253,85,o),
(383,85,cs)
);
}
);
};
layerId = "EBE2A6F1-3CB0-4D17-AF87-54EF93F0B568";
shapes = (
{
closed = 1;
nodes = (
(579,-10,o),
(736,147,o),
(736,350,cs),
(736,553,o),
(579,710,o),
(383,710,cs),
(187,710,o),
(30,553,o),
(30,350,cs),
(30,147,o),
(187,-10,o),
(383,-10,cs)
);
},
{
closed = 1;
nodes = (
(258,92,o),
(142,190,o),
(142,350,cs),
(142,510,o),
(258,608,o),
(383,608,cs),
(508,608,o),
(624,510,o),
(624,350,cs),
(624,190,o),
(508,92,o),
(383,92,cs)
);
}
);
width = 766;
},
{
associatedMasterId = "EBE2A6F1-3CB0-4D17-AF87-54EF93F0B568";
layerId = "9EFFE7C4-0197-4C92-957F-60CFCFEA46F5";
name = "Feb 11 21, 15:46";
shapes = (
{
closed = 1;
nodes = (
(63,196,o),
(165,85,o),
(309,85,cs),
(453,85,o),
(554,196,o),
(554,350,cs),
(554,504,o),
(453,615,o),
(309,615,cs),
(165,615,o),
(63,504,o),
(63,350,cs)
);
},
{
closed = 1;
nodes = (
(661,146,o),
(506,-10,o),
(309,-10,cs),
(112,-10,o),
(-44,146,o),
(-44,350,cs),
(-44,554,o),
(112,711,o),
(309,711,cs),
(506,711,o),
(661,554,o),
(661,350,cs)
);
}
);
width = 600;
},
{
associatedMasterId = "EBE2A6F1-3CB0-4D17-AF87-54EF93F0B568";
background = {
shapes = (
{
closed = 1;
nodes = (
(510,-10,o),
(667,147,o),
(667,350,cs),
(667,553,o),
(510,710,o),
(309,710,cs),
(108,710,o),
(-49,553,o),
(-49,350,cs),
(-49,147,o),
(108,-10,o),
(309,-10,cs)
);
},
{
closed = 1;
nodes = (
(439,85,o),
(555,200,o),
(555,350,cs),
(555,500,o),
(439,615,o),
(309,615,cs),
(179,615,o),
(63,500,o),
(63,350,cs),
(63,200,o),
(179,85,o),
(309,85,cs)
);
}
);
};
layerId = "7BB06A3F-BB0D-477D-AD64-991481BCE6EC";
name = "Feb 11 21, 15:48";
shapes = (
{
closed = 1;
nodes = (
(63,196,o),
(165,85,o),
(309,85,cs),
(453,85,o),
(554,196,o),
(554,350,cs),
(554,504,o),
(453,615,o),
(309,615,cs),
(165,615,o),
(63,504,o),
(63,350,cs)
);
},
{
closed = 1;
nodes = (
(661,146,o),
(506,-10,o),
(309,-10,cs),
(112,-10,o),
(-44,146,o),
(-44,350,cs),
(-44,554,o),
(112,711,o),
(309,711,cs),
(506,711,o),
(661,554,o),
(661,350,cs)
);
}
);
width = 600;
},
{
associatedMasterId = "EBE2A6F1-3CB0-4D17-AF87-54EF93F0B568";
background = {
shapes = (
{
closed = 1;
nodes = (
(609,-10,o),
(766,147,o),
(766,350,cs),
(766,553,o),
(609,710,o),
(408,710,cs),
(207,710,o),
(50,553,o),
(50,350,cs),
(50,147,o),
(207,-10,o),
(408,-10,cs)
);
},
{
closed = 1;
nodes = (
(538,85,o),
(654,200,o),
(654,350,cs),
(654,500,o),
(538,615,o),
(408,615,cs),
(278,615,o),
(162,500,o),
(162,350,cs),
(162,200,o),
(278,85,o),
(408,85,cs)
);
}
);
};
layerId = "FFF6AAE7-7063-48E7-A045-5404305810D1";
name = "Apr 7 21, 11:15";
shapes = (
{
closed = 1;
nodes = (
(493,-10,o),
(583,19,o),
(629,96,c),
(638,95,l),
(685,115,o),
(720,168,o),
(741,229,cs),
(745,238,o),
(734,258,o),
(737,268,cs),
(739,276,o),
(754,274,o),
(755,282,cs),
(759,304,o),
(761,327,o),
(761,350,cs),
(761,358,o),
(761,365,o),
(760,373,cs),
(759,395,o),
(732,409,o),
(727,429,cs),
(722,448,o),
(741,474,o),
(734,491,cs),
(680,621,o),
(555,710,o),
(408,710,cs),
(212,710,o),
(55,553,o),
(55,350,cs),
(55,147,o),
(212,-10,o),
(408,-10,cs)
);
},
{
closed = 1;
nodes = (
(283,92,o),
(167,190,o),
(167,350,cs),
(167,510,o),
(283,608,o),
(408,608,cs),
(533,608,o),
(649,510,o),
(649,350,cs),
(649,190,o),
(533,92,o),
(408,92,cs)
);
},
{
closed = 1;
nodes = (
(633,224,l),
(634,0,l),
(1114,0,l),
(1114,100,l),
(744,100,l),
(746,264,l),
(749,267,l),
(778,245,o),
(828,222,o),
(888,222,cs),
(1019,222,o),
(1130,326,o),
(1130,461,cs),
(1130,597,o),
(1021,710,o),
(885,710,cs),
(790,710,o),
(664,650,o),
(638,489,cs),
(635,470,o),
(679,387,o),
(673,365,cs)
);
},
{
closed = 1;
nodes = (
(957,604,o),
(1020,540,o),
(1020,461,cs),
(1020,384,o),
(957,320,o),
(879,320,cs),
(802,320,o),
(739,384,o),
(739,461,cs),
(739,540,o),
(802,604,o),
(879,604,cs)
);
}
);
width = 1150;
}
);
unicode = 111;
},
{
glyphname = oe;
lastChange = "2021-05-27 14:30:12 +0000";
layers = (
{
layerId = "EBE2A6F1-3CB0-4D17-AF87-54EF93F0B568";
shapes = (
{
closed = 1;
nodes = (
(604,-10,o),
(761,147,o),
(761,350,cs),
(761,553,o),
(604,710,o),
(408,710,cs),
(212,710,o),
(55,553,o),
(55,350,cs),
(55,147,o),
(212,-10,o),
(408,-10,cs)
);
},
{
closed = 1;
nodes = (
(283,92,o),
(167,190,o),
(167,350,cs),
(167,510,o),
(282,608,o),
(408,608,cs),
(533,608,o),
(649,510,o),
(649,350,cs),
(649,190,o),
(533,92,o),
(408,92,cs)
);
},
{
closed = 1;
nodes = (
(651,0,l),
(1127,0,l),
(1127,100,l),
(761,100,l),
(761,265,l),
(764,268,l),
(795,245,o),
(845,222,o),
(905,222,cs),
(1036,222,o),
(1147,326,o),
(1147,461,cs),
(1147,597,o),
(1038,710,o),
(902,710,cs),
(795,710,o),
(650,635,o),
(650,426,cs)
);
},
{
closed = 1;
nodes = (
(974,604,o),
(1037,540,o),
(1037,461,cs),
(1037,384,o),
(974,320,o),
(896,320,cs),
(819,320,o),
(756,384,o),
(756,461,cs),
(756,540,o),
(819,604,o),
(896,604,cs)
);
}
);
width = 1160;
}
);
unicode = 339;
},
{
glyphname = p;
lastChange = "2021-05-27 14:30:12 +0000";
layers = (
{
associatedMasterId = "EBE2A6F1-3CB0-4D17-AF87-54EF93F0B568";
layerId = "66803A1F-0025-42DF-A2AA-5A82421DF85F";
name = "Feb 11 21, 15:55";
width = 600;
},
{
associatedMasterId = "EBE2A6F1-3CB0-4D17-AF87-54EF93F0B568";
background = {
shapes = (
{
closed = 1;
nodes = (
(185,95,l),
(185,320,l),
(361,320,ls),
(435,320,o),
(498,288,o),
(498,212,cs),
(498,125,o),
(435,95,o),
(347,95,cs)
);
},
{
closed = 1;
nodes = (
(323,606,ls),
(386,606,o),
(435,582,o),
(435,512,cs),
(435,437,o),
(398,417,o),
(323,417,cs),
(185,417,l),
(185,606,l)
);
},
{
closed = 1;
nodes = (
(460,390,l),
(509,414,o),
(547,463,o),
(547,525,cs),
(547,625,o),
(461,700,o),
(335,700,cs),
(75,700,l),
(75,0,l),
(347,0,ls),
(498,0,o),
(598,75,o),
(598,200,cs),
(598,288,o),
(547,363,o),
(460,388,c)
);
}
);
};
layerId = "DF2524D2-E7C5-4C1F-871D-06A5B18E6725";
name = "Feb 12 21, 12:13";
shapes = (
{
closed = 1;
nodes = (
(185,284,l),
(327,284,ls),
(475,284,o),
(560,333,o),
(560,492,cs),
(560,628,o),
(476,700,o),
(327,700,cs),
(75,700,l),
(75,0,l),
(185,0,l)
);
},
{
closed = 1;
nodes = (
(327,605,ls),
(409,605,o),
(450,580,o),
(450,492,cs),
(450,398,o),
(409,379,o),
(327,379,cs),
(185,379,l),
(185,605,l)
);
}
);
width = 585;
},
{
background = {
shapes = (
{
closed = 0;
nodes = (
(341,700,ls),
(455,700,o),
(548,608,o),
(548,493,cs),
(548,378,o),
(456,285,o),
(341,285,cs)
);
},
{
closed = 0;
nodes = (
(336,380,ls),
(398,380,o),
(446,431,o),
(446,493,cs),
(446,555,o),
(398,605,o),
(336,605,cs)
);
}
);
};
layerId = "EBE2A6F1-3CB0-4D17-AF87-54EF93F0B568";
shapes = (
{
closed = 1;
nodes = (
(170,243,l),
(170,0,l),
(60,0,l),
(60,700,l),
(317,700,ls),
(442,700,o),
(545,599,o),
(545,472,cs),
(545,346,o),
(443,243,o),
(317,243,cs)
);
},
{
closed = 1;
nodes = (
(379,343,o),
(435,402,o),
(435,471,cs),
(435,541,o),
(380,600,o),
(311,600,cs),
(170,600,l),
(170,343,l),
(311,343,ls)
);
}
);
width = 550;
}
);
metricLeft = n;
unicode = 112;
},
{
glyphname = q;
lastChange = "2021-05-31 15:50:48 +0000";
layers = (
{
layerId = "EBE2A6F1-3CB0-4D17-AF87-54EF93F0B568";
shapes = (
{
closed = 1;
nodes = (
(352,-70,o),
(386,-152,o),
(494,-152,cs),
(612,-152,o),
(674,-41,o),
(674,-41,c),
(607,9,ls),
(607,9,o),
(567,-53,o),
(494,-53,cs),
(449,-53,o),
(421,-19,o),
(424,0,c),
(359,-4,l)
);
},
{
closed = 1;
nodes = (
(579,-10,o),
(736,147,o),
(736,350,cs),
(736,553,o),
(579,710,o),
(383,710,cs),
(187,710,o),
(30,553,o),
(30,350,cs),
(30,147,o),
(187,-10,o),
(383,-10,cs)
);
},
{
closed = 1;
nodes = (
(258,92,o),
(142,190,o),
(142,350,cs),
(142,510,o),
(258,608,o),
(383,608,cs),
(508,608,o),
(624,510,o),
(624,350,cs),
(624,190,o),
(508,92,o),
(383,92,cs)
);
}
);
width = 766;
},
{
associatedMasterId = "EBE2A6F1-3CB0-4D17-AF87-54EF93F0B568";
layerId = "A142F793-7B38-4339-A0E6-447E76AA16DA";
name = "Apr 9 21, 18:39";
shapes = (
{
closed = 1;
nodes = (
(352,-82,o),
(391,-177,o),
(505,-177,cs),
(653,-177,o),
(725,-49,o),
(725,-49,c),
(647,9,ls),
(647,9,o),
(601,-86,o),
(516,-86,cs),
(464,-86,o),
(432,-46,o),
(435,-1,c),
(360,-6,l)
);
},
{
closed = 1;
nodes = (
(579,-10,o),
(736,147,o),
(736,350,cs),
(736,553,o),
(579,710,o),
(383,710,cs),
(187,710,o),
(30,553,o),
(30,350,cs),
(30,147,o),
(187,-10,o),
(383,-10,cs)
);
},
{
closed = 1;
nodes = (
(258,92,o),
(142,190,o),
(142,350,cs),
(142,510,o),
(258,608,o),
(383,608,cs),
(508,608,o),
(624,510,o),
(624,350,cs),
(624,190,o),
(508,92,o),
(383,92,cs)
);
},
{
closed = 1;
nodes = (
(539,210,o),
(477,164,o),
(388,164,cs),
(299,164,o),
(237,210,o),
(238,337,c),
(238,483,l),
(323,483,l),
(323,315,l),
(322,258,o),
(343,228,o),
(388,228,cs),
(435,228,o),
(454,258,o),
(453,315,c),
(453,483,l),
(538,483,l),
(538,337,l)
);
}
);
width = 766;
}
);
metricLeft = o;
metricRight = o;
unicode = 113;
},
{
glyphname = r;
lastChange = "2021-05-31 16:06:47 +0000";
layers = (
{
background = {
shapes = (
{
closed = 1;
nodes = (
(461,221,o),
(571,331,o),
(571,466,cs),
(571,600,o),
(461,710,o),
(326,710,cs),
(191,710,o),
(81,600,o),
(81,466,cs),
(81,331,o),
(191,221,o),
(326,221,cs)
);
}
);
};
layerId = "EBE2A6F1-3CB0-4D17-AF87-54EF93F0B568";
shapes = (
{
closed = 1;
nodes = (
(382,344,l),
(556,44,l),
(465,-9,l),
(288,303,l)
);
},
{
closed = 1;
nodes = (
(167,284,l),
(167,0,l),
(57,0,l),
(57,700,l),
(357,700,ls),
(471,700,o),
(564,608,o),
(564,493,cs),
(564,378,o),
(472,284,o),
(357,284,cs)
);
},
{
closed = 1;
nodes = (
(407,384,o),
(454,433,o),
(454,492,cs),
(454,551,o),
(408,600,o),
(349,600,cs),
(167,600,l),
(167,384,l),
(349,384,ls)
);
}
);
width = 599;
},
{
associatedMasterId = "EBE2A6F1-3CB0-4D17-AF87-54EF93F0B568";
background = {
shapes = (
{
closed = 1;
nodes = (
(414,0,l),
(547,0,l),
(338,304,l),
(215,314,l)
);
},
{
closed = 1;
nodes = (
(132,0,l),
(132,274,l),
(137,274,l),
(163,250,o),
(215,221,o),
(283,221,cs),
(418,221,o),
(528,326,o),
(528,461,cs),
(528,597,o),
(419,710,o),
(283,710,cs),
(205,710,o),
(152,667,o),
(138,645,c),
(132,645,l),
(132,700,l),
(22,700,l),
(22,0,l)
);
},
{
closed = 1;
nodes = (
(361,614,o),
(428,546,o),
(428,461,cs),
(428,378,o),
(361,310,o),
(277,310,cs),
(194,310,o),
(127,378,o),
(127,461,cs),
(127,546,o),
(194,614,o),
(277,614,cs)
);
}
);
};
layerId = "9A5C784A-7849-4C96-B344-9345C3CB8D1B";
name = "Feb 11 21, 16:08";
shapes = (
{
closed = 1;
nodes = (
(358,304,l),
(567,0,l),
(434,0,l),
(235,314,l)
);
},
{
closed = 1;
nodes = (
(199,604,o),
(136,540,o),
(136,461,cs),
(136,384,o),
(199,320,o),
(276,320,cs),
(354,320,o),
(417,384,o),
(417,461,cs),
(417,540,o),
(354,604,o),
(276,604,cs)
);
},
{
closed = 1;
nodes = (
(31,0,l),
(30,426,ls),
(30,635,o),
(175,710,o),
(282,710,cs),
(418,710,o),
(527,597,o),
(527,461,cs),
(527,326,o),
(417,222,o),
(297,222,cs),
(235,222,o),
(175,263,o),
(156,329,cs),
(146,364,l),
(143,364,l),
(141,0,l)
);
},
{
closed = 1;
nodes = (
(141,700,l),
(141,562,l),
(31,410,l),
(31,700,l)
);
}
);
width = 600;
},
{
associatedMasterId = "EBE2A6F1-3CB0-4D17-AF87-54EF93F0B568";
background = {
shapes = (
{
closed = 1;
nodes = (
(439,221,o),
(549,331,o),
(549,466,cs),
(549,600,o),
(439,710,o),
(304,710,cs),
(169,710,o),
(59,600,o),
(59,466,cs),
(59,331,o),
(169,221,o),
(304,221,cs)
);
}
);
};
layerId = "AFD4E84B-50BB-4DB1-9046-41484C058F0D";
name = "Feb 12 21, 10:24";
shapes = (
{
closed = 1;
nodes = (
(434,0,l),
(567,0,l),
(358,304,l),
(235,314,l)
);
},
{
closed = 1;
nodes = (
(152,0,l),
(152,282,l),
(157,282,l),
(183,250,o),
(235,221,o),
(303,221,cs),
(438,221,o),
(548,326,o),
(548,461,cs),
(548,597,o),
(439,710,o),
(303,710,cs),
(225,710,o),
(172,667,o),
(158,645,c),
(152,645,l),
(152,700,l),
(42,700,l),
(42,0,l)
);
},
{
closed = 1;
nodes = (
(381,614,o),
(448,546,o),
(448,461,cs),
(448,378,o),
(381,310,o),
(297,310,cs),
(214,310,o),
(147,378,o),
(147,461,cs),
(147,546,o),
(214,614,o),
(297,614,cs)
);
}
);
width = 600;
},
{
associatedMasterId = "EBE2A6F1-3CB0-4D17-AF87-54EF93F0B568";
background = {
shapes = (
{
closed = 1;
nodes = (
(452,221,o),
(562,331,o),
(562,466,cs),
(562,600,o),
(452,710,o),
(317,710,cs),
(182,710,o),
(72,600,o),
(72,466,cs),
(72,331,o),
(182,221,o),
(317,221,cs)
);
}
);
};
layerId = "1B4E5F63-9CE6-48A6-9374-967121C66D72";
name = "Apr 22 21, 12:02";
shapes = (
{
closed = 1;
nodes = (
(370,350,l),
(580,0,l),
(447,0,l),
(237,360,l)
);
},
{
closed = 1;
nodes = (
(178,284,l),
(178,0,l),
(68,0,l),
(68,700,l),
(353,700,ls),
(467,700,o),
(560,608,o),
(560,493,cs),
(560,378,o),
(468,284,o),
(353,284,cs)
);
},
{
closed = 1;
nodes = (
(403,384,o),
(450,433,o),
(450,492,cs),
(450,551,o),
(404,600,o),
(345,600,cs),
(178,600,l),
(178,384,l),
(345,384,ls)
);
}
);
width = 590;
}
);
metricLeft = i;
unicode = 114;
},
{
glyphname = s;
lastChange = "2021-05-27 14:30:12 +0000";
layers = (
{
associatedMasterId = "EBE2A6F1-3CB0-4D17-AF87-54EF93F0B568";
background = {
shapes = (
{
closed = 1;
nodes = (
(267,617,o),
(258,619,o),
(245,619,cs),
(196,619,o),
(166,571,o),
(166,537,cs),
(166,388,o),
(462,402,o),
(462,192,cs),
(462,62,o),
(362,-10,o),
(250,-10,cs),
(88,-10,o),
(30,140,o),
(30,140,c),
(118,189,l),
(127,153,o),
(171,85,o),
(252,85,cs),
(321,85,o),
(362,129,o),
(362,182,cs),
(362,333,o),
(64,322,o),
(64,522,cs),
(64,653,o),
(166,710,o),
(250,710,cs),
(263,710,o),
(286,709,o),
(286,709,c),
(279,615,l)
);
}
);
};
layerId = "1FF3434E-B6FA-4676-AD31-DF866BAB932A";
name = "Feb 12 21, 10:36";
shapes = (
{
closed = 1;
nodes = (
(267,617,o),
(258,619,o),
(245,619,cs),
(196,619,o),
(166,571,o),
(166,537,cs),
(166,398,o),
(462,412,o),
(462,192,cs),
(462,62,o),
(362,-10,o),
(250,-10,cs),
(130,-10,o),
(64,69,o),
(30,140,c),
(115,187,l),
(135,140,o),
(178,85,o),
(252,85,cs),
(321,85,o),
(362,129,o),
(362,182,cs),
(362,323,o),
(64,312,o),
(64,522,cs),
(64,653,o),
(166,710,o),
(250,710,cs),
(263,710,o),
(286,709,o),
(286,709,c),
(279,615,l)
);
}
);
width = 600;
},
{
associatedMasterId = "EBE2A6F1-3CB0-4D17-AF87-54EF93F0B568";
background = {
shapes = (
{
closed = 1;
nodes = (
(-40,462,l),
(15,557,l),
(466,298,l),
(411,203,l)
);
}
);
};
layerId = "3CC50CB4-CF83-4552-84AD-9113D09F8DDA";
name = "Apr 9 21, 18:46";
shapes = (
{
closed = 1;
nodes = (
(252,617,o),
(241,619,o),
(228,619,cs),
(176,619,o),
(136,587,o),
(136,534,cs),
(136,503,o),
(155,476,o),
(182,461,cs),
(335,373,ls),
(394,339,o),
(442,282,o),
(442,192,cs),
(442,62,o),
(342,-10,o),
(230,-10,cs),
(110,-10,o),
(44,69,o),
(10,140,c),
(95,187,l),
(115,140,o),
(158,85,o),
(235,85,cs),
(301,85,o),
(342,125,o),
(342,177,cs),
(342,222,o),
(316,258,o),
(261,289,cs),
(126,366,ls),
(76,395,o),
(34,449,o),
(34,522,cs),
(34,653,o),
(149,710,o),
(233,710,cs),
(246,710,o),
(271,709,o),
(271,709,c),
(264,615,l)
);
}
);
width = 452;
},
{
associatedMasterId = "EBE2A6F1-3CB0-4D17-AF87-54EF93F0B568";
background = {
shapes = (
{
closed = 1;
nodes = (
(14,80,o),
(117,-9,o),
(233,-9,cs),
(348,-9,o),
(451,80,o),
(451,204,c),
(422,526,l),
(422,635,o),
(332,710,o),
(233,710,cs),
(133,710,o),
(43,635,o),
(43,526,c),
(14,204,l)
);
},
{
closed = 1;
nodes = (
(344,210,l),
(344,145,o),
(299,94,o),
(233,94,cs),
(166,94,o),
(121,145,o),
(121,210,c)
);
},
{
closed = 1;
nodes = (
(146,571,o),
(186,607,o),
(233,607,cs),
(279,607,o),
(319,571,o),
(319,515,c),
(146,515,l)
);
}
);
};
layerId = "9FD51F63-C913-41D4-81C6-A755C16FCDE7";
name = "Apr 15 21, 12:27";
shapes = (
{
closed = 1;
nodes = (
(266,618,o),
(251,619,o),
(242,619,cs),
(186,619,o),
(146,582,o),
(146,534,cs),
(146,503,o),
(166,477,o),
(192,461,cs),
(335,373,ls),
(393,337,o),
(435,272,o),
(435,202,cs),
(435,66,o),
(321,-10,o),
(212,-10,cs),
(91,-10,o),
(29,69,o),
(-1,140,c),
(86,187,l),
(104,140,o),
(144,85,o),
(221,85,cs),
(287,85,o),
(333,125,o),
(333,182,cs),
(333,222,o),
(311,259,o),
(257,290,cs),
(126,366,ls),
(77,395,o),
(43,449,o),
(43,511,cs),
(43,651,o),
(169,710,o),
(253,710,cs),
(256,710,o),
(270,710,o),
(281,709,c),
(274,616,l)
);
}
);
width = 452;
},
{
associatedMasterId = "EBE2A6F1-3CB0-4D17-AF87-54EF93F0B568";
background = {
shapes = (
{
closed = 0;
nodes = (
(283,274,ls),
(315,255,o),
(336,231,o),
(336,189,cs),
(336,142,o),
(291,94,o),
(232,94,cs)
);
}
);
};
layerId = "14E0519E-35AD-4AE6-A790-6CE007F96F7C";
name = "Apr 15 21, 14:18";
shapes = (
{
closed = 1;
nodes = (
(255,605,o),
(243,607,o),
(233,607,cs),
(185,607,o),
(149,568,o),
(149,530,cs),
(149,496,o),
(166,477,o),
(192,461,cs),
(342,369,ls),
(408,328,o),
(448,272,o),
(448,202,cs),
(448,70,o),
(335,-10,o),
(235,-10,cs),
(125,-10,o),
(51,61,o),
(21,140,c),
(106,191,l),
(129,149,o),
(158,94,o),
(234,94,cs),
(297,94,o),
(336,142,o),
(336,186,cs),
(336,234,o),
(311,259,o),
(257,290,cs),
(126,366,ls),
(77,395,o),
(43,449,o),
(43,521,cs),
(43,651,o),
(147,710,o),
(233,710,cs),
(256,710,o),
(270,707,o),
(281,704,c),
(261,603,l)
);
}
);
width = 452;
},
{
background = {
shapes = (
{
closed = 1;
nodes = (
(262,605,o),
(250,607,o),
(240,607,cs),
(192,607,o),
(154,568,o),
(153,530,cs),
(153,496,o),
(170,474,o),
(196,458,cs),
(341,367,ls),
(407,326,o),
(445,272,o),
(443,202,cs),
(441,70,o),
(329,-10,o),
(223,-10,cs),
(110,-10,o),
(40,61,o),
(11,140,c),
(97,191,l),
(119,149,o),
(148,93,o),
(224,93,cs),
(286,93,o),
(330,130,o),
(331,186,cs),
(332,227,o),
(316,256,o),
(282,276,cs),
(129,367,ls),
(81,396,o),
(46,447,o),
(47,519,cs),
(49,648,o),
(157,710,o),
(242,710,cs),
(265,710,o),
(280,707,o),
(291,704,c),
(268,603,l)
);
},
{
closed = 1;
nodes = (
(274,452,o),
(308,486,o),
(308,530,cs),
(308,573,o),
(274,607,o),
(231,607,cs),
(187,607,o),
(153,573,o),
(153,530,cs),
(153,486,o),
(187,452,o),
(231,452,cs)
);
}
);
};
layerId = "EBE2A6F1-3CB0-4D17-AF87-54EF93F0B568";
shapes = (
{
closed = 1;
nodes = (
(262,605,o),
(248,607,o),
(239,607,cs),
(185,607,o),
(153,568,o),
(153,530,cs),
(153,496,o),
(170,474,o),
(196,458,cs),
(341,367,ls),
(407,326,o),
(443,276,o),
(443,202,cs),
(443,72,o),
(329,-10,o),
(224,-10,cs),
(112,-10,o),
(40,60,o),
(11,140,c),
(97,191,l),
(119,149,o),
(148,93,o),
(224,93,cs),
(286,93,o),
(331,132,o),
(331,186,cs),
(331,227,o),
(315,256,o),
(282,276,cs),
(129,367,ls),
(80,396,o),
(47,447,o),
(47,519,cs),
(47,648,o),
(161,710,o),
(242,710,cs),
(261,710,o),
(281,707,o),
(291,704,c),
(268,603,l)
);
}
);
width = 461;
}
);
unicode = 115;
},
{
glyphname = t;
lastChange = "2023-01-27 16:06:51 +0000";
layers = (
{
background = {
shapes = (
{
closed = 1;
nodes = (
(230,700,l),
(340,700,l),
(340,0,l),
(230,0,l)
);
},
{
closed = 1;
nodes = (
(565,700,l),
(565,600,l),
(5,600,l),
(5,700,l)
);
}
);
};
layerId = "EBE2A6F1-3CB0-4D17-AF87-54EF93F0B568";
shapes = (
{
closed = 1;
nodes = (
(5,600,l),
(565,600,l),
(565,700,l),
(5,700,l)
);
},
{
closed = 1;
nodes = (
(230,0,l),
(340,0,l),
(340,700,l),
(230,700,l)
);
}
);
width = 570;
},
{
associatedMasterId = "EBE2A6F1-3CB0-4D17-AF87-54EF93F0B568";
layerId = "30DFBD2A-C37B-4A47-A79D-7BC00AE00C50";
name = "Apr 13 21, 18:08";
shapes = (
{
closed = 1;
nodes = (
(230,700,l),
(365,700,l),
(365,0,l),
(230,0,l)
);
},
{
closed = 1;
nodes = (
(565,700,l),
(565,600,l),
(5,600,l),
(5,700,l)
);
}
);
width = 570;
}
);
unicode = 116;
},
{
glyphname = u;
lastChange = "2021-05-27 14:30:12 +0000";
layers = (
{
associatedMasterId = "EBE2A6F1-3CB0-4D17-AF87-54EF93F0B568";
background = {
shapes = (
{
closed = 1;
nodes = (
(19,505,l),
(19,301,ls),
(19,102,o),
(85,-10,o),
(298,-10,cs),
(480,-10,o),
(575,101,o),
(575,301,cs),
(575,651,l),
(-362,651,l),
(-361,505,l)
);
},
{
closed = 1;
nodes = (
(466,277,ls),
(466,155,o),
(429,93,o),
(299,93,cs),
(157,93,o),
(129,155,o),
(129,277,cs),
(129,505,l),
(466,505,l)
);
}
);
};
layerId = "0DEAC51C-2BF4-416F-81F8-0C28EAECB266";
name = "Feb 12 21, 11:10";
shapes = (
{
closed = 1;
nodes = (
(20,700,l),
(130,700,l),
(130,278,ls),
(130,158,o),
(172,90,o),
(298,90,cs),
(422,90,o),
(466,158,o),
(466,278,cs),
(466,700,l),
(576,700,l),
(576,299,ls),
(576,101,o),
(480,-10,o),
(298,-10,cs),
(85,-10,o),
(20,102,o),
(20,301,cs)
);
}
);
width = 600;
},
{
associatedMasterId = "EBE2A6F1-3CB0-4D17-AF87-54EF93F0B568";
background = {
shapes = (
{
closed = 1;
nodes = (
(29,505,l),
(29,301,ls),
(29,102,o),
(95,-10,o),
(308,-10,cs),
(490,-10,o),
(585,101,o),
(585,301,cs),
(585,651,l),
(-352,651,l),
(-351,505,l)
);
},
{
closed = 1;
nodes = (
(476,277,ls),
(476,155,o),
(439,93,o),
(309,93,cs),
(167,93,o),
(139,155,o),
(139,277,cs),
(139,505,l),
(476,505,l)
);
}
);
};
layerId = "BB423E57-F65A-48C5-9D02-4AE865261458";
name = "May 9 21, 11:56";
shapes = (
{
closed = 1;
nodes = (
(194,193,ls),
(194,135,o),
(243,88,o),
(302,88,cs),
(361,88,o),
(410,134,o),
(410,193,cs),
(410,700,l),
(510,700,l),
(510,195,ls),
(510,81,o),
(418,-12,o),
(303,-12,cs),
(188,-12,o),
(94,80,o),
(94,195,cs),
(94,700,l),
(194,700,l)
);
}
);
width = 616;
},
{
background = {
shapes = (
{
closed = 1;
nodes = (
(29,505,l),
(29,301,ls),
(29,102,o),
(95,-10,o),
(308,-10,cs),
(490,-10,o),
(585,101,o),
(585,301,cs),
(585,651,l),
(-352,651,l),
(-351,505,l)
);
},
{
closed = 1;
nodes = (
(476,277,ls),
(476,155,o),
(439,93,o),
(309,93,cs),
(167,93,o),
(139,155,o),
(139,277,cs),
(139,505,l),
(476,505,l)
);
}
);
};
layerId = "EBE2A6F1-3CB0-4D17-AF87-54EF93F0B568";
shapes = (
{
closed = 1;
nodes = (
(569,72,o),
(453,-10,o),
(308,-10,cs),
(163,-10,o),
(47,72,o),
(50,290,c),
(50,700,l),
(160,700,l),
(160,290,l),
(158,160,o),
(214,92,o),
(308,92,cs),
(405,92,o),
(458,160,o),
(456,290,c),
(456,700,l),
(566,700,l),
(566,290,l)
);
}
);
width = 616;
}
);
unicode = 117;
},
{
glyphname = v;
lastChange = "2021-05-31 16:14:21 +0000";
layers = (
{
associatedMasterId = "EBE2A6F1-3CB0-4D17-AF87-54EF93F0B568";
layerId = "7DBA02C2-BACC-4BCF-A775-B9CDACB0D398";
name = "Feb 18 21, 15:39";
shapes = (
{
closed = 1;
nodes = (
(460,256,o),
(573,440,o),
(525,690,c),
(640,710,l),
(682,395,o),
(550,190,o),
(362,0,c),
(328,0,o),
(275,0,o),
(275,0,c),
(32,676,l),
(154,709,l),
(355,128,l),
(330,126,l)
);
}
);
width = 674;
},
{
background = {
shapes = (
{
closed = 1;
nodes = (
(471,242,o),
(573,440,o),
(535,700,c),
(640,700,l),
(682,395,o),
(560,190,o),
(362,0,c),
(328,0,o),
(275,0,o),
(275,0,c),
(20,700,l),
(147,700,l),
(354,98,l),
(331,112,l)
);
}
);
};
layerId = "EBE2A6F1-3CB0-4D17-AF87-54EF93F0B568";
shapes = (
{
closed = 1;
nodes = (
(687,391,o),
(536,137,o),
(342,0,c),
(308,0,o),
(255,0,o),
(255,0,c),
(28,679,l),
(141,708,l),
(342,100,l),
(314,114,l),
(439,184,o),
(578,413,o),
(537,688,c),
(640,710,l)
);
}
);
width = 693;
},
{
associatedMasterId = "EBE2A6F1-3CB0-4D17-AF87-54EF93F0B568";
layerId = "C3389B07-61A2-483F-8D37-850FB937CCBB";
name = "Apr 16 21, 11:05";
shapes = (
{
closed = 1;
nodes = (
(471,242,o),
(573,440,o),
(535,700,c),
(640,700,l),
(682,395,o),
(560,190,o),
(362,0,c),
(328,0,o),
(275,0,o),
(275,0,c),
(20,700,l),
(147,700,l),
(354,98,l),
(331,112,l)
);
}
);
width = 674;
},
{
associatedMasterId = "EBE2A6F1-3CB0-4D17-AF87-54EF93F0B568";
background = {
shapes = (
{
closed = 1;
nodes = (
(471,242,o),
(573,440,o),
(535,700,c),
(640,700,l),
(682,395,o),
(560,190,o),
(362,0,c),
(328,0,o),
(275,0,o),
(275,0,c),
(20,700,l),
(147,700,l),
(354,98,l),
(331,112,l)
);
}
);
};
layerId = "0D03823D-5E6B-4AC6-A352-50CEC6E089B1";
name = "Apr 16 21, 11:49";
shapes = (
{
closed = 1;
nodes = (
(685,406,o),
(546,100,o),
(278,-10,c),
(28,679,l),
(141,708,l),
(352,100,l),
(324,114,l),
(441,184,o),
(583,413,o),
(537,688,c),
(640,710,l)
);
}
);
width = 674;
}
);
unicode = 118;
},
{
glyphname = w;
lastChange = "2021-05-27 14:30:12 +0000";
layers = (
{
background = {
shapes = (
{
closed = 0;
nodes = (
(1082,155,l),
(1096,150,l),
(910,712,l),
(797,683,l),
(1024,4,l),
(1107,4,l)
);
}
);
};
layerId = "EBE2A6F1-3CB0-4D17-AF87-54EF93F0B568";
shapes = (
{
closed = 1;
nodes = (
(779,683,l),
(820,513,o),
(776,300,o),
(676,151,c),
(688,151,l),
(531,595,l),
(418,566,l),
(419,438,o),
(361,249,o),
(293,151,c),
(307,146,l),
(141,708,l),
(28,679,l),
(235,0,l),
(318,0,l),
(380,93,o),
(486,270,o),
(502,465,c),
(452,464,l),
(617,0,l),
(700,0,l),
(824,167,o),
(945,391,o),
(883,710,c)
);
}
);
width = 925;
}
);
metricLeft = v;
metricRight = v;
unicode = 119;
},
{
glyphname = x;
lastChange = "2021-05-27 14:30:12 +0000";
layers = (
{
associatedMasterId = "EBE2A6F1-3CB0-4D17-AF87-54EF93F0B568";
background = {
shapes = (
{
closed = 1;
nodes = (
(330,103,o),
(419,9,o),
(550,-10,c),
(608,84,l),
(608,89,l),
(463,89,o),
(365,205,o),
(365,350,cs),
(365,495,o),
(463,611,o),
(608,611,c),
(608,616,l),
(550,710,l),
(419,691,o),
(330,597,o),
(306,530,c),
(302,530,l),
(278,597,o),
(189,691,o),
(58,710,c),
(0,616,l),
(0,611,l),
(145,611,o),
(243,495,o),
(243,350,cs),
(243,205,o),
(145,89,o),
(0,89,c),
(0,84,l),
(58,-10,l),
(189,9,o),
(278,103,o),
(302,170,c),
(306,170,l)
);
}
);
};
layerId = "5C25E92C-4EF5-4E72-A9D0-B5199A7E63C7";
name = "Apr 16 21, 11:12";
shapes = (
{
closed = 1;
nodes = (
(367,206,o),
(464,101,o),
(614,80,c),
(614,75,l),
(575,-10,l),
(419,9,o),
(330,103,o),
(306,180,c),
(302,180,l),
(278,103,o),
(189,9,o),
(33,-10,c),
(-6,75,l),
(-6,80,l),
(144,101,o),
(241,205,o),
(241,350,cs),
(241,494,o),
(144,599,o),
(-6,620,c),
(-6,625,l),
(33,710,l),
(189,691,o),
(278,597,o),
(302,520,c),
(306,520,l),
(330,597,o),
(419,691,o),
(575,710,c),
(614,625,l),
(614,620,l),
(464,599,o),
(367,494,o),
(367,350,cs)
);
}
);
width = 608;
},
{
associatedMasterId = "EBE2A6F1-3CB0-4D17-AF87-54EF93F0B568";
background = {
shapes = (
{
closed = 1;
nodes = (
(330,103,o),
(419,9,o),
(550,-10,c),
(608,84,l),
(608,89,l),
(463,89,o),
(365,205,o),
(365,350,cs),
(365,495,o),
(463,611,o),
(608,611,c),
(608,616,l),
(550,710,l),
(419,691,o),
(330,597,o),
(306,530,c),
(302,530,l),
(278,597,o),
(189,691,o),
(58,710,c),
(0,616,l),
(0,611,l),
(145,611,o),
(243,495,o),
(243,350,cs),
(243,205,o),
(145,89,o),
(0,89,c),
(0,84,l),
(58,-10,l),
(189,9,o),
(278,103,o),
(302,170,c),
(306,170,l)
);
}
);
};
layerId = "F509C060-36AD-4887-BF28-D62F67064173";
name = "Apr 16 21, 11:13";
shapes = (
{
closed = 1;
nodes = (
(278,103,o),
(179,-11,o),
(-16,-10,c),
(14,90,l),
(159,101,o),
(241,208,o),
(241,350,cs),
(241,494,o),
(144,599,o),
(4,620,c),
(4,625,l),
(43,710,l),
(189,691,o),
(278,597,o),
(302,520,c),
(306,520,l),
(330,597,o),
(429,711,o),
(624,710,c),
(594,610,l),
(449,599,o),
(367,492,o),
(367,350,cs),
(367,206,o),
(464,101,o),
(604,80,c),
(604,75,l),
(565,-10,l),
(419,9,o),
(330,103,o),
(306,180,c),
(302,180,l)
);
}
);
width = 608;
},
{
associatedMasterId = "EBE2A6F1-3CB0-4D17-AF87-54EF93F0B568";
background = {
shapes = (
{
closed = 1;
nodes = (
(330,103,o),
(419,9,o),
(550,-10,c),
(608,84,l),
(608,89,l),
(463,89,o),
(365,205,o),
(365,350,cs),
(365,495,o),
(463,611,o),
(608,611,c),
(608,616,l),
(550,710,l),
(419,691,o),
(330,597,o),
(306,530,c),
(302,530,l),
(278,597,o),
(189,691,o),
(58,710,c),
(0,616,l),
(0,611,l),
(145,611,o),
(243,495,o),
(243,350,cs),
(243,205,o),
(145,89,o),
(0,89,c),
(0,84,l),
(58,-10,l),
(189,9,o),
(278,103,o),
(302,170,c),
(306,170,l)
);
}
);
};
layerId = "D2E069BF-1D07-45CC-B1C1-6E8D51D51B64";
name = "Apr 16 21, 11:14";
shapes = (
{
closed = 1;
nodes = (
(367,206,o),
(464,101,o),
(614,80,c),
(614,75,l),
(575,-10,l),
(419,9,o),
(330,103,o),
(306,180,c),
(302,180,l),
(278,103,o),
(189,9,o),
(33,-10,c),
(-6,75,l),
(-6,80,l),
(144,101,o),
(241,205,o),
(241,350,cs),
(241,494,o),
(144,599,o),
(-6,620,c),
(-6,625,l),
(33,710,l),
(189,691,o),
(278,597,o),
(302,520,c),
(306,520,l),
(330,597,o),
(429,711,o),
(614,710,c),
(584,610,l),
(449,599,o),
(367,492,o),
(367,350,cs)
);
}
);
width = 608;
},
{
layerId = "EBE2A6F1-3CB0-4D17-AF87-54EF93F0B568";
shapes = (
{
closed = 1;
nodes = (
(598,700,l),
(440,706,o),
(332,597,o),
(305,523,c),
(303,523,o),
(302,523,o),
(301,523,c),
(271,600,o),
(160,706,o),
(5,700,c),
(5,601,l),
(146,601,o),
(245,492,o),
(245,348,cs),
(245,203,o),
(146,99,o),
(6,99,c),
(6,0,l),
(180,-6,o),
(274,113,o),
(299,178,c),
(300,178,o),
(301,178,o),
(303,178,c),
(326,111,o),
(427,-5,o),
(598,1,c),
(598,100,l),
(460,100,o),
(358,206,o),
(358,348,cs),
(358,489,o),
(457,601,o),
(598,601,c)
);
}
);
width = 603;
}
);
unicode = 120;
},
{
glyphname = y;
lastChange = "2021-05-27 14:30:12 +0000";
layers = (
{
background = {
shapes = (
{
closed = 1;
nodes = (
(567,635,o),
(422,710,o),
(315,710,cs),
(179,710,o),
(70,597,o),
(70,461,cs),
(70,326,o),
(181,222,o),
(312,222,cs),
(372,222,o),
(422,245,o),
(453,268,c),
(456,265,l),
(456,100,l),
(86,100,l),
(86,0,l),
(566,0,l),
(567,426,ls)
);
},
{
closed = 1;
nodes = (
(398,604,o),
(461,540,o),
(461,461,cs),
(461,384,o),
(398,320,o),
(321,320,cs),
(243,320,o),
(180,384,o),
(180,461,cs),
(180,540,o),
(243,604,o),
(321,604,cs)
);
}
);
};
layerId = "EBE2A6F1-3CB0-4D17-AF87-54EF93F0B568";
shapes = (
{
closed = 1;
nodes = (
(94,0,l),
(566,0,l),
(566,700,l),
(456,700,l),
(456,453,ls),
(456,371,o),
(388,320,o),
(321,320,cs),
(244,320,o),
(180,384,o),
(180,462,cs),
(179,700,l),
(69,700,l),
(70,462,ls),
(71,320,o),
(179,222,o),
(307,222,cs),
(372,222,o),
(422,246,o),
(450,265,c),
(456,265,l),
(456,100,l),
(94,100,l)
);
}
);
width = 623;
}
);
metricRight = i;
unicode = 121;
},
{
glyphname = ydieresis;
lastChange = "2021-05-27 14:30:12 +0000";
layers = (
{
layerId = "EBE2A6F1-3CB0-4D17-AF87-54EF93F0B568";
shapes = (
{
closed = 1;
nodes = (
(482,0,l),
(101,0,l),
(101,94,l),
(381,94,l),
(381,214,l),
(376,214,l),
(368,199,o),
(320,172,o),
(280,172,cs),
(179,172,o),
(97,254,o),
(97,356,cs),
(97,500,l),
(198,500,l),
(198,353,ls),
(198,303,o),
(237,265,o),
(288,265,cs),
(336,265,o),
(374,303,o),
(374,352,cs),
(374,500,l),
(482,500,l)
);
},
{
pos = (-19,0);
ref = dieresis;
}
);
width = 600;
},
{
associatedMasterId = "EBE2A6F1-3CB0-4D17-AF87-54EF93F0B568";
layerId = "4B95B95F-85CA-4367-99CD-C5A29910832C";
name = "Apr 16 21, 10:47";
shapes = (
{
closed = 1;
nodes = (
(94,0,l),
(566,0,l),
(566,520,l),
(456,520,l),
(456,453,ls),
(456,371,o),
(392,320,o),
(319,320,cs),
(238,320,o),
(177,384,o),
(176,462,cs),
(175,520,l),
(65,520,l),
(66,462,ls),
(68,330,o),
(178,222,o),
(307,222,cs),
(368,222,o),
(419,246,o),
(450,265,c),
(456,265,l),
(456,100,l),
(94,100,l)
);
},
{
pos = (17,0);
ref = dieresis;
}
);
width = 600;
}
);
unicode = 255;
},
{
glyphname = z;
lastChange = "2021-05-27 14:30:12 +0000";
layers = (
{
layerId = "EBE2A6F1-3CB0-4D17-AF87-54EF93F0B568";
shapes = (
{
closed = 1;
nodes = (
(35,121,l),
(35,0,l),
(570,0,l),
(570,105,l),
(200,105,l),
(164,101,l),
(175,90,l),
(162,115,l),
(164,102,l),
(570,579,l),
(570,700,l),
(35,700,l),
(35,595,l),
(415,595,l),
(441,599,l),
(430,610,l),
(443,585,l),
(441,598,l)
);
}
);
width = 600;
},
{
associatedMasterId = "EBE2A6F1-3CB0-4D17-AF87-54EF93F0B568";
layerId = "419DFC7F-C01C-484E-9CE0-FD6DA6902815";
name = "Feb 12 21, 11:36";
shapes = (
{
closed = 1;
nodes = (
(24,700,l),
(24,607,l),
(356,607,l),
(358,603,l),
(15,75,l),
(15,0,l),
(523,0,l),
(523,95,l),
(142,95,l),
(141,99,l),
(478,625,l),
(478,700,l)
);
}
);
width = 538;
},
{
associatedMasterId = "EBE2A6F1-3CB0-4D17-AF87-54EF93F0B568";
layerId = "FB44575C-E19C-4417-829E-15FF517612A5";
name = "Feb 18 21, 15:42";
shapes = (
{
closed = 1;
nodes = (
(44,700,l),
(44,600,l),
(441,600,l),
(428,603,l),
(35,75,l),
(35,0,l),
(567,0,l),
(567,100,l),
(180,100,l),
(191,99,l),
(578,625,l),
(578,700,l)
);
}
);
width = 613;
},
{
associatedMasterId = "EBE2A6F1-3CB0-4D17-AF87-54EF93F0B568";
layerId = "A49658CF-DF59-4482-8879-FD8475250EB8";
name = "Apr 16 21, 11:28";
shapes = (
{
closed = 1;
nodes = (
(573,700,l),
(46,700,l),
(46,600,l),
(379,600,l),
(-4,0,l),
(520,0,l),
(520,100,l),
(190,100,l)
);
}
);
width = 600;
}
);
unicode = 122;
},
{
glyphname = l_a.liga;
lastChange = "2024-01-16 10:51:32 +0000";
layers = (
{
layerId = "EBE2A6F1-3CB0-4D17-AF87-54EF93F0B568";
shapes = (
{
closed = 1;
nodes = (
(513,604,l),
(513,491,l),
(509,491,l),
(489,509,o),
(449,532,o),
(397,532,cs),
(294,532,o),
(210,449,o),
(210,345,cs),
(210,242,o),
(293,157,o),
(397,157,cs),
(457,157,o),
(497,190,o),
(508,207,c),
(513,207,l),
(513,165,l),
(617,165,l),
(617,700,l),
(263,700,l),
(263,604,l)
);
},
{
closed = 1;
nodes = (
(349,254,o),
(308,295,o),
(308,347,cs),
(308,399,o),
(348,440,o),
(401,440,cs),
(452,440,o),
(492,399,o),
(492,348,cs),
(492,295,o),
(452,254,o),
(401,254,cs)
);
},
{
closed = 1;
nodes = (
(170,700,l),
(170,100,l),
(565,100,l),
(565,0,l),
(60,0,l),
(60,700,l)
);
}
);
width = 677;
},
{
associatedMasterId = "EBE2A6F1-3CB0-4D17-AF87-54EF93F0B568";
layerId = "18925A30-65D4-4A52-918B-D329BC980D40";
name = "Apr 8 21, 09:46";
shapes = (
{
ref = l;
},
{
pos = (495,0);
ref = a;
}
);
width = 1116;
}
);
metricLeft = l;
metricRight = a;
},
{
glyphname = l_e.liga;
lastChange = "2024-01-16 10:51:34 +0000";
layers = (
{
associatedMasterId = "EBE2A6F1-3CB0-4D17-AF87-54EF93F0B568";
layerId = "450482EA-C2AD-481F-AF55-4CED84ABD89B";
name = "Apr 8 21, 09:45";
shapes = (
{
closed = 1;
nodes = (
(190,701,l),
(190,100,l),
(595,100,l),
(595,0,l),
(80,0,l),
(80,701,l)
);
},
{
closed = 1;
nodes = (
(275,635,o),
(420,710,o),
(527,710,cs),
(663,710,o),
(772,597,o),
(772,461,cs),
(772,326,o),
(661,222,o),
(530,222,cs),
(470,222,o),
(420,245,o),
(391,267,c),
(388,264,l),
(386,100,l),
(756,100,l),
(756,0,l),
(276,0,l),
(275,426,ls)
);
},
{
closed = 1;
nodes = (
(444,604,o),
(381,540,o),
(381,461,cs),
(381,384,o),
(444,320,o),
(521,320,cs),
(599,320,o),
(662,384,o),
(662,461,cs),
(662,540,o),
(599,604,o),
(521,604,cs)
);
}
);
width = 1227;
},
{
layerId = "EBE2A6F1-3CB0-4D17-AF87-54EF93F0B568";
shapes = (
{
closed = 1;
nodes = (
(170,701,l),
(170,100,l),
(595,100,l),
(595,0,l),
(60,0,l),
(60,701,l)
);
},
{
closed = 1;
nodes = (
(256,168,l),
(595,168,l),
(595,263,l),
(366,263,l),
(366,364,l),
(369,367,l),
(390,357,o),
(415,350,o),
(441,350,cs),
(540,350,o),
(621,427,o),
(621,526,cs),
(621,626,o),
(541,710,o),
(441,710,cs),
(362,710,o),
(255,654,o),
(255,500,cs)
);
},
{
closed = 1;
nodes = (
(483,612,o),
(521,574,o),
(521,526,cs),
(521,480,o),
(483,442,o),
(436,442,cs),
(390,442,o),
(353,480,o),
(353,526,cs),
(353,574,o),
(390,612,o),
(436,612,cs)
);
}
);
width = 651;
},
{
associatedMasterId = "EBE2A6F1-3CB0-4D17-AF87-54EF93F0B568";
layerId = "47698B30-1C5D-4185-928E-8A720588AB84";
name = "Apr 8 21, 09:57";
shapes = (
{
closed = 1;
nodes = (
(190,701,l),
(190,100,l),
(615,100,l),
(615,0,l),
(80,0,l),
(80,701,l)
);
},
{
closed = 1;
nodes = (
(276,128,l),
(386,128,l),
(386,364,l),
(389,367,l),
(410,357,o),
(435,350,o),
(461,350,cs),
(560,350,o),
(641,427,o),
(641,526,cs),
(641,626,o),
(561,710,o),
(461,710,cs),
(382,710,o),
(275,654,o),
(275,500,cs)
);
},
{
closed = 1;
nodes = (
(503,612,o),
(541,574,o),
(541,526,cs),
(541,480,o),
(503,442,o),
(456,442,cs),
(410,442,o),
(373,480,o),
(373,526,cs),
(373,574,o),
(410,612,o),
(456,612,cs)
);
}
);
width = 1227;
}
);
metricLeft = l;
metricRight = e;
},
{
glyphname = l_h.liga;
lastChange = "2024-01-16 10:51:37 +0000";
layers = (
{
associatedMasterId = "EBE2A6F1-3CB0-4D17-AF87-54EF93F0B568";
layerId = "8107E26D-D3EE-4A0A-9C74-A529661F47CE";
name = "Apr 8 21, 10:08";
shapes = (
{
closed = 1;
nodes = (
(658,302,l),
(658,0,l),
(768,0,l),
(768,700,l),
(658,700,l),
(658,402,l),
(385,402,l),
(385,302,l)
);
},
{
closed = 1;
nodes = (
(190,700,l),
(190,100,l),
(595,100,l),
(595,0,l),
(80,0,l),
(80,700,l)
);
},
{
closed = 1;
nodes = (
(452,323,o),
(452,527,o),
(362,718,c),
(260,668,l),
(340,511,o),
(340,339,o),
(265,164,c),
(357,124,l)
);
}
);
width = 1011;
},
{
associatedMasterId = "EBE2A6F1-3CB0-4D17-AF87-54EF93F0B568";
layerId = "650C82F5-E60C-4A29-9EF8-285A8FC8ADFB";
name = "Apr 8 21, 12:16";
shapes = (
{
closed = 1;
nodes = (
(285,700,l),
(395,700,l),
(395,402,l),
(658,402,l),
(658,700,l),
(768,700,l),
(768,0,l),
(658,0,l),
(658,302,l),
(395,302,l),
(395,150,l),
(285,150,l)
);
},
{
closed = 1;
nodes = (
(190,701,l),
(190,100,l),
(595,100,l),
(595,0,l),
(80,0,l),
(80,701,l)
);
}
);
width = 848;
},
{
layerId = "EBE2A6F1-3CB0-4D17-AF87-54EF93F0B568";
shapes = (
{
closed = 1;
nodes = (
(678,302,l),
(678,0,l),
(788,0,l),
(788,700,l),
(678,700,l),
(678,402,l),
(445,402,l),
(445,302,l)
);
},
{
closed = 1;
nodes = (
(170,701,l),
(170,100,l),
(575,100,l),
(575,0,l),
(60,0,l),
(60,701,l)
);
},
{
closed = 1;
nodes = (
(515,160,l),
(515,421,o),
(462,568,o),
(296,713,c),
(220,645,l),
(360,521,o),
(413,382,o),
(406,160,c)
);
}
);
width = 848;
}
);
metricLeft = l;
metricRight = h;
},
{
glyphname = l_l.liga;
lastChange = "2024-01-16 10:51:38 +0000";
layers = (
{
layerId = "EBE2A6F1-3CB0-4D17-AF87-54EF93F0B568";
shapes = (
{
closed = 1;
nodes = (
(375,701,l),
(375,280,l),
(650,280,l),
(650,180,l),
(265,180,l),
(265,701,l)
);
},
{
closed = 1;
nodes = (
(170,701,l),
(170,100,l),
(650,100,l),
(650,0,l),
(60,0,l),
(60,701,l)
);
}
);
width = 660;
},
{
associatedMasterId = "EBE2A6F1-3CB0-4D17-AF87-54EF93F0B568";
layerId = "8425F3AE-FD4B-4A68-9737-5E6414D1778E";
name = "Apr 8 21, 09:38";
shapes = (
{
closed = 1;
nodes = (
(415,701,l),
(415,320,l),
(670,320,l),
(670,220,l),
(305,220,l),
(305,701,l)
);
},
{
closed = 1;
nodes = (
(190,701,l),
(190,100,l),
(670,100,l),
(670,0,l),
(80,0,l),
(80,701,l)
);
}
);
width = 1210;
}
);
metricLeft = l;
metricRight = l;
},
{
glyphname = l_l_o.liga;
lastChange = "2024-01-16 10:51:40 +0000";
layers = (
{
layerId = "EBE2A6F1-3CB0-4D17-AF87-54EF93F0B568";
shapes = (
{
closed = 1;
nodes = (
(375,701,l),
(375,280,l),
(750,280,l),
(750,180,l),
(265,180,l),
(265,701,l)
);
},
{
closed = 1;
nodes = (
(170,701,l),
(170,100,l),
(650,100,l),
(650,0,l),
(60,0,l),
(60,701,l)
);
},
{
closed = 1;
nodes = (
(719,338,o),
(800,418,o),
(800,523,cs),
(800,629,o),
(719,710,o),
(617,710,cs),
(517,710,o),
(435,629,o),
(435,523,cs),
(435,418,o),
(517,338,o),
(617,338,cs)
);
},
{
closed = 1;
nodes = (
(572,427,o),
(529,465,o),
(529,524,cs),
(529,582,o),
(572,622,o),
(617,622,cs),
(663,622,o),
(705,582,o),
(705,524,cs),
(705,465,o),
(663,427,o),
(617,427,cs)
);
}
);
width = 830;
}
);
metricLeft = l;
metricRight = o;
},
{
glyphname = l_o.liga;
lastChange = "2024-01-16 10:51:41 +0000";
layers = (
{
associatedMasterId = "EBE2A6F1-3CB0-4D17-AF87-54EF93F0B568";
layerId = "AF60205A-416F-48E7-A9D5-31570F421E56";
name = "Feb 11 21, 15:56";
shapes = (
{
closed = 1;
nodes = (
(165,700,l),
(165,95,l),
(600,95,l),
(600,0,l),
(55,0,l),
(55,700,l)
);
},
{
closed = 1;
nodes = (
(370,700,l),
(370,285,l),
(600,285,l),
(600,190,l),
(260,190,l),
(260,700,l)
);
}
);
width = 620;
},
{
layerId = "EBE2A6F1-3CB0-4D17-AF87-54EF93F0B568";
shapes = (
{
closed = 1;
nodes = (
(658,157,o),
(779,276,o),
(779,433,cs),
(779,589,o),
(658,710,o),
(507,710,cs),
(358,710,o),
(237,589,o),
(237,433,cs),
(237,276,o),
(358,157,o),
(507,157,cs)
);
},
{
closed = 1;
nodes = (
(427,261,o),
(351,329,o),
(351,433,cs),
(351,537,o),
(427,607,o),
(507,607,cs),
(588,607,o),
(664,537,o),
(664,433,cs),
(664,329,o),
(588,261,o),
(507,261,cs)
);
},
{
closed = 1;
nodes = (
(167,701,l),
(167,100,l),
(522,100,l),
(522,0,l),
(57,0,l),
(57,701,l)
);
}
);
width = 776;
},
{
associatedMasterId = "EBE2A6F1-3CB0-4D17-AF87-54EF93F0B568";
layerId = "9E517821-7BE1-4C87-99F7-44EA7D6ECF3F";
name = "Feb 12 21, 12:02";
shapes = (
{
closed = 1;
nodes = (
(185,701,l),
(185,95,l),
(780,95,l),
(780,0,l),
(75,0,l),
(75,701,l)
);
},
{
closed = 1;
nodes = (
(660,142,o),
(784,265,o),
(784,426,cs),
(784,586,o),
(660,710,o),
(505,710,cs),
(351,710,o),
(227,586,o),
(227,426,cs),
(227,265,o),
(351,142,o),
(505,142,cs)
);
},
{
closed = 1;
nodes = (
(416,236,o),
(333,312,o),
(333,426,cs),
(333,540,o),
(416,616,o),
(505,616,cs),
(594,616,o),
(678,540,o),
(678,426,cs),
(678,312,o),
(594,236,o),
(505,236,cs)
);
}
);
width = 794;
}
);
metricLeft = i;
},
{
glyphname = n_h.liga;
lastChange = "2024-01-16 10:51:43 +0000";
layers = (
{
layerId = "EBE2A6F1-3CB0-4D17-AF87-54EF93F0B568";
shapes = (
{
closed = 1;
nodes = (
(903,302,l),
(903,0,l),
(1013,0,l),
(1013,700,l),
(903,700,l),
(903,402,l),
(630,402,l),
(630,302,l)
);
},
{
closed = 1;
nodes = (
(697,240,o),
(697,487,o),
(588,718,c),
(480,677,l),
(576,467,o),
(586,259,o),
(486,37,c),
(477,0,l),
(582,-1,l)
);
},
{
closed = 1;
nodes = (
(477,0,l),
(531,134,l),
(221,700,l),
(60,700,l),
(60,0,l),
(170,0,l),
(170,540,l),
(166,566,l),
(155,555,l),
(180,568,l),
(167,566,l)
);
}
);
width = 1073;
}
);
metricLeft = n;
metricRight = h;
},
{
glyphname = n_i_h.liga;
lastChange = "2024-01-16 10:51:50 +0000";
layers = (
{
layerId = "EBE2A6F1-3CB0-4D17-AF87-54EF93F0B568";
shapes = (
{
closed = 1;
nodes = (
(978,302,l),
(978,0,l),
(1088,0,l),
(1088,700,l),
(978,700,l),
(978,402,l),
(745,402,l),
(745,302,l)
);
},
{
closed = 1;
nodes = (
(815,160,l),
(815,421,o),
(762,568,o),
(596,713,c),
(520,645,l),
(660,521,o),
(713,382,o),
(706,160,c)
);
},
{
closed = 1;
nodes = (
(477,0,l),
(820,-1,l),
(820,100,l),
(550,100,l),
(221,700,l),
(60,700,l),
(60,0,l),
(170,0,l),
(170,540,l),
(166,566,l),
(155,555,l),
(180,568,l),
(167,566,l)
);
},
{
closed = 1;
nodes = (
(624,205,o),
(654,235,o),
(654,272,cs),
(654,310,o),
(624,340,o),
(586,340,cs),
(548,340,o),
(518,310,o),
(518,272,cs),
(518,235,o),
(548,205,o),
(586,205,cs)
);
}
);
width = 1148;
},
{
associatedMasterId = "EBE2A6F1-3CB0-4D17-AF87-54EF93F0B568";
layerId = "67198A3C-4E11-41AC-8EA7-B7CD7EB3E09F";
name = "Apr 8 21, 10:21";
shapes = (
{
closed = 1;
nodes = (
(1498,302,l),
(1498,0,l),
(1608,0,l),
(1608,700,l),
(1498,700,l),
(1498,402,l),
(1265,402,l),
(1265,302,l)
);
},
{
closed = 1;
nodes = (
(1335,160,l),
(1335,421,o),
(1282,568,o),
(1116,713,c),
(1040,645,l),
(1180,521,o),
(1233,382,o),
(1226,160,c)
);
},
{
closed = 1;
nodes = (
(497,0,l),
(740,-1,l),
(732,100,l),
(570,100,l),
(241,700,l),
(80,700,l),
(80,0,l),
(190,0,l),
(190,540,l),
(186,566,l),
(175,555,l),
(200,568,l),
(187,566,l)
);
},
{
closed = 1;
nodes = (
(831,520,l),
(941,520,l),
(941,0,l),
(831,0,l)
);
},
{
closed = 1;
nodes = (
(924,575,o),
(954,605,o),
(954,642,cs),
(954,680,o),
(924,710,o),
(886,710,cs),
(848,710,o),
(818,680,o),
(818,642,cs),
(818,605,o),
(848,575,o),
(886,575,cs)
);
}
);
width = 1688;
}
);
metricLeft = n;
metricRight = h;
},
{
glyphname = t_i_n_d_a.liga;
lastChange = "2024-01-16 10:51:58 +0000";
layers = (
{
associatedMasterId = "EBE2A6F1-3CB0-4D17-AF87-54EF93F0B568";
layerId = "84C9E0A4-95C1-46A0-BD57-401D883F265A";
name = "Apr 8 21, 12:55";
shapes = (
{
closed = 1;
nodes = (
(255,700,l),
(365,700,l),
(365,0,l),
(255,0,l)
);
},
{
closed = 1;
nodes = (
(590,700,l),
(590,600,l),
(30,600,l),
(30,700,l)
);
},
{
closed = 1;
nodes = (
(520,440,l),
(520,360,l),
(100,360,l),
(100,440,l)
);
},
{
closed = 1;
nodes = (
(520,310,l),
(520,230,l),
(100,230,l),
(100,310,l)
);
},
{
closed = 1;
nodes = (
(485,700,l),
(595,700,l),
(595,520,l),
(485,520,l)
);
},
{
closed = 1;
nodes = (
(25,700,l),
(135,700,l),
(135,520,l),
(25,520,l)
);
},
{
closed = 1;
nodes = (
(490,100,l),
(490,0,l),
(130,0,l),
(130,100,l)
);
}
);
width = 620;
},
{
associatedMasterId = "EBE2A6F1-3CB0-4D17-AF87-54EF93F0B568";
layerId = "C232A702-09C8-4F2C-AED2-932C2572B7FC";
name = "Apr 10 21, 16:30";
shapes = (
{
closed = 1;
nodes = (
(255,700,l),
(365,700,l),
(365,0,l),
(255,0,l)
);
},
{
closed = 1;
nodes = (
(590,700,l),
(590,600,l),
(30,600,l),
(30,700,l)
);
},
{
closed = 1;
nodes = (
(520,440,l),
(520,360,l),
(100,360,l),
(100,440,l)
);
},
{
closed = 1;
nodes = (
(520,310,l),
(520,230,l),
(100,230,l),
(100,310,l)
);
}
);
width = 620;
},
{
associatedMasterId = "EBE2A6F1-3CB0-4D17-AF87-54EF93F0B568";
layerId = "13410339-FBEB-48CF-98DA-BC8E6F3F1313";
name = "Apr 10 21, 16:34";
shapes = (
{
closed = 1;
nodes = (
(609,-158,o),
(582,-185,o),
(548,-185,c),
(515,-185,o),
(487,-158,o),
(487,-125,c),
(487,-91,o),
(515,-64,o),
(548,-64,c),
(582,-64,o),
(609,-91,o),
(609,-125,c)
);
},
{
closed = 1;
nodes = (
(497,0,l),
(599,0,l),
(599,515,l),
(497,515,l)
);
},
{
closed = 1;
nodes = (
(0,605,l),
(244,605,l),
(244,0,l),
(351,0,l),
(351,605,l),
(609,605,l),
(609,700,l),
(0,700,l)
);
}
);
width = 699;
},
{
layerId = "EBE2A6F1-3CB0-4D17-AF87-54EF93F0B568";
shapes = (
{
closed = 1;
nodes = (
(619,-158,o),
(592,-185,o),
(558,-185,cs),
(525,-185,o),
(497,-158,o),
(497,-125,cs),
(497,-91,o),
(525,-64,o),
(558,-64,cs),
(592,-64,o),
(619,-91,o),
(619,-125,cs)
);
},
{
closed = 1;
nodes = (
(507,0,l),
(609,0,l),
(609,380,l),
(507,380,l)
);
},
{
closed = 1;
nodes = (
(0,600,l),
(252,600,l),
(252,0,l),
(359,0,l),
(359,600,l),
(609,600,l),
(609,700,l),
(0,700,l)
);
},
{
closed = 1;
nodes = (
(0,440,l),
(609,440,l),
(609,540,l),
(0,540,l)
);
}
);
width = 699;
}
);
},
{
glyphname = zero;
lastChange = "2021-05-27 14:30:12 +0000";
layers = (
{
layerId = "EBE2A6F1-3CB0-4D17-AF87-54EF93F0B568";
shapes = (
{
closed = 1;
nodes = (
(578,596,o),
(438,710,o),
(303,710,cs),
(169,710,o),
(30,596,o),
(30,350,cs),
(30,121,o),
(153,-10,o),
(303,-10,cs),
(453,-10,o),
(578,118,o),
(578,350,cs)
);
},
{
closed = 1;
nodes = (
(464,181,o),
(396,93,o),
(302,93,cs),
(212,93,o),
(142,181,o),
(142,351,cs),
(142,547,o),
(239,607,o),
(304,607,cs),
(379,607,o),
(464,547,o),
(464,351,cs)
);
}
);
width = 608;
},
{
associatedMasterId = "EBE2A6F1-3CB0-4D17-AF87-54EF93F0B568";
background = {
shapes = (
{
closed = 1;
nodes = (
(542,621,o),
(448,715,o),
(333,715,cs),
(219,715,o),
(126,621,o),
(126,506,cs),
(126,199,l),
(126,84,o),
(219,-10,o),
(333,-10,cs),
(448,-10,o),
(542,84,o),
(542,199,cs),
(542,506,l)
);
},
{
closed = 1;
nodes = (
(433,143,o),
(389,98,o),
(333,98,cs),
(279,98,o),
(235,143,o),
(235,198,c),
(235,507,ls),
(235,562,o),
(279,607,o),
(333,607,cs),
(389,607,o),
(433,562,o),
(433,507,cs),
(433,198,l)
);
}
);
};
layerId = "6FAF5D2B-1E86-4A54-B2F5-DB57512D97F8";
name = "Apr 14 21, 16:10";
shapes = (
{
closed = 1;
nodes = (
(183,199,o),
(252,86,o),
(350,86,cs),
(454,86,o),
(513,199,o),
(513,349,cs),
(513,501,o),
(458,613,o),
(348,613,cs),
(233,613,o),
(183,501,o),
(183,349,cs)
);
},
{
closed = 1;
nodes = (
(617,148,o),
(509,-10,o),
(350,-10,cs),
(194,-10,o),
(79,148,o),
(79,349,cs),
(79,552,o),
(189,710,o),
(350,710,cs),
(503,710,o),
(617,552,o),
(617,349,cs)
);
}
);
width = 696;
}
);
metricLeft = o;
metricRight = o;
unicode = 48;
},
{
glyphname = one;
lastChange = "2021-05-27 14:30:12 +0000";
layers = (
{
layerId = "EBE2A6F1-3CB0-4D17-AF87-54EF93F0B568";
shapes = (
{
closed = 1;
nodes = (
(75,0,l),
(190,0,l),
(190,715,l),
(75,680,l)
);
}
);
width = 270;
}
);
unicode = 49;
},
{
glyphname = two;
lastChange = "2021-05-27 14:30:12 +0000";
layers = (
{
guides = (
{
angle = 55.6059;
pos = (352,245);
}
);
layerId = "EBE2A6F1-3CB0-4D17-AF87-54EF93F0B568";
shapes = (
{
closed = 1;
nodes = (
(314,608,o),
(363,560,o),
(363,496,cs),
(363,433,o),
(317,389,o),
(254,389,cs),
(189,389,o),
(139,438,o),
(139,498,cs),
(139,559,o),
(189,608,o),
(252,608,cs)
);
},
{
closed = 1;
nodes = (
(450,0,l),
(450,100,l),
(178,100,l),
(195,61,l),
(406,325,ls),
(445,373,o),
(470,434,o),
(470,500,cs),
(470,616,o),
(379,710,o),
(256,710,cs),
(125,710,o),
(30,615,o),
(30,495,cs),
(30,374,o),
(133,293,o),
(248,293,c),
(248,285,l),
(23,0,l)
);
}
);
width = 490;
},
{
associatedMasterId = "EBE2A6F1-3CB0-4D17-AF87-54EF93F0B568";
guides = (
{
angle = 55.6059;
pos = (297,245);
}
);
layerId = "7BB42926-5C5F-4533-AD27-E8C294D73A9D";
name = "Apr 15 21, 14:13";
shapes = (
{
closed = 1;
nodes = (
(399,394,ls),
(419,423,o),
(432,467,o),
(432,506,cs),
(432,621,o),
(338,715,o),
(223,715,cs),
(109,715,o),
(16,621,o),
(16,506,cs),
(16,392,o),
(114,316,o),
(227,329,c),
(227,322,l),
(11,0,l),
(425,0,l),
(425,96,l),
(195,96,l)
);
},
{
closed = 1;
nodes = (
(125,562,o),
(169,607,o),
(223,607,cs),
(279,607,o),
(323,562,o),
(323,507,cs),
(323,453,o),
(279,409,o),
(223,409,cs),
(169,409,o),
(125,453,o),
(125,507,cs)
);
}
);
width = 462;
},
{
associatedMasterId = "EBE2A6F1-3CB0-4D17-AF87-54EF93F0B568";
guides = (
{
angle = 55.6059;
pos = (352,245);
}
);
layerId = "679FA0AC-D407-4422-85D9-7A01094D5A2D";
name = "Apr 15 21, 14:48";
shapes = (
{
closed = 1;
nodes = (
(313,607,o),
(362,559,o),
(362,496,cs),
(362,434,o),
(316,390,o),
(254,390,cs),
(190,390,o),
(140,439,o),
(140,498,cs),
(140,558,o),
(190,607,o),
(252,607,cs)
);
},
{
closed = 1;
nodes = (
(460,0,l),
(460,96,l),
(230,96,l),
(406,325,ls),
(444,374,o),
(470,434,o),
(470,500,cs),
(470,616,o),
(379,710,o),
(256,710,cs),
(125,710,o),
(30,615,o),
(30,495,cs),
(30,374,o),
(133,293,o),
(251,293,c),
(251,285,l),
(33,0,l)
);
}
);
width = 490;
}
);
unicode = 50;
},
{
glyphname = three;
lastChange = "2021-05-27 14:30:12 +0000";
layers = (
{
associatedMasterId = "EBE2A6F1-3CB0-4D17-AF87-54EF93F0B568";
background = {
shapes = (
{
closed = 1;
nodes = (
(292,103,o),
(343,154,o),
(343,217,cs),
(343,280,o),
(292,331,o),
(230,331,cs),
(167,331,o),
(117,280,o),
(117,217,cs),
(117,154,o),
(167,103,o),
(230,103,cs)
);
}
);
};
layerId = "86221BA3-9775-4F97-AE7B-E5F148C3798E";
name = "Apr 15 21, 10:31";
shapes = (
{
closed = 1;
nodes = (
(334,388,l),
(379,400,o),
(445,449,o),
(445,528,cs),
(445,623,o),
(366,700,o),
(264,700,c),
(164,700,l),
(144,600,l),
(246,600,ls),
(298,600,o),
(332,565,o),
(332,523,cs),
(332,469,o),
(297,431,o),
(228,431,cs),
(192,431,l),
(172,331,l),
(220,331,ls),
(295,331,o),
(343,283,o),
(343,214,cs),
(343,155,o),
(291,103,o),
(226,103,cs),
(173,103,o),
(123,133,o),
(81,184,c),
(10,136,l),
(40,82,o),
(111,0,o),
(239,0,cs),
(357,0,o),
(457,91,o),
(457,210,cs),
(457,293,o),
(409,370,o),
(334,382,c)
);
}
);
width = 512;
},
{
associatedMasterId = "EBE2A6F1-3CB0-4D17-AF87-54EF93F0B568";
background = {
shapes = (
{
closed = 1;
nodes = (
(292,103,o),
(343,154,o),
(343,217,cs),
(343,280,o),
(292,331,o),
(230,331,cs),
(167,331,o),
(117,280,o),
(117,217,cs),
(117,154,o),
(167,103,o),
(230,103,cs)
);
}
);
};
layerId = "96314843-7F0F-43C5-8C2A-3E54030B5E92";
name = "Apr 15 21, 10:32";
shapes = (
{
closed = 1;
nodes = (
(334,388,l),
(379,400,o),
(445,449,o),
(445,528,cs),
(445,623,o),
(366,700,o),
(264,700,c),
(164,700,l),
(144,600,l),
(246,600,ls),
(298,600,o),
(332,565,o),
(332,523,cs),
(332,469,o),
(297,431,o),
(228,431,cs),
(192,431,l),
(172,331,l),
(220,331,ls),
(295,331,o),
(343,283,o),
(343,214,cs),
(343,155,o),
(291,103,o),
(226,103,cs),
(173,103,o),
(123,133,o),
(81,184,c),
(10,136,l),
(40,82,o),
(111,0,o),
(239,0,cs),
(357,0,o),
(457,91,o),
(457,210,cs),
(457,293,o),
(409,370,o),
(334,382,c)
);
}
);
width = 512;
},
{
layerId = "EBE2A6F1-3CB0-4D17-AF87-54EF93F0B568";
shapes = (
{
closed = 1;
nodes = (
(443,290,o),
(385,364,o),
(314,373,c),
(314,378,l),
(376,392,o),
(428,458,o),
(428,540,cs),
(428,645,o),
(341,710,o),
(238,710,cs),
(190,710,o),
(148,696,o),
(113,672,c),
(171,591,l),
(185,601,o),
(206,608,o),
(229,608,cs),
(280,608,o),
(315,569,o),
(315,523,cs),
(315,480,o),
(283,429,o),
(224,429,cs),
(161,429,l),
(161,319,l),
(206,319,ls),
(298,319,o),
(335,259,o),
(335,205,cs),
(335,145,o),
(288,97,o),
(226,97,cs),
(164,97,o),
(124,146,o),
(111,202,c),
(15,171,l),
(32,86,o),
(100,-10,o),
(227,-10,cs),
(352,-10,o),
(443,86,o),
(443,201,cs)
);
}
);
width = 461;
},
{
associatedMasterId = "EBE2A6F1-3CB0-4D17-AF87-54EF93F0B568";
background = {
shapes = (
{
closed = 1;
nodes = (
(52,54,o),
(141,-9,o),
(240,-9,cs),
(355,-9,o),
(458,78,o),
(458,202,cs),
(458,275,o),
(420,352,o),
(313,395,c),
(311,369,l),
(406,405,o),
(429,469,o),
(429,526,cs),
(429,635,o),
(339,710,o),
(240,710,cs),
(213,710,o),
(187,705,o),
(163,694,c),
(200,597,l),
(212,604,o),
(226,607,o),
(240,607,cs),
(286,607,o),
(326,571,o),
(326,515,cs),
(326,466,o),
(291,426,o),
(240,426,cs),
(201,426,l),
(201,326,l),
(240,326,ls),
(306,326,o),
(351,274,o),
(351,210,cs),
(351,145,o),
(306,94,o),
(240,94,cs),
(178,94,o),
(134,142,o),
(116,195,c),
(28,149,l)
);
}
);
};
layerId = "3D610802-1D55-4179-AB6E-05E152CC318C";
name = "Apr 15 21, 10:36";
shapes = (
{
closed = 1;
nodes = (
(344,389,l),
(396,421,o),
(436,474,o),
(436,540,cs),
(436,645,o),
(359,730,o),
(246,730,cs),
(200,730,o),
(160,710,o),
(160,710,c),
(192,618,l),
(192,618,o),
(214,629,o),
(246,629,cs),
(295,629,o),
(335,589,o),
(335,540,cs),
(335,476,o),
(294,431,o),
(225,431,cs),
(225,431,o),
(225,332,o),
(225,332,cs),
(293,332,o),
(354,288,o),
(354,213,cs),
(354,154,o),
(299,106,o),
(241,106,cs),
(172,106,o),
(134,134,o),
(107,190,c),
(20,146,l),
(40,82,o),
(111,0,o),
(239,0,cs),
(357,0,o),
(457,91,o),
(457,210,cs),
(457,293,o),
(409,351,o),
(344,383,c)
);
}
);
width = 512;
},
{
associatedMasterId = "EBE2A6F1-3CB0-4D17-AF87-54EF93F0B568";
background = {
shapes = (
{
closed = 1;
nodes = (
(357,-1,o),
(453,95,o),
(453,214,cs),
(453,332,o),
(357,428,o),
(239,428,cs),
(120,428,o),
(24,332,o),
(24,214,cs),
(24,95,o),
(120,-1,o),
(239,-1,cs)
);
},
{
closed = 1;
nodes = (
(378,332,o),
(463,417,o),
(463,521,cs),
(463,625,o),
(378,710,o),
(274,710,cs),
(170,710,o),
(85,625,o),
(85,521,cs),
(85,417,o),
(170,332,o),
(274,332,cs)
);
}
);
};
layerId = "FEA735D2-32CA-4F8F-93B3-95FC5B018059";
name = "Apr 15 21, 10:36";
shapes = (
{
closed = 1;
nodes = (
(344,389,l),
(396,421,o),
(436,474,o),
(436,540,cs),
(436,645,o),
(359,730,o),
(246,730,cs),
(200,730,o),
(160,710,o),
(160,710,c),
(192,618,l),
(192,618,o),
(214,629,o),
(246,629,cs),
(295,629,o),
(335,589,o),
(335,540,cs),
(335,476,o),
(294,431,o),
(225,431,cs),
(225,431,o),
(225,332,o),
(225,332,cs),
(293,332,o),
(354,288,o),
(354,213,cs),
(354,154,o),
(299,106,o),
(241,106,cs),
(172,106,o),
(134,134,o),
(107,190,c),
(20,146,l),
(40,82,o),
(111,0,o),
(239,0,cs),
(357,0,o),
(457,91,o),
(457,210,cs),
(457,293,o),
(409,351,o),
(344,383,c)
);
}
);
width = 512;
},
{
associatedMasterId = "EBE2A6F1-3CB0-4D17-AF87-54EF93F0B568";
background = {
shapes = (
{
closed = 1;
nodes = (
(357,-1,o),
(453,95,o),
(453,214,cs),
(453,332,o),
(357,428,o),
(239,428,cs),
(120,428,o),
(24,332,o),
(24,214,cs),
(24,95,o),
(120,-1,o),
(239,-1,cs)
);
},
{
closed = 1;
nodes = (
(378,332,o),
(463,417,o),
(463,521,cs),
(463,625,o),
(378,710,o),
(274,710,cs),
(170,710,o),
(85,625,o),
(85,521,cs),
(85,417,o),
(170,332,o),
(274,332,cs)
);
},
{
closed = 1;
nodes = (
(322,434,o),
(361,473,o),
(361,521,cs),
(361,569,o),
(322,608,o),
(274,608,cs),
(226,608,o),
(187,569,o),
(187,521,cs),
(187,473,o),
(226,434,o),
(274,434,cs)
);
},
{
closed = 1;
nodes = (
(299,103,o),
(349,153,o),
(349,214,cs),
(349,274,o),
(299,324,o),
(239,324,cs),
(178,324,o),
(128,274,o),
(128,214,cs),
(128,153,o),
(178,103,o),
(239,103,cs)
);
}
);
};
layerId = "945391A4-D628-49D7-82B1-92F46D1D52A7";
name = "Apr 15 21, 10:37";
shapes = (
{
closed = 1;
nodes = (
(344,389,l),
(396,421,o),
(436,474,o),
(436,540,cs),
(436,645,o),
(359,730,o),
(246,730,cs),
(200,730,o),
(160,710,o),
(160,710,c),
(192,618,l),
(192,618,o),
(214,629,o),
(246,629,cs),
(295,629,o),
(335,589,o),
(335,540,cs),
(335,476,o),
(294,431,o),
(225,431,cs),
(225,431,o),
(225,332,o),
(225,332,cs),
(293,332,o),
(354,288,o),
(354,213,cs),
(354,154,o),
(299,106,o),
(241,106,cs),
(172,106,o),
(134,134,o),
(107,190,c),
(20,146,l),
(40,82,o),
(111,0,o),
(239,0,cs),
(357,0,o),
(457,91,o),
(457,210,cs),
(457,293,o),
(409,351,o),
(344,383,c)
);
}
);
width = 512;
},
{
associatedMasterId = "EBE2A6F1-3CB0-4D17-AF87-54EF93F0B568";
background = {
shapes = (
{
closed = 1;
nodes = (
(69,64,o),
(151,-1,o),
(249,-1,cs),
(367,-1,o),
(463,95,o),
(463,214,cs),
(463,274,o),
(418,361,o),
(355,377,c),
(355,382,l),
(417,394,o),
(463,471,o),
(463,531,cs),
(463,635,o),
(386,710,o),
(282,710,cs),
(239,710,o),
(192,696,o),
(160,672,c),
(218,591,l),
(233,601,o),
(254,608,o),
(274,608,cs),
(322,608,o),
(361,569,o),
(361,521,cs),
(361,480,o),
(330,431,o),
(259,431,cs),
(227,431,l),
(227,328,l),
(239,328,ls),
(299,328,o),
(359,274,o),
(359,214,cs),
(359,153,o),
(309,103,o),
(249,103,cs),
(192,103,o),
(145,147,o),
(127,196,c),
(31,147,l)
);
}
);
};
layerId = "4E8E7068-3399-404F-88AF-AE568ABF01DB";
name = "Apr 15 21, 10:43";
width = 512;
},
{
associatedMasterId = "EBE2A6F1-3CB0-4D17-AF87-54EF93F0B568";
background = {
shapes = (
{
closed = 1;
nodes = (
(275,432,o),
(315,472,o),
(315,521,cs),
(315,569,o),
(275,609,o),
(227,609,cs),
(178,609,o),
(138,569,o),
(138,521,cs),
(138,472,o),
(178,432,o),
(227,432,cs)
);
}
);
};
layerId = "C833A6A0-F997-4BBE-977D-B32E7BC2C4BD";
name = "Apr 22 21, 12:03";
shapes = (
{
closed = 1;
nodes = (
(43,64,o),
(126,-1,o),
(228,-1,cs),
(349,-1,o),
(446,96,o),
(446,206,cs),
(446,295,o),
(384,358,o),
(324,377,c),
(324,382,l),
(376,406,o),
(428,458,o),
(428,540,cs),
(428,645,o),
(341,710,o),
(238,710,cs),
(190,710,o),
(148,696,o),
(113,672,c),
(171,589,l),
(185,601,o),
(206,609,o),
(229,609,cs),
(280,609,o),
(315,569,o),
(315,523,cs),
(315,480,o),
(283,432,o),
(224,432,cs),
(161,432,l),
(161,323,l),
(206,323,ls),
(295,323,o),
(333,265,o),
(333,210,cs),
(333,152,o),
(291,103,o),
(229,103,cs),
(169,103,o),
(119,147,o),
(101,196,c),
(5,147,l)
);
}
);
width = 461;
}
);
unicode = 51;
},
{
glyphname = four;
lastChange = "2021-05-27 14:30:12 +0000";
layers = (
{
layerId = "EBE2A6F1-3CB0-4D17-AF87-54EF93F0B568";
shapes = (
{
closed = 1;
nodes = (
(468,223,l),
(468,700,l),
(358,700,l),
(0,123,l),
(358,123,l),
(358,0,l),
(468,0,l),
(468,123,l),
(561,123,l),
(561,223,l)
);
},
{
closed = 1;
nodes = (
(393,586,l),
(358,594,l),
(358,223,l),
(127,223,l),
(155,186,l)
);
}
);
width = 581;
},
{
associatedMasterId = "EBE2A6F1-3CB0-4D17-AF87-54EF93F0B568";
layerId = "CE35AC6C-C4EB-40F2-838D-0C75EFDBC625";
name = "Apr 7 21, 13:36";
shapes = (
{
closed = 1;
nodes = (
(452.452,252.584,l),
(452.452,699.953,l),
(345.938,699.953,l),
(345.938,699.668,l),
(285.481,557.176,o),
(139.86,350.234,o),
(-0.067,243.916,c),
(-0.067,161.02,l),
(345.731,160.807,l),
(345.671,0,l),
(452.452,0,l),
(452.452,160.746,l),
(648.495,160.625,l),
(648.495,252.584,l)
);
},
{
closed = 1;
nodes = (
(139.624,257.48,l),
(210.966,325.439,o),
(281.884,414.629,o),
(340.849,510.56,c),
(345.866,510.586,l),
(345.769,252.584,l),
(139.581,252.584,l)
);
}
);
width = 600;
},
{
associatedMasterId = "EBE2A6F1-3CB0-4D17-AF87-54EF93F0B568";
layerId = "F31AA8CE-B734-48AD-82E8-7CE6359BB369";
name = "Apr 15 21, 10:24";
shapes = (
{
closed = 1;
nodes = (
(466,243,l),
(466,700,l),
(356,700,l),
(-1,190,l),
(-1,143,l),
(356,143,l),
(356,0,l),
(466,0,l),
(466,143,l),
(559,143,l),
(559,243,l)
);
},
{
closed = 1;
nodes = (
(381,586,l),
(356,594,l),
(356,243,l),
(95,243,l),
(113,206,l)
);
}
);
width = 579;
},
{
associatedMasterId = "EBE2A6F1-3CB0-4D17-AF87-54EF93F0B568";
layerId = "51DC7626-8968-4D24-9D2E-53494F2B7F7D";
name = "Apr 15 21, 12:13";
shapes = (
{
closed = 1;
nodes = (
(468,273,l),
(468,710,l),
(-10,173,l),
(358,173,l),
(358,0,l),
(468,0,l),
(468,173,l),
(561,173,l),
(561,273,l)
);
},
{
closed = 1;
nodes = (
(419,506,l),
(358,514,l),
(358,273,l),
(117,273,l),
(171,236,l)
);
}
);
width = 581;
},
{
associatedMasterId = "EBE2A6F1-3CB0-4D17-AF87-54EF93F0B568";
layerId = "4D69E623-FB8B-4BA8-973A-9B0AC4E5B420";
name = "Apr 15 21, 14:16";
shapes = (
{
closed = 1;
nodes = (
(483,233,l),
(483,710,l),
(5,133,l),
(373,133,l),
(373,0,l),
(483,0,l),
(483,133,l),
(576,133,l),
(576,233,l)
);
},
{
closed = 1;
nodes = (
(434,506,l),
(373,514,l),
(373,233,l),
(132,233,l),
(186,196,l)
);
}
);
width = 581;
}
);
unicode = 52;
},
{
glyphname = five;
lastChange = "2021-05-27 14:30:12 +0000";
layers = (
{
background = {
shapes = (
{
closed = 1;
nodes = (
(190,90,o),
(145,135,o),
(145,194,cs),
(145,252,o),
(187,294,o),
(244,294,cs),
(303,294,o),
(349,248,o),
(349,192,cs),
(349,136,o),
(303,90,o),
(246,90,cs)
);
}
);
};
layerId = "EBE2A6F1-3CB0-4D17-AF87-54EF93F0B568";
shapes = (
{
closed = 1;
nodes = (
(121,700,l),
(452,700,l),
(452,600,l),
(223,600,l),
(203,384,l),
(207,382,l),
(219,388,o),
(246,395,o),
(275,395,cs),
(372,395,o),
(464,320,o),
(464,198,cs),
(464,75,o),
(365,-10,o),
(247,-10,cs),
(116,-10,o),
(53,86,o),
(36,171,c),
(131,194,l),
(150,138,o),
(186,90,o),
(247,90,cs),
(309,90,o),
(349,139,o),
(349,191,cs),
(349,246,o),
(306,294,o),
(245,294,cs),
(212,294,o),
(188,280,o),
(175,268,c),
(86,268,l)
);
}
);
width = 507;
},
{
associatedMasterId = "EBE2A6F1-3CB0-4D17-AF87-54EF93F0B568";
layerId = "EED90989-7465-49FD-BBF8-224407EF5CAB";
name = "Apr 14 21, 16:06";
shapes = (
{
closed = 1;
nodes = (
(612,715,l),
(332,715,l),
(147,326,l),
(147,326,o),
(268,301,o),
(268,187,cs),
(268,148,o),
(239,100,o),
(183,100,cs),
(111,100,o),
(86,181,o),
(86,181,c),
(0,138,l),
(0,138,o),
(42,0,o),
(178,0,cs),
(280,0,o),
(368,72,o),
(368,195,cs),
(368,287,o),
(320,328,o),
(275,367,c),
(397,621,l),
(612,621,l)
);
}
);
width = 612;
}
);
unicode = 53;
},
{
glyphname = six;
lastChange = "2021-05-27 14:30:12 +0000";
layers = (
{
associatedMasterId = "EBE2A6F1-3CB0-4D17-AF87-54EF93F0B568";
layerId = "EDEDEA3C-9445-4744-AC6B-7EC1E5F6DF45";
name = "Apr 14 21, 16:01";
shapes = (
{
closed = 1;
nodes = (
(265,730,o),
(20,610,o),
(20,311,c),
(20,151,o),
(138,0,o),
(280,0,c),
(379,0,o),
(468,78,o),
(468,188,c),
(468,292,o),
(384,377,o),
(279,377,c),
(191,377,o),
(138,306,o),
(126,257,c),
(125,257,o),
(124,257,o),
(122,257,c),
(120,271,o),
(117,298,o),
(117,313,c),
(117,477,o),
(236,634,o),
(486,634,c),
(551,634,o),
(591,621,o),
(619,609,c),
(619,633,o),
(619,711,o),
(619,711,c),
(619,711,o),
(556,730,o),
(476,730,c)
);
},
{
closed = 1;
nodes = (
(328,277,o),
(368,237,o),
(368,188,cs),
(368,140,o),
(328,100,o),
(279,100,cs),
(231,100,o),
(191,140,o),
(191,188,cs),
(191,237,o),
(231,277,o),
(279,277,cs)
);
}
);
width = 620;
},
{
associatedMasterId = "EBE2A6F1-3CB0-4D17-AF87-54EF93F0B568";
layerId = "D1B33AC9-490E-4F41-AB40-653B3B82BFA8";
name = "Apr 15 21, 09:35";
shapes = (
{
closed = 1;
nodes = (
(205,715,o),
(25,527,o),
(25,283,cs),
(25,123,o),
(129,0,o),
(264,0,cs),
(398,0,o),
(497,93,o),
(497,213,cs),
(497,327,o),
(414,408,o),
(308,408,cs),
(220,408,o),
(144,350,o),
(121,274,c),
(116,274,l),
(116,467,o),
(252,624,o),
(507,612,c),
(489,710,l)
);
},
{
closed = 1;
nodes = (
(339,311,o),
(386,262,o),
(386,204,cs),
(386,146,o),
(339,99,o),
(281,99,cs),
(222,99,o),
(175,146,o),
(175,204,cs),
(175,262,o),
(222,311,o),
(281,311,cs)
);
}
);
width = 620;
},
{
associatedMasterId = "EBE2A6F1-3CB0-4D17-AF87-54EF93F0B568";
layerId = "AE323118-E006-430D-B036-FF73886F2CC6";
name = "Apr 15 21, 09:36";
shapes = (
{
closed = 1;
nodes = (
(205,725,o),
(15,527,o),
(15,293,cs),
(15,123,o),
(129,0,o),
(274,0,cs),
(398,0,o),
(497,93,o),
(497,213,cs),
(497,327,o),
(414,408,o),
(308,408,cs),
(220,408,o),
(139,350,o),
(126,274,c),
(121,274,l),
(113,472,o),
(282,634,o),
(507,612,c),
(479,711,l)
);
},
{
closed = 1;
nodes = (
(336,319,o),
(384,268,o),
(384,209,cs),
(384,150,o),
(336,102,o),
(277,102,cs),
(217,102,o),
(169,150,o),
(169,209,cs),
(169,268,o),
(217,319,o),
(277,319,cs)
);
}
);
width = 512;
},
{
associatedMasterId = "EBE2A6F1-3CB0-4D17-AF87-54EF93F0B568";
background = {
shapes = (
{
closed = 0;
nodes = (
(509,618,l),
(279,629,o),
(119,462,o),
(119,267,cs)
);
}
);
};
layerId = "27A0E1E3-A399-4F45-9FE1-EE3720BDDE86";
name = "Apr 15 21, 09:39";
shapes = (
{
closed = 1;
nodes = (
(205,721,o),
(15,527,o),
(15,283,cs),
(15,123,o),
(129,0,o),
(274,0,cs),
(398,0,o),
(497,93,o),
(497,213,cs),
(497,327,o),
(414,408,o),
(308,408,cs),
(220,408,o),
(139,350,o),
(127,234,c),
(122,234,l),
(106,487,o),
(284,623,o),
(509,618,c),
(479,711,l)
);
},
{
closed = 1;
nodes = (
(336,319,o),
(384,268,o),
(384,209,cs),
(384,150,o),
(336,102,o),
(277,102,cs),
(217,102,o),
(169,150,o),
(169,209,cs),
(169,268,o),
(217,319,o),
(277,319,cs)
);
}
);
width = 512;
},
{
associatedMasterId = "EBE2A6F1-3CB0-4D17-AF87-54EF93F0B568";
background = {
shapes = (
{
closed = 0;
nodes = (
(509,618,l),
(279,629,o),
(119,462,o),
(119,267,cs)
);
}
);
};
layerId = "01C38D8A-ABAE-4E29-9946-03F3DB736004";
name = "Apr 15 21, 09:40";
shapes = (
{
closed = 1;
nodes = (
(195,734,o),
(15,527,o),
(15,283,cs),
(15,123,o),
(129,0,o),
(274,0,cs),
(398,0,o),
(497,93,o),
(497,213,cs),
(497,327,o),
(414,408,o),
(308,408,cs),
(220,408,o),
(139,350,o),
(127,234,c),
(122,234,l),
(120,244,o),
(118,260,o),
(118,273,cs),
(122,501,o),
(296,623,o),
(509,618,c),
(519,711,l)
);
},
{
closed = 1;
nodes = (
(334,313,o),
(381,263,o),
(381,206,cs),
(381,149,o),
(334,102,o),
(277,102,cs),
(219,102,o),
(172,149,o),
(172,206,cs),
(172,263,o),
(219,313,o),
(277,313,cs)
);
}
);
width = 512;
},
{
associatedMasterId = "EBE2A6F1-3CB0-4D17-AF87-54EF93F0B568";
background = {
shapes = (
{
closed = 0;
nodes = (
(509,618,l),
(279,629,o),
(119,462,o),
(119,267,cs)
);
}
);
};
layerId = "4FE40264-DA9C-4068-AD2B-27A22B80295D";
name = "Apr 15 21, 09:51";
shapes = (
{
closed = 1;
nodes = (
(205,721,o),
(15,527,o),
(15,283,cs),
(15,123,o),
(129,0,o),
(274,0,cs),
(398,0,o),
(497,93,o),
(497,213,cs),
(497,327,o),
(414,408,o),
(308,408,cs),
(220,408,o),
(139,350,o),
(127,234,c),
(122,234,l),
(120,244,o),
(118,260,o),
(118,273,cs),
(122,501,o),
(296,619,o),
(509,613,c),
(479,711,l)
);
},
{
closed = 1;
nodes = (
(334,313,o),
(381,263,o),
(381,206,cs),
(381,149,o),
(334,102,o),
(277,102,cs),
(219,102,o),
(172,149,o),
(172,206,cs),
(172,263,o),
(219,313,o),
(277,313,cs)
);
}
);
width = 512;
},
{
associatedMasterId = "EBE2A6F1-3CB0-4D17-AF87-54EF93F0B568";
background = {
shapes = (
{
closed = 1;
nodes = (
(394,0,o),
(485,92,o),
(485,205,cs),
(485,317,o),
(394,408,o),
(282,408,cs),
(169,408,o),
(77,317,o),
(77,205,cs),
(77,92,o),
(169,0,o),
(282,0,cs)
);
}
);
};
layerId = "A9E19AFB-BF57-4E9D-A321-A1D6D1EC2A32";
name = "Apr 15 21, 09:51";
shapes = (
{
closed = 1;
nodes = (
(205,721,o),
(15,527,o),
(15,283,cs),
(15,123,o),
(129,0,o),
(274,0,cs),
(398,0,o),
(497,93,o),
(497,213,cs),
(497,327,o),
(414,408,o),
(308,408,cs),
(220,408,o),
(139,350,o),
(127,234,c),
(122,234,l),
(120,244,o),
(118,260,o),
(118,273,cs),
(122,501,o),
(296,619,o),
(509,613,c),
(479,711,l)
);
},
{
closed = 1;
nodes = (
(334,313,o),
(381,263,o),
(381,206,cs),
(381,149,o),
(334,102,o),
(277,102,cs),
(219,102,o),
(172,149,o),
(172,206,cs),
(172,263,o),
(219,313,o),
(277,313,cs)
);
}
);
width = 512;
},
{
associatedMasterId = "EBE2A6F1-3CB0-4D17-AF87-54EF93F0B568";
background = {
shapes = (
{
closed = 1;
nodes = (
(200,721,o),
(10,527,o),
(10,298,cs),
(10,123,o),
(112,0,o),
(257,0,cs),
(381,0,o),
(474,93,o),
(474,213,cs),
(474,327,o),
(374,408,o),
(268,408,cs),
(210,408,o),
(161,383,o),
(120,341,c),
(115,343,l),
(146,523,o),
(305,623,o),
(499,613,c),
(469,711,l)
);
},
{
closed = 1;
nodes = (
(186,93,o),
(135,144,o),
(135,206,cs),
(135,269,o),
(186,320,o),
(249,320,cs),
(311,320,o),
(362,269,o),
(362,206,cs),
(362,144,o),
(311,93,o),
(249,93,cs)
);
}
);
};
layerId = "97804933-9297-4EE6-BD6A-3FC0850BA9E4";
name = "Apr 15 21, 11:13";
shapes = (
{
closed = 1;
nodes = (
(210,721,o),
(10,525,o),
(10,291,cs),
(10,121,o),
(112,0,o),
(257,0,cs),
(381,0,o),
(474,95,o),
(474,211,cs),
(474,329,o),
(374,408,o),
(271,408,cs),
(218,408,o),
(170,388,o),
(137,359,c),
(132,362,l),
(166,527,o),
(315,619,o),
(510,609,c),
(479,711,l)
);
},
{
closed = 1;
nodes = (
(182,93,o),
(130,143,o),
(130,209,cs),
(130,274,o),
(179,320,o),
(244,320,cs),
(311,320,o),
(362,269,o),
(362,207,cs),
(362,144,o),
(310,93,o),
(246,93,cs)
);
}
);
width = 526;
},
{
associatedMasterId = "EBE2A6F1-3CB0-4D17-AF87-54EF93F0B568";
background = {
shapes = (
{
closed = 1;
nodes = (
(200,721,o),
(10,527,o),
(10,298,cs),
(10,123,o),
(112,0,o),
(257,0,cs),
(381,0,o),
(474,93,o),
(474,213,cs),
(474,327,o),
(374,408,o),
(268,408,cs),
(210,408,o),
(161,383,o),
(120,341,c),
(115,343,l),
(146,523,o),
(305,623,o),
(499,613,c),
(469,711,l)
);
},
{
closed = 1;
nodes = (
(186,93,o),
(135,144,o),
(135,206,cs),
(135,269,o),
(186,320,o),
(249,320,cs),
(311,320,o),
(362,269,o),
(362,206,cs),
(362,144,o),
(311,93,o),
(249,93,cs)
);
}
);
};
layerId = "1857742E-E454-4149-B28B-A44079FD3269";
name = "Apr 15 21, 11:21";
shapes = (
{
closed = 1;
nodes = (
(226,720,o),
(27,535,o),
(27,287,cs),
(27,116,o),
(127,-10,o),
(273,-10,cs),
(399,-10,o),
(494,85,o),
(494,205,cs),
(494,326,o),
(391,411,o),
(278,411,cs),
(229,411,o),
(186,397,o),
(144,360,c),
(139,363,l),
(172,532,o),
(331,618,o),
(496,608,c),
(485,710,l)
);
},
{
closed = 1;
nodes = (
(205,93,o),
(136,139,o),
(136,244,c),
(153,271,o),
(201,317,o),
(265,317,cs),
(331,317,o),
(382,266,o),
(382,205,cs),
(382,143,o),
(330,93,o),
(267,93,cs)
);
}
);
width = 496;
},
{
associatedMasterId = "EBE2A6F1-3CB0-4D17-AF87-54EF93F0B568";
background = {
shapes = (
{
closed = 1;
nodes = (
(200,721,o),
(10,527,o),
(10,298,cs),
(10,123,o),
(112,0,o),
(257,0,cs),
(381,0,o),
(474,93,o),
(474,213,cs),
(474,327,o),
(374,408,o),
(268,408,cs),
(210,408,o),
(161,383,o),
(120,341,c),
(115,343,l),
(146,523,o),
(305,623,o),
(499,613,c),
(469,711,l)
);
},
{
closed = 1;
nodes = (
(186,93,o),
(135,144,o),
(135,206,cs),
(135,269,o),
(186,320,o),
(249,320,cs),
(311,320,o),
(362,269,o),
(362,206,cs),
(362,144,o),
(311,93,o),
(249,93,cs)
);
}
);
};
layerId = "BF732A5C-8C54-4BBF-BC5C-9EB796528482";
name = "Apr 15 21, 12:03";
shapes = (
{
closed = 1;
nodes = (
(226,720,o),
(27,535,o),
(27,275,cs),
(27,111,o),
(123,-10,o),
(263,-10,cs),
(384,-10,o),
(475,81,o),
(475,196,cs),
(475,312,o),
(376,390,o),
(268,390,cs),
(221,390,o),
(182,375,o),
(139,345,c),
(134,348,l),
(172,532,o),
(331,618,o),
(496,608,c),
(485,710,l)
);
},
{
closed = 1;
nodes = (
(199,93,o),
(152,138,o),
(152,198,cs),
(152,257,o),
(196,299,o),
(255,299,cs),
(316,299,o),
(363,252,o),
(363,196,cs),
(363,139,o),
(315,93,o),
(257,93,cs)
);
}
);
width = 496;
},
{
background = {
shapes = (
{
closed = 1;
nodes = (
(20,84,o),
(110,-10,o),
(230,-10,cs),
(359,-10,o),
(452,85,o),
(452,205,cs),
(452,326,o),
(351,407,o),
(245,407,c),
(245,415,l),
(404,649,l),
(305,710,l),
(83,375,ls),
(50,324,o),
(20,266,o),
(20,200,cs)
);
},
{
closed = 1;
nodes = (
(174,93,o),
(126,141,o),
(126,204,cs),
(126,266,o),
(171,310,o),
(232,310,cs),
(295,310,o),
(344,261,o),
(344,202,cs),
(344,142,o),
(295,93,o),
(234,93,cs)
);
}
);
};
layerId = "EBE2A6F1-3CB0-4D17-AF87-54EF93F0B568";
shapes = (
{
closed = 1;
nodes = (
(30,84,o),
(120,-10,o),
(240,-10,cs),
(369,-10,o),
(462,85,o),
(462,205,cs),
(462,326,o),
(361,407,o),
(245,407,c),
(245,415,l),
(404,649,l),
(315,710,l),
(93,375,ls),
(60,324,o),
(30,266,o),
(30,200,cs)
);
},
{
closed = 1;
nodes = (
(184,93,o),
(136,141,o),
(136,204,cs),
(136,266,o),
(181,310,o),
(242,310,cs),
(305,310,o),
(354,261,o),
(354,202,cs),
(354,142,o),
(305,93,o),
(244,93,cs)
);
}
);
width = 492;
},
{
associatedMasterId = "EBE2A6F1-3CB0-4D17-AF87-54EF93F0B568";
background = {
shapes = (
{
closed = 1;
nodes = (
(200,721,o),
(10,527,o),
(10,298,cs),
(10,123,o),
(112,0,o),
(257,0,cs),
(381,0,o),
(474,93,o),
(474,213,cs),
(474,327,o),
(374,408,o),
(268,408,cs),
(210,408,o),
(161,383,o),
(120,341,c),
(115,343,l),
(146,523,o),
(305,623,o),
(499,613,c),
(469,711,l)
);
},
{
closed = 1;
nodes = (
(186,93,o),
(135,144,o),
(135,206,cs),
(135,269,o),
(186,320,o),
(249,320,cs),
(311,320,o),
(362,269,o),
(362,206,cs),
(362,144,o),
(311,93,o),
(249,93,cs)
);
}
);
};
layerId = "8C058F62-5853-4B3A-BF49-53D622A5E101";
name = "Apr 15 21, 14:44";
shapes = (
{
closed = 1;
nodes = (
(226,720,o),
(27,535,o),
(27,287,cs),
(27,116,o),
(127,-10,o),
(273,-10,cs),
(399,-10,o),
(494,85,o),
(494,205,cs),
(494,326,o),
(391,407,o),
(278,407,cs),
(229,407,o),
(189,392,o),
(144,360,c),
(139,363,l),
(172,532,o),
(331,618,o),
(496,608,c),
(485,710,l)
);
},
{
closed = 1;
nodes = (
(204,93,o),
(153,142,o),
(153,207,cs),
(153,271,o),
(201,317,o),
(265,317,cs),
(331,317,o),
(382,266,o),
(382,205,cs),
(382,143,o),
(330,93,o),
(267,93,cs)
);
}
);
width = 496;
}
);
unicode = 54;
},
{
glyphname = seven;
lastChange = "2021-05-27 14:30:12 +0000";
layers = (
{
associatedMasterId = "EBE2A6F1-3CB0-4D17-AF87-54EF93F0B568";
background = {
shapes = (
{
closed = 0;
nodes = (
(239,608,l),
(159,608,o),
(96,627,o),
(96,627,c),
(96,627,o),
(96,705,o),
(96,729,c),
(124,717,o),
(164,704,o),
(229,704,c)
);
}
);
};
layerId = "F479FFB1-683A-4DA8-AB6C-EF669AC7B999";
name = "Apr 7 21, 13:39";
shapes = (
{
closed = 1;
nodes = (
(207,647,o),
(111,684,o),
(83,694,c),
(83,593,l),
(179,566,o),
(278,573,o),
(389,585,c),
(100,0,l),
(213,0,l),
(545,697,l)
);
}
);
width = 600;
},
{
background = {
shapes = (
{
closed = 0;
nodes = (
(385,415,l),
(554,658,l),
(451,718,l),
(283,469,ls)
);
}
);
};
guides = (
{
angle = 55.6059;
pos = (263,245);
}
);
layerId = "EBE2A6F1-3CB0-4D17-AF87-54EF93F0B568";
shapes = (
{
closed = 1;
nodes = (
(96,700,l),
(96,600,l),
(367,600,l),
(30,36,l),
(127,-15,l),
(557,700,l)
);
}
);
width = 492;
},
{
associatedMasterId = "EBE2A6F1-3CB0-4D17-AF87-54EF93F0B568";
layerId = "5B46D69F-F829-48A3-92FD-CC0300719491";
name = "Apr 7 21, 13:50";
shapes = (
{
closed = 1;
nodes = (
(311,680,o),
(156,680,o),
(51,700,c),
(21,589,l),
(108,581,o),
(204,592,o),
(321,634,c),
(20,0,l),
(133,0,l),
(456,710,l)
);
}
);
width = 476;
},
{
associatedMasterId = "EBE2A6F1-3CB0-4D17-AF87-54EF93F0B568";
layerId = "6D648B57-E9A5-461A-B51F-2D5028E5A135";
name = "Apr 15 21, 09:43";
shapes = (
{
closed = 1;
nodes = (
(20,700,l),
(20,589,l),
(297,589,l),
(18,0,l),
(132,0,l),
(465,700,l)
);
}
);
width = 456;
},
{
associatedMasterId = "EBE2A6F1-3CB0-4D17-AF87-54EF93F0B568";
layerId = "1F0DF24C-F213-4647-B34D-CBA842F7EC43";
name = "Apr 15 21, 11:03";
shapes = (
{
closed = 1;
nodes = (
(60,700,l),
(40,600,l),
(367,600,l),
(28,22,l),
(125,-15,l),
(535,700,l)
);
}
);
width = 456;
},
{
associatedMasterId = "EBE2A6F1-3CB0-4D17-AF87-54EF93F0B568";
background = {
shapes = (
{
closed = 0;
nodes = (
(349,415,l),
(518,658,l),
(415,718,l),
(247,469,ls)
);
}
);
};
guides = (
{
angle = 55.6059;
pos = (227,245);
}
);
layerId = "D54F2F40-228D-4209-B7FC-B404B28BC973";
name = "Apr 15 21, 12:08";
shapes = (
{
closed = 1;
nodes = (
(20,700,l),
(20,600,l),
(333,600,l),
(-46,36,l),
(51,-15,l),
(541,700,l)
);
}
);
width = 456;
}
);
unicode = 55;
},
{
glyphname = eight;
lastChange = "2021-05-27 14:30:12 +0000";
layers = (
{
background = {
shapes = (
{
closed = 1;
nodes = (
(472,616,o),
(382,710,o),
(262,710,cs),
(133,710,o),
(40,615,o),
(40,495,cs),
(40,374,o),
(141,293,o),
(257,293,c),
(257,285,l),
(98,51,l),
(187,-10,l),
(409,325,ls),
(442,376,o),
(472,434,o),
(472,500,cs)
);
},
{
closed = 1;
nodes = (
(318,607,o),
(366,559,o),
(366,496,cs),
(366,434,o),
(321,390,o),
(260,390,cs),
(197,390,o),
(148,439,o),
(148,498,cs),
(148,558,o),
(197,607,o),
(258,607,cs)
);
}
);
};
layerId = "EBE2A6F1-3CB0-4D17-AF87-54EF93F0B568";
shapes = (
{
closed = 1;
nodes = (
(47,74,o),
(148,-9,o),
(264,-9,cs),
(379,-9,o),
(480,74,o),
(480,198,cs),
(480,276,o),
(438,361,o),
(303,395,c),
(305,349,l),
(433,375,o),
(464,459,o),
(464,523,cs),
(464,636,o),
(369,710,o),
(264,710,cs),
(158,710,o),
(63,636,o),
(63,523,cs),
(63,458,o),
(94,375,o),
(222,349,c),
(224,395,l),
(87,361,o),
(47,275,o),
(47,198,cs)
);
},
{
closed = 1;
nodes = (
(156,264,o),
(200,316,o),
(264,316,cs),
(327,316,o),
(371,264,o),
(371,202,cs),
(371,140,o),
(327,93,o),
(264,93,cs),
(200,93,o),
(156,140,o),
(156,202,cs)
);
},
{
closed = 1;
nodes = (
(154,359,l),
(373,359,l),
(373,383,l),
(154,383,l)
);
},
{
closed = 1;
nodes = (
(175,564,o),
(211,607,o),
(264,607,cs),
(316,607,o),
(352,564,o),
(352,513,cs),
(352,462,o),
(316,423,o),
(264,423,cs),
(211,423,o),
(175,462,o),
(175,513,cs)
);
}
);
width = 527;
},
{
associatedMasterId = "EBE2A6F1-3CB0-4D17-AF87-54EF93F0B568";
layerId = "8B33058B-A4E9-4CC7-A18D-CE3741F1C502";
name = "Apr 14 21, 16:02";
shapes = (
{
closed = 1;
nodes = (
(333,380,l),
(389,403,o),
(444,463,o),
(444,541,cs),
(444,645,o),
(359,730,o),
(255,730,cs),
(150,730,o),
(66,645,o),
(66,541,cs),
(66,464,o),
(117,407,o),
(176,380,c),
(176,375,l),
(107,348,o),
(55,285,o),
(55,199,c),
(55,89,o),
(144,0,o),
(255,0,c),
(365,0,o),
(454,89,o),
(454,199,c),
(454,289,o),
(399,350,o),
(333,376,c)
);
},
{
closed = 1;
nodes = (
(308,637,o),
(352,594,o),
(352,540,cs),
(352,487,o),
(308,443,o),
(255,443,cs),
(201,443,o),
(157,487,o),
(157,540,cs),
(157,594,o),
(201,637,o),
(255,637,cs)
);
},
{
closed = 1;
nodes = (
(196,99,o),
(149,147,o),
(149,205,cs),
(149,263,o),
(196,311,o),
(255,311,cs),
(313,311,o),
(360,263,o),
(360,205,cs),
(360,147,o),
(313,99,o),
(255,99,cs)
);
}
);
width = 509;
},
{
associatedMasterId = "EBE2A6F1-3CB0-4D17-AF87-54EF93F0B568";
layerId = "2138D9FC-AE88-4A35-9031-F10344945B59";
name = "Apr 15 21, 09:42";
shapes = (
{
closed = 1;
nodes = (
(50,74,o),
(146,-9,o),
(255,-9,cs),
(363,-9,o),
(459,74,o),
(459,193,cs),
(459,264,o),
(425,337,o),
(342,378,c),
(342,383,l),
(411,418,o),
(435,479,o),
(435,534,cs),
(435,639,o),
(349,710,o),
(255,710,cs),
(160,710,o),
(74,639,o),
(74,534,cs),
(74,478,o),
(98,418,o),
(167,383,c),
(167,378,l),
(83,337,o),
(50,263,o),
(50,193,cs)
);
},
{
closed = 1;
nodes = (
(152,264,o),
(194,313,o),
(255,313,cs),
(315,313,o),
(357,264,o),
(357,204,cs),
(357,142,o),
(315,94,o),
(255,94,cs),
(194,94,o),
(152,142,o),
(152,204,cs)
);
},
{
closed = 1;
nodes = (
(174,571,o),
(211,606,o),
(255,606,cs),
(298,606,o),
(335,571,o),
(335,519,cs),
(335,473,o),
(303,434,o),
(255,434,cs),
(206,434,o),
(174,473,o),
(174,519,cs)
);
}
);
width = 509;
},
{
associatedMasterId = "EBE2A6F1-3CB0-4D17-AF87-54EF93F0B568";
background = {
shapes = (
{
closed = 1;
nodes = (
(30,80,o),
(133,-9,o),
(249,-9,cs),
(364,-9,o),
(467,80,o),
(467,204,cs),
(467,277,o),
(429,352,o),
(327,395,c),
(325,369,l),
(413,402,o),
(438,473,o),
(438,526,cs),
(438,635,o),
(348,710,o),
(249,710,cs),
(149,710,o),
(59,635,o),
(59,526,cs),
(59,472,o),
(84,402,o),
(172,369,c),
(170,395,l),
(66,352,o),
(30,276,o),
(30,204,cs)
);
},
{
closed = 1;
nodes = (
(137,274,o),
(182,327,o),
(249,327,cs),
(315,327,o),
(360,274,o),
(360,210,cs),
(360,145,o),
(315,94,o),
(249,94,cs),
(182,94,o),
(137,145,o),
(137,210,cs)
);
},
{
closed = 1;
nodes = (
(162,571,o),
(202,607,o),
(249,607,cs),
(295,607,o),
(335,571,o),
(335,515,cs),
(335,466,o),
(300,425,o),
(249,425,cs),
(197,425,o),
(162,466,o),
(162,515,cs)
);
}
);
};
layerId = "0ADEE68F-F068-4C61-BED7-148C58CC0066";
name = "Apr 15 21, 14:32";
shapes = (
{
closed = 1;
nodes = (
(30,80,o),
(133,-9,o),
(249,-9,cs),
(364,-9,o),
(467,80,o),
(467,204,cs),
(467,277,o),
(429,352,o),
(327,395,c),
(325,369,l),
(413,402,o),
(438,473,o),
(438,526,cs),
(438,635,o),
(348,710,o),
(249,710,cs),
(149,710,o),
(59,635,o),
(59,526,cs),
(59,472,o),
(84,402,o),
(172,369,c),
(170,395,l),
(66,352,o),
(30,276,o),
(30,204,cs)
);
},
{
closed = 1;
nodes = (
(137,274,o),
(182,327,o),
(249,327,cs),
(315,327,o),
(360,274,o),
(360,210,cs),
(360,145,o),
(315,94,o),
(249,94,cs),
(182,94,o),
(137,145,o),
(137,210,cs)
);
},
{
closed = 1;
nodes = (
(162,571,o),
(202,607,o),
(249,607,cs),
(295,607,o),
(335,571,o),
(335,515,cs),
(335,466,o),
(300,425,o),
(249,425,cs),
(197,425,o),
(162,466,o),
(162,515,cs)
);
}
);
width = 497;
},
{
associatedMasterId = "EBE2A6F1-3CB0-4D17-AF87-54EF93F0B568";
background = {
shapes = (
{
closed = 1;
nodes = (
(470,616,o),
(379,710,o),
(256,710,cs),
(125,710,o),
(30,615,o),
(30,495,cs),
(30,374,o),
(133,293,o),
(241,293,c),
(241,285,l),
(79,51,l),
(180,-10,l),
(406,325,ls),
(440,376,o),
(470,434,o),
(470,500,cs)
);
},
{
closed = 1;
nodes = (
(313,607,o),
(362,559,o),
(362,496,cs),
(362,434,o),
(316,390,o),
(254,390,cs),
(190,390,o),
(140,439,o),
(140,498,cs),
(140,558,o),
(190,607,o),
(252,607,cs)
);
}
);
};
layerId = "67BD1413-9E4A-4274-9307-95D390949849";
name = "Apr 15 21, 14:34";
shapes = (
{
closed = 1;
nodes = (
(25,82,o),
(130,-9,o),
(249,-9,cs),
(367,-9,o),
(472,82,o),
(472,209,cs),
(472,284,o),
(433,361,o),
(329,405,c),
(331,339,l),
(428,375,o),
(455,452,o),
(455,509,cs),
(455,629,o),
(357,710,o),
(249,710,cs),
(140,710,o),
(42,629,o),
(42,509,cs),
(42,451,o),
(69,375,o),
(166,339,c),
(168,405,l),
(62,361,o),
(25,283,o),
(25,209,cs)
);
},
{
closed = 1;
nodes = (
(134,278,o),
(180,332,o),
(249,332,cs),
(317,332,o),
(363,278,o),
(363,212,cs),
(363,146,o),
(317,94,o),
(249,94,cs),
(180,94,o),
(134,146,o),
(134,212,cs)
);
},
{
closed = 1;
nodes = (
(154,569,o),
(198,608,o),
(249,608,cs),
(299,608,o),
(343,569,o),
(343,508,cs),
(343,455,o),
(305,409,o),
(249,409,cs),
(192,409,o),
(154,455,o),
(154,508,cs)
);
}
);
width = 497;
}
);
unicode = 56;
},
{
glyphname = nine;
lastChange = "2021-05-27 14:30:12 +0000";
layers = (
{
layerId = "EBE2A6F1-3CB0-4D17-AF87-54EF93F0B568";
shapes = (
{
closed = 1;
nodes = (
(462,616,o),
(372,710,o),
(252,710,cs),
(123,710,o),
(30,615,o),
(30,495,cs),
(30,374,o),
(131,293,o),
(247,293,c),
(247,285,l),
(88,51,l),
(177,-10,l),
(399,325,ls),
(432,376,o),
(462,434,o),
(462,500,cs)
);
},
{
closed = 1;
nodes = (
(308,607,o),
(356,559,o),
(356,496,cs),
(356,434,o),
(311,390,o),
(250,390,cs),
(187,390,o),
(138,439,o),
(138,498,cs),
(138,558,o),
(187,607,o),
(248,607,cs)
);
}
);
width = 500;
},
{
associatedMasterId = "EBE2A6F1-3CB0-4D17-AF87-54EF93F0B568";
layerId = "289BB44F-AC74-44CD-B5BC-CAE1C85B55B3";
name = "Apr 15 21, 09:56";
shapes = (
{
closed = 1;
nodes = (
(319,-10,o),
(509,184,o),
(509,428,cs),
(509,588,o),
(395,711,o),
(250,711,cs),
(126,711,o),
(27,618,o),
(27,498,cs),
(27,384,o),
(110,303,o),
(216,303,cs),
(304,303,o),
(385,361,o),
(397,477,c),
(402,477,l),
(404,467,o),
(406,451,o),
(406,438,cs),
(402,210,o),
(228,92,o),
(15,98,c),
(45,0,l)
);
},
{
closed = 1;
nodes = (
(190,398,o),
(143,448,o),
(143,505,cs),
(143,562,o),
(190,609,o),
(247,609,cs),
(305,609,o),
(352,562,o),
(352,505,cs),
(352,448,o),
(305,398,o),
(247,398,cs)
);
}
);
width = 521;
},
{
associatedMasterId = "EBE2A6F1-3CB0-4D17-AF87-54EF93F0B568";
layerId = "2910EBAB-4646-4E47-9BAA-7BC4D4182A5B";
name = "Apr 15 21, 11:02";
shapes = (
{
closed = 1;
nodes = (
(319,-10,o),
(509,184,o),
(509,418,cs),
(509,588,o),
(407,711,o),
(262,711,cs),
(138,711,o),
(45,616,o),
(45,500,cs),
(45,382,o),
(145,303,o),
(248,303,cs),
(309,303,o),
(371,331,o),
(401,380,c),
(406,378,l),
(388,191,o),
(224,88,o),
(20,98,c),
(50,0,l)
);
},
{
closed = 1;
nodes = (
(330,618,o),
(380,568,o),
(380,508,cs),
(380,446,o),
(330,396,o),
(269,396,cs),
(207,396,o),
(157,446,o),
(157,507,cs),
(157,568,o),
(207,618,o),
(268,618,cs)
);
}
);
width = 521;
},
{
associatedMasterId = "EBE2A6F1-3CB0-4D17-AF87-54EF93F0B568";
layerId = "38D8E08E-988A-412F-99FE-448AF2DFFABA";
name = "Apr 15 21, 11:13";
shapes = (
{
closed = 1;
nodes = (
(310,-10,o),
(510,156,o),
(510,420,cs),
(510,590,o),
(408,711,o),
(263,711,cs),
(139,711,o),
(46,616,o),
(46,500,cs),
(46,382,o),
(146,303,o),
(249,303,cs),
(302,303,o),
(350,323,o),
(383,352,c),
(388,349,l),
(354,154,o),
(205,92,o),
(10,102,c),
(41,0,l)
);
},
{
closed = 1;
nodes = (
(338,618,o),
(390,568,o),
(390,502,cs),
(390,437,o),
(341,391,o),
(276,391,cs),
(209,391,o),
(158,442,o),
(158,504,cs),
(158,567,o),
(210,618,o),
(274,618,cs)
);
}
);
width = 521;
},
{
associatedMasterId = "EBE2A6F1-3CB0-4D17-AF87-54EF93F0B568";
layerId = "E1CB7C30-F633-4C6D-A406-576B970D5DB9";
name = "Apr 15 21, 14:44";
shapes = (
{
closed = 1;
nodes = (
(297,-20,o),
(496,165,o),
(496,413,cs),
(496,584,o),
(396,710,o),
(250,710,cs),
(124,710,o),
(29,615,o),
(29,495,cs),
(29,374,o),
(132,293,o),
(245,293,cs),
(294,293,o),
(334,308,o),
(379,340,c),
(384,337,l),
(351,168,o),
(192,82,o),
(27,92,c),
(38,-10,l)
);
},
{
closed = 1;
nodes = (
(319,607,o),
(370,558,o),
(370,493,cs),
(370,429,o),
(322,383,o),
(258,383,cs),
(192,383,o),
(141,434,o),
(141,495,cs),
(141,557,o),
(193,607,o),
(256,607,cs)
);
}
);
width = 521;
}
);
unicode = 57;
},
{
glyphname = period;
lastChange = "2021-05-27 14:30:12 +0000";
layers = (
{
background = {
shapes = (
{
closed = 1;
nodes = (
(142,-35,o),
(178,1,o),
(178,44,cs),
(178,88,o),
(142,124,o),
(99,124,cs),
(56,124,o),
(20,88,o),
(20,44,cs),
(20,1,o),
(56,-35,o),
(99,-35,cs)
);
}
);
};
layerId = "EBE2A6F1-3CB0-4D17-AF87-54EF93F0B568";
shapes = (
{
closed = 1;
nodes = (
(142,-35,o),
(178,1,o),
(178,44,cs),
(178,88,o),
(142,124,o),
(99,124,cs),
(56,124,o),
(20,88,o),
(20,44,cs),
(20,1,o),
(56,-35,o),
(99,-35,cs)
);
}
);
width = 198;
}
);
unicode = 46;
},
{
glyphname = comma;
lastChange = "2021-05-27 14:30:12 +0000";
layers = (
{
layerId = "EBE2A6F1-3CB0-4D17-AF87-54EF93F0B568";
shapes = (
{
closed = 1;
nodes = (
(20,-123,o),
(82,-84,o),
(83,-14,cs),
(84,34,l),
(88,124,l),
(140,121,o),
(176,85,o),
(176,13,cs),
(176,-65,o),
(121,-134,o),
(30,-177,c),
(-3,-134,l)
);
},
{
closed = 1;
nodes = (
(39,-32,o),
(5,5,o),
(7,48,cs),
(9,92,o),
(41,124,o),
(86,124,cs),
(133,124,o),
(167,84,o),
(164,40,cs),
(163,5,o),
(125,-37,o),
(82,-35,cs)
);
}
);
width = 218;
}
);
unicode = 44;
},
{
glyphname = colon;
lastChange = "2021-05-27 14:30:12 +0000";
layers = (
{
layerId = "EBE2A6F1-3CB0-4D17-AF87-54EF93F0B568";
shapes = (
{
closed = 1;
nodes = (
(56,275,o),
(20,311,o),
(20,354,cs),
(20,398,o),
(56,434,o),
(99,434,cs),
(142,434,o),
(178,398,o),
(178,354,cs),
(178,311,o),
(142,275,o),
(99,275,cs)
);
},
{
closed = 1;
nodes = (
(142,-35,o),
(178,1,o),
(178,44,cs),
(178,88,o),
(142,124,o),
(99,124,cs),
(56,124,o),
(20,88,o),
(20,44,cs),
(20,1,o),
(56,-35,o),
(99,-35,cs)
);
}
);
width = 198;
}
);
unicode = 58;
},
{
glyphname = semicolon;
lastChange = "2021-05-27 14:30:12 +0000";
layers = (
{
layerId = "EBE2A6F1-3CB0-4D17-AF87-54EF93F0B568";
shapes = (
{
closed = 1;
nodes = (
(68,275,o),
(32,311,o),
(32,354,cs),
(32,398,o),
(68,434,o),
(111,434,cs),
(154,434,o),
(190,398,o),
(190,354,cs),
(190,311,o),
(154,275,o),
(111,275,cs)
);
},
{
closed = 1;
nodes = (
(43,-123,o),
(124,-84,o),
(126,-14,cs),
(127,34,l),
(127,34,o),
(96,58,o),
(115,124,c),
(163,121,o),
(198,85,o),
(195,13,cs),
(190,-65,o),
(144,-134,o),
(53,-177,c),
(20,-134,l)
);
},
{
closed = 1;
nodes = (
(62,-32,o),
(28,5,o),
(30,48,cs),
(32,92,o),
(70,127,o),
(113,124,cs),
(156,122,o),
(190,84,o),
(187,40,cs),
(186,5,o),
(148,-37,o),
(105,-35,cs)
);
}
);
width = 228;
}
);
unicode = 59;
},
{
glyphname = exclam;
lastChange = "2021-05-27 14:30:12 +0000";
layers = (
{
layerId = "EBE2A6F1-3CB0-4D17-AF87-54EF93F0B568";
shapes = (
{
closed = 1;
nodes = (
(49,700,l),
(49,185,l),
(150,185,l),
(150,700,l)
);
},
{
pos = (188,-4);
ref = period;
scale = (-1,1);
}
);
width = 198;
}
);
unicode = 33;
},
{
glyphname = exclamdown;
lastChange = "2021-05-27 14:30:12 +0000";
layers = (
{
layerId = "EBE2A6F1-3CB0-4D17-AF87-54EF93F0B568";
shapes = (
{
closed = 1;
nodes = (
(150,346,l),
(49,346,l),
(49,-169,l),
(150,-169,l)
);
},
{
angle = 180;
pos = (188,535);
ref = period;
}
);
width = 201;
}
);
unicode = 161;
},
{
glyphname = question;
lastChange = "2021-05-27 14:30:12 +0000";
layers = (
{
background = {
shapes = (
{
closed = 1;
nodes = (
(417,346,o),
(333,430,o),
(229,430,cs),
(125,430,o),
(40,346,o),
(40,242,cs),
(40,150,o),
(110,86,o),
(197,74,c),
(171,44,o),
(152,9,o),
(152,-39,cs),
(152,-68,o),
(158,-96,o),
(188,-139,c),
(269,-101,l),
(257,-83,o),
(250,-65,o),
(250,-34,cs),
(250,90,o),
(417,105,o),
(417,242,cs)
);
},
{
closed = 1;
nodes = (
(145,291,o),
(182,329,o),
(229,329,cs),
(275,329,o),
(312,291,o),
(312,246,cs),
(312,200,o),
(275,162,o),
(229,162,cs),
(182,162,o),
(145,200,o),
(145,246,cs)
);
}
);
};
layerId = "EBE2A6F1-3CB0-4D17-AF87-54EF93F0B568";
shapes = (
{
closed = 1;
nodes = (
(420,654,o),
(334,739,o),
(229,739,cs),
(124,739,o),
(37,654,o),
(37,548,cs),
(37,455,o),
(108,390,o),
(197,378,c),
(170,348,o),
(151,312,o),
(151,263,cs),
(151,234,o),
(157,206,o),
(187,162,c),
(270,201,l),
(257,219,o),
(250,237,o),
(250,268,cs),
(250,394,o),
(420,409,o),
(420,548,cs)
);
},
{
closed = 1;
nodes = (
(144,598,o),
(181,637,o),
(229,637,cs),
(276,637,o),
(313,598,o),
(313,552,cs),
(313,506,o),
(276,467,o),
(229,467,cs),
(181,467,o),
(144,506,o),
(144,552,cs)
);
},
{
closed = 1;
nodes = (
(262,-39,o),
(298,-3,o),
(298,40,cs),
(298,84,o),
(262,120,o),
(219,120,cs),
(176,120,o),
(140,84,o),
(140,40,cs),
(140,-3,o),
(176,-39,o),
(219,-39,cs)
);
}
);
width = 457;
},
{
associatedMasterId = "EBE2A6F1-3CB0-4D17-AF87-54EF93F0B568";
background = {
shapes = (
{
closed = 1;
nodes = (
(238.613,27.195,o),
(211.348,0,o),
(177.879,0,c),
(144.406,0,o),
(117.121,27.195,o),
(117.121,60.703,c),
(117.121,94.195,o),
(144.406,121.398,o),
(177.879,121.398,c),
(211.348,121.398,o),
(238.613,94.195,o),
(238.613,60.703,c)
);
},
{
closed = 0;
nodes = (
(157,360,l),
(131,330,o),
(112.324,295.293,o),
(112.324,247.022,c),
(112.324,217.522,o),
(119,202.606,o),
(127.199,185.209,c),
(228.535,185.209,l),
(217.333,202.94,o),
(210,220.939,o),
(210,252.272,c),
(210,375.606,o),
(377.361,390.606,o),
(377.361,527.836,c),
(377.361,631.987,o),
(292.904,716.444,o),
(188.729,716.444,c),
(84.578,716.444,o),
(0.121,631.987,o),
(0.121,527.836,c),
(0.121,435.885,o),
(70,372,o),
(157,360,c)
);
},
{
closed = 0;
nodes = (
(189,439,l),
(139.369,439.37,o),
(99.254,479.569,o),
(99.254,528.911,cs),
(99.254,578.235,o),
(139.369,618.434,o),
(188.729,618.434,cs),
(238.113,618.434,o),
(278.205,578.235,o),
(278.205,528.911,cs),
(278.205,479.569,o),
(238.113,439.37,o),
(188.729,439.37,c)
);
}
);
};
layerId = "112F068A-DF57-4682-9413-35AA7CC2C115";
name = "Apr 7 21, 11:28";
shapes = (
{
closed = 1;
nodes = (
(238.613,27.195,o),
(211.348,0,o),
(177.879,0,c),
(144.406,0,o),
(117.121,27.195,o),
(117.121,60.703,c),
(117.121,94.195,o),
(144.406,121.398,o),
(177.879,121.398,c),
(211.348,121.398,o),
(238.613,94.195,o),
(238.613,60.703,c)
);
},
{
closed = 1;
nodes = (
(131,445,o),
(99,486,o),
(99.254,528.911,cs),
(99.254,578.235,o),
(139.369,618.434,o),
(188.729,618.434,cs),
(238.113,618.434,o),
(278,578,o),
(278.205,528.911,cs),
(278,391,o),
(112,398,o),
(112,247,c),
(112,218,o),
(119,203,o),
(127,185,c),
(229,185,l),
(217,203,o),
(210,221,o),
(210,252,c),
(210,376,o),
(377,391,o),
(377,528,c),
(377,632,o),
(293,716,o),
(189,716,c),
(85,716,o),
(0,632,o),
(0,528,cs),
(0,452,o),
(53,378,o),
(123,379,c),
(170,444,l)
);
}
);
width = 600;
},
{
associatedMasterId = "EBE2A6F1-3CB0-4D17-AF87-54EF93F0B568";
background = {
shapes = (
{
closed = 1;
nodes = (
(417,346,o),
(333,430,o),
(229,430,cs),
(125,430,o),
(40,346,o),
(40,242,cs),
(40,150,o),
(110,86,o),
(197,74,c),
(171,44,o),
(152,9,o),
(152,-39,cs),
(152,-68,o),
(158,-96,o),
(188,-139,c),
(269,-101,l),
(257,-83,o),
(250,-65,o),
(250,-34,cs),
(250,90,o),
(417,105,o),
(417,242,cs)
);
},
{
closed = 1;
nodes = (
(145,291,o),
(182,329,o),
(229,329,cs),
(275,329,o),
(312,291,o),
(312,246,cs),
(312,200,o),
(275,162,o),
(229,162,cs),
(182,162,o),
(145,200,o),
(145,246,cs)
);
}
);
};
layerId = "30466E70-91C5-47B4-8AB9-8ECBE778ABFC";
name = "Apr 15 21, 15:45";
shapes = (
{
closed = 1;
nodes = (
(417,632,o),
(333,716,o),
(229,716,c),
(125,716,o),
(40,632,o),
(40,528,c),
(40,436,o),
(110,372,o),
(197,360,c),
(171,330,o),
(152,295,o),
(152,247,c),
(152,218,o),
(159,203,o),
(167,185,c),
(269,185,l),
(257,203,o),
(250,221,o),
(250,252,c),
(250,376,o),
(417,391,o),
(417,528,c)
);
},
{
closed = 1;
nodes = (
(139,578,o),
(179,618,o),
(229,618,cs),
(278,618,o),
(318,578,o),
(318,529,cs),
(318,480,o),
(278,439,o),
(229,439,cs),
(179,439,o),
(139,480,o),
(139,529,cs)
);
},
{
pos = (305,-4);
ref = period;
scale = (-1,1);
}
);
width = 457;
}
);
unicode = 63;
},
{
glyphname = questiondown;
lastChange = "2021-05-27 14:30:12 +0000";
layers = (
{
layerId = "EBE2A6F1-3CB0-4D17-AF87-54EF93F0B568";
shapes = (
{
closed = 1;
nodes = (
(37,-132,o),
(123,-217,o),
(228,-217,cs),
(333,-217,o),
(420,-132,o),
(420,-26,cs),
(420,67,o),
(349,132,o),
(260,144,c),
(287,174,o),
(306,210,o),
(306,259,cs),
(306,288,o),
(300,316,o),
(270,360,c),
(187,321,l),
(200,303,o),
(207,285,o),
(207,254,cs),
(207,128,o),
(37,113,o),
(37,-26,cs)
);
},
{
closed = 1;
nodes = (
(313,-76,o),
(276,-115,o),
(228,-115,cs),
(181,-115,o),
(144,-76,o),
(144,-30,cs),
(144,16,o),
(181,55,o),
(228,55,cs),
(276,55,o),
(313,16,o),
(313,-30,cs)
);
},
{
closed = 1;
nodes = (
(195,561,o),
(159,525,o),
(159,482,cs),
(159,438,o),
(195,402,o),
(238,402,cs),
(281,402,o),
(317,438,o),
(317,482,cs),
(317,525,o),
(281,561,o),
(238,561,cs)
);
}
);
width = 457;
}
);
unicode = 191;
},
{
glyphname = periodcentered;
lastChange = "2021-05-27 14:30:12 +0000";
layers = (
{
layerId = "EBE2A6F1-3CB0-4D17-AF87-54EF93F0B568";
shapes = (
{
closed = 1;
nodes = (
(304,422,o),
(331,394,o),
(331,361,cs),
(331,327,o),
(304,300,o),
(271,300,cs),
(237,300,o),
(210,327,o),
(210,361,cs),
(210,394,o),
(237,422,o),
(271,422,c)
);
}
);
width = 600;
}
);
unicode = 183;
},
{
glyphname = bullet;
lastChange = "2021-05-27 14:30:12 +0000";
layers = (
{
layerId = "EBE2A6F1-3CB0-4D17-AF87-54EF93F0B568";
shapes = (
{
closed = 1;
nodes = (
(326,462,o),
(371,416,o),
(371,361,cs),
(371,305,o),
(326,260,o),
(271,260,cs),
(215,260,o),
(170,305,o),
(170,361,cs),
(170,416,o),
(215,462,o),
(271,462,c)
);
}
);
width = 600;
}
);
unicode = 8226;
},
{
glyphname = asterisk;
lastChange = "2021-05-27 14:30:12 +0000";
layers = (
{
layerId = "EBE2A6F1-3CB0-4D17-AF87-54EF93F0B568";
shapes = (
{
closed = 1;
nodes = (
(270,652,l),
(300,545,l),
(300,534,l),
(270,427,l),
(270,359,l),
(350,359,l),
(350,427,l),
(320,534,l),
(320,545,l),
(350,652,l),
(350,720,l),
(270,720,l)
);
},
{
closed = 1;
nodes = (
(270,652,l),
(300,545,l),
(300,534,l),
(270,427,l),
(270,359,l),
(350,359,l),
(350,427,l),
(320,534,l),
(320,545,l),
(350,652,l),
(350,720,l),
(270,720,l)
);
},
{
closed = 1;
nodes = (
(387,630,l),
(310,551,l),
(300,545,l),
(193,518,l),
(134,484,l),
(174,415,l),
(233,449,l),
(310,528,l),
(320,534,l),
(427,561,l),
(486,595,l),
(446,664,l)
);
},
{
closed = 1;
nodes = (
(387,630,l),
(310,551,l),
(300,545,l),
(193,518,l),
(134,484,l),
(174,415,l),
(233,449,l),
(310,528,l),
(320,534,l),
(427,561,l),
(486,595,l),
(446,664,l)
);
},
{
closed = 1;
nodes = (
(427,518,l),
(320,545,l),
(310,551,l),
(233,630,l),
(174,664,l),
(134,595,l),
(193,561,l),
(300,534,l),
(310,528,l),
(387,449,l),
(446,415,l),
(486,484,l)
);
},
{
closed = 1;
nodes = (
(427,518,l),
(320,545,l),
(310,551,l),
(233,630,l),
(174,664,l),
(134,595,l),
(193,561,l),
(300,534,l),
(310,528,l),
(387,449,l),
(446,415,l),
(486,484,l)
);
}
);
width = 600;
},
{
associatedMasterId = "EBE2A6F1-3CB0-4D17-AF87-54EF93F0B568";
layerId = "A72A6605-9CA0-4E2D-934F-7583269C40FB";
name = "Apr 15 21, 15:46";
shapes = (
{
closed = 1;
nodes = (
(270,632,l),
(290,555,l),
(290,524,l),
(270,447,l),
(270,379,l),
(350,379,l),
(350,447,l),
(330,524,l),
(330,555,l),
(350,632,l),
(350,700,l),
(270,700,l)
);
}
);
width = 600;
}
);
unicode = 42;
},
{
glyphname = numbersign;
lastChange = "2021-05-27 14:30:12 +0000";
layers = (
{
layerId = "EBE2A6F1-3CB0-4D17-AF87-54EF93F0B568";
shapes = (
{
closed = 1;
nodes = (
(323,769,l),
(217,786,l),
(108,95,l),
(214,78,l)
);
},
{
closed = 1;
nodes = (
(592,769,l),
(486,786,l),
(377,95,l),
(483,78,l)
);
},
{
closed = 1;
nodes = (
(680,514,l),
(680,621,l),
(20,621,l),
(20,514,l)
);
},
{
closed = 1;
nodes = (
(680,247,l),
(680,354,l),
(20,354,l),
(20,247,l)
);
}
);
width = 700;
}
);
unicode = 35;
},
{
glyphname = slash;
lastChange = "2021-05-27 14:30:12 +0000";
layers = (
{
layerId = "EBE2A6F1-3CB0-4D17-AF87-54EF93F0B568";
shapes = (
{
closed = 1;
nodes = (
(30,15,l),
(268,715,l),
(366,684,l),
(133,-16,l)
);
}
);
width = 396;
}
);
unicode = 47;
},
{
glyphname = backslash;
lastChange = "2021-05-27 14:30:12 +0000";
layers = (
{
layerId = "EBE2A6F1-3CB0-4D17-AF87-54EF93F0B568";
shapes = (
{
closed = 1;
nodes = (
(15,684,l),
(113,715,l),
(351,15,l),
(248,-16,l)
);
}
);
width = 362;
},
{
associatedMasterId = "EBE2A6F1-3CB0-4D17-AF87-54EF93F0B568";
layerId = "3BF7D835-2425-4AF6-B70F-079899D71AB0";
name = "May 10 21, 16:34";
shapes = (
{
closed = 1;
nodes = (
(0.174,700,l),
(109.197,700,l),
(346.87,0,l),
(232.917,0,l)
);
}
);
width = 362;
}
);
unicode = 92;
},
{
glyphname = hyphen;
lastChange = "2021-05-27 14:30:12 +0000";
layers = (
{
layerId = "EBE2A6F1-3CB0-4D17-AF87-54EF93F0B568";
shapes = (
{
closed = 1;
nodes = (
(397,300,l),
(397,401,l),
(20,401,l),
(20,300,l)
);
}
);
width = 417;
}
);
unicode = 45;
},
{
glyphname = endash;
lastChange = "2021-05-27 14:30:12 +0000";
layers = (
{
layerId = "EBE2A6F1-3CB0-4D17-AF87-54EF93F0B568";
shapes = (
{
closed = 1;
nodes = (
(0,401,l),
(0,300,l),
(600,300,l),
(600,401,l)
);
}
);
width = 600;
}
);
unicode = 8211;
},
{
glyphname = emdash;
lastChange = "2021-05-27 14:30:12 +0000";
layers = (
{
layerId = "EBE2A6F1-3CB0-4D17-AF87-54EF93F0B568";
shapes = (
{
closed = 1;
nodes = (
(1298,200,l),
(1298,301,l),
(0,301,l),
(0,200,l)
);
}
);
width = 1298;
}
);
unicode = 8212;
},
{
glyphname = underscore;
lastChange = "2021-05-27 14:30:12 +0000";
layers = (
{
layerId = "EBE2A6F1-3CB0-4D17-AF87-54EF93F0B568";
shapes = (
{
closed = 1;
nodes = (
(609,-130,l),
(609,-29,l),
(10,-29,l),
(10,-130,l)
);
}
);
width = 619;
}
);
unicode = 95;
},
{
glyphname = parenleft;
lastChange = "2021-05-27 14:30:12 +0000";
layers = (
{
layerId = "EBE2A6F1-3CB0-4D17-AF87-54EF93F0B568";
shapes = (
{
closed = 1;
nodes = (
(30,70,o),
(172,-109,o),
(183,-122,c),
(266,-70,l),
(218,3,o),
(142,149,o),
(142,339,cs),
(142,529,o),
(218,675,o),
(266,748,c),
(183,800,l),
(172,787,o),
(30,608,o),
(30,339,cs)
);
}
);
width = 345;
}
);
metricLeft = zero;
unicode = 40;
},
{
glyphname = parenright;
lastChange = "2021-05-27 14:30:12 +0000";
layers = (
{
layerId = "EBE2A6F1-3CB0-4D17-AF87-54EF93F0B568";
shapes = (
{
closed = 1;
nodes = (
(345,619,o),
(191,801,o),
(191,801,c),
(70,801,l),
(70,801,o),
(233,618,o),
(233,339,cs),
(233,68,o),
(69,-124,o),
(69,-124,c),
(181,-124,l),
(181,-124,o),
(345,59,o),
(345,339,cs)
);
}
);
width = 375;
},
{
associatedMasterId = "EBE2A6F1-3CB0-4D17-AF87-54EF93F0B568";
layerId = "65077565-D629-4BBF-AFCD-81056411EC29";
name = "May 10 21, 16:37";
shapes = (
{
closed = 1;
nodes = (
(345,619,o),
(191,801,o),
(191,801,c),
(70,801,l),
(70,801,o),
(233,618,o),
(233,339,cs),
(233,68,o),
(69,-124,o),
(69,-124,c),
(181,-124,l),
(181,-124,o),
(345,59,o),
(345,339,cs)
);
}
);
width = 375;
}
);
metricRight = zero;
unicode = 41;
},
{
glyphname = braceleft;
lastChange = "2021-05-27 14:30:12 +0000";
layers = (
{
layerId = "EBE2A6F1-3CB0-4D17-AF87-54EF93F0B568";
shapes = (
{
closed = 1;
nodes = (
(147,807,o),
(78,740,o),
(78,666,cs),
(78,566,o),
(119,528,o),
(119,449,cs),
(119,385,o),
(60,372,o),
(20,374,c),
(20,332,o),
(20,305,o),
(20,305,c),
(58,307,o),
(119,298,o),
(119,231,cs),
(119,148,o),
(78,112,o),
(78,11,cs),
(78,-76,o),
(150,-127,o),
(221,-127,cs),
(261,-127,o),
(304,-109,o),
(325,-82,c),
(281,-10,l),
(271,-19,o),
(251,-29,o),
(233,-29,cs),
(206,-29,o),
(183,-10,o),
(183,30,cs),
(183,89,o),
(226,176,o),
(226,230,cs),
(226,287,o),
(184,335,o),
(139,338,c),
(139,342,l),
(184,344,o),
(225,381,o),
(225,432,cs),
(225,494,o),
(183,605,o),
(183,651,cs),
(183,689,o),
(204,709,o),
(233,709,cs),
(256,709,o),
(273,697,o),
(281,689,c),
(326,760,l),
(315,777,o),
(275,807,o),
(219,807,cs)
);
}
);
width = 336;
},
{
associatedMasterId = "EBE2A6F1-3CB0-4D17-AF87-54EF93F0B568";
layerId = "34E0D4D5-35A2-4A8B-8525-9C05653919C6";
name = "Apr 15 21, 11:27";
shapes = (
{
closed = 1;
nodes = (
(170,883,o),
(83,798,o),
(83,704,cs),
(83,578,o),
(165,530,o),
(165,429,cs),
(165,336,o),
(78,332,o),
(40,334,c),
(40,281,o),
(40,247,o),
(40,247,c),
(75,250,o),
(165,251,o),
(165,153,cs),
(165,48,o),
(83,3,o),
(83,-125,cs),
(83,-235,o),
(173,-300,o),
(263,-300,cs),
(314,-300,o),
(368,-277,o),
(395,-243,c),
(340,-171,l),
(325,-189,o),
(296,-204,o),
(269,-204,cs),
(231,-204,o),
(183,-174,o),
(183,-116,cs),
(183,-31,o),
(263,59,o),
(263,153,cs),
(263,251,o),
(197,284,o),
(175,290,c),
(175,294,l),
(197,298,o),
(262,343,o),
(262,433,cs),
(262,509,o),
(183,634,o),
(183,702,cs),
(183,756,o),
(227,787,o),
(269,787,cs),
(303,787,o),
(328,768,o),
(339,752,c),
(396,824,l),
(382,845,o),
(331,883,o),
(261,883,cs)
);
}
);
width = 416;
}
);
unicode = 123;
},
{
glyphname = braceright;
lastChange = "2021-05-27 14:30:12 +0000";
layers = (
{
layerId = "EBE2A6F1-3CB0-4D17-AF87-54EF93F0B568";
shapes = (
{
closed = 1;
nodes = (
(61,807,o),
(21,777,o),
(10,760,c),
(55,689,l),
(63,697,o),
(80,709,o),
(103,709,cs),
(132,709,o),
(153,689,o),
(153,651,cs),
(153,605,o),
(111,494,o),
(111,432,cs),
(111,381,o),
(152,344,o),
(197,342,c),
(197,338,l),
(152,335,o),
(110,287,o),
(110,230,cs),
(110,176,o),
(153,89,o),
(153,30,cs),
(153,-10,o),
(130,-29,o),
(103,-29,cs),
(85,-29,o),
(65,-19,o),
(55,-10,c),
(11,-82,l),
(32,-109,o),
(75,-127,o),
(115,-127,cs),
(186,-127,o),
(258,-76,o),
(258,11,cs),
(258,112,o),
(217,148,o),
(217,231,cs),
(217,298,o),
(278,307,o),
(316,305,c),
(316,305,o),
(316,332,o),
(316,374,c),
(276,372,o),
(217,385,o),
(217,449,cs),
(217,528,o),
(258,566,o),
(258,666,cs),
(258,740,o),
(189,807,o),
(117,807,cs)
);
}
);
width = 336;
}
);
unicode = 125;
},
{
glyphname = bracketleft;
lastChange = "2021-05-27 14:30:12 +0000";
layers = (
{
layerId = "EBE2A6F1-3CB0-4D17-AF87-54EF93F0B568";
shapes = (
{
closed = 1;
nodes = (
(335,-140,l),
(80,-140,l),
(80,854,l),
(331,854,l),
(331,759,l),
(183,759,l),
(183,-45,l),
(335,-45,l)
);
}
);
width = 345;
}
);
unicode = 91;
},
{
glyphname = bracketright;
lastChange = "2021-05-27 14:30:12 +0000";
layers = (
{
layerId = "EBE2A6F1-3CB0-4D17-AF87-54EF93F0B568";
shapes = (
{
closed = 1;
nodes = (
(162,-45,l),
(162,759,l),
(14,759,l),
(14,854,l),
(265,854,l),
(265,-140,l),
(10,-140,l),
(10,-45,l)
);
}
);
width = 345;
}
);
unicode = 93;
},
{
glyphname = quoteleft;
lastChange = "2021-05-27 14:30:12 +0000";
layers = (
{
layerId = "EBE2A6F1-3CB0-4D17-AF87-54EF93F0B568";
shapes = (
{
closed = 1;
nodes = (
(100,536,o),
(125,500,o),
(163,500,cs),
(199,500,o),
(225,527,o),
(225,561,cs),
(225,594,o),
(198,621,o),
(164,621,cs),
(160,621,o),
(156,621,o),
(152,620,c),
(152,648,o),
(171,677,o),
(202,677,cs),
(225,677,o),
(236,671,o),
(236,671,c),
(236,711,l),
(236,711,o),
(221,720,o),
(197,720,cs),
(128,720,o),
(100,658,o),
(100,599,cs)
);
}
);
width = 600;
}
);
unicode = 8216;
},
{
glyphname = guillemetleft;
lastChange = "2021-05-27 14:30:12 +0000";
layers = (
{
layerId = "EBE2A6F1-3CB0-4D17-AF87-54EF93F0B568";
shapes = (
{
closed = 1;
nodes = (
(179,-38,l),
(242,0,l),
(109,199,l),
(242,398,l),
(179,436,l),
(20,199,l)
);
},
{
closed = 1;
nodes = (
(333,-15,l),
(396,23,l),
(279,199,l),
(396,375,l),
(333,413,l),
(190,199,l)
);
}
);
width = 416;
},
{
associatedMasterId = "EBE2A6F1-3CB0-4D17-AF87-54EF93F0B568";
layerId = "5A7F2F9F-8D2B-4AAD-8A0B-76CC15F437D1";
name = "Apr 15 21, 15:56";
shapes = (
{
closed = 1;
nodes = (
(81.652,398.078,o),
(41.438,290.773,o),
(0.02,200.602,c),
(49.711,102.086,o),
(81.652,0,o),
(81.652,0,c),
(181.129,0,l),
(181.129,0,o),
(142.871,113.492,o),
(97.262,199.547,c),
(144.934,283.523,o),
(181.129,398.102,o),
(181.129,398.102,c),
(81.652,398.078,l)
);
},
{
closed = 1;
nodes = (
(268.758,398.078,o),
(228.547,290.773,o),
(187.129,200.602,c),
(236.832,102.086,o),
(268.758,0,o),
(268.758,0,c),
(368.234,0,l),
(368.234,0,o),
(329.977,113.492,o),
(284.371,199.547,c),
(332.055,283.523,o),
(368.234,398.102,o),
(368.234,398.102,c),
(268.758,398.078,l)
);
},
{
closed = 1;
nodes = (
(341,202,l),
(441,0,l),
(531,0,l),
(431,199,l),
(531,398,l),
(441,398,l)
);
}
);
width = 600;
}
);
unicode = 171;
},
{
glyphname = guillemetright;
lastChange = "2021-05-27 14:30:12 +0000";
layers = (
{
layerId = "EBE2A6F1-3CB0-4D17-AF87-54EF93F0B568";
shapes = (
{
closed = 1;
nodes = (
(237,436,l),
(174,398,l),
(307,199,l),
(174,0,l),
(237,-38,l),
(396,199,l)
);
},
{
closed = 1;
nodes = (
(83,413,l),
(20,375,l),
(137,199,l),
(20,23,l),
(83,-15,l),
(226,199,l)
);
}
);
width = 416;
},
{
associatedMasterId = "EBE2A6F1-3CB0-4D17-AF87-54EF93F0B568";
layerId = "D640C139-C3E1-47ED-902C-05D989F76288";
name = "Apr 15 21, 16:00";
shapes = (
{
closed = 1;
nodes = (
(187,398,l),
(187,398,o),
(223,284,o),
(271,200,c),
(225,113,o),
(187,0,o),
(187,0,c),
(286,0,l),
(286,0,o),
(318,102,o),
(368,201,c),
(327,291,o),
(286,398,o),
(286,398,c)
);
},
{
closed = 1;
nodes = (
(0,398,l),
(0,398,o),
(36,284,o),
(84,200,c),
(38,113,o),
(0,0,o),
(0,0,c),
(99,0,l),
(99,0,o),
(131,102,o),
(181,201,c),
(139,291,o),
(99,398,o),
(99,398,c)
);
}
);
width = 600;
},
{
associatedMasterId = "EBE2A6F1-3CB0-4D17-AF87-54EF93F0B568";
layerId = "FC7F8A8C-AF39-4F00-B3D8-001BDF809237";
name = "Apr 15 21, 16:00";
shapes = (
{
closed = 1;
nodes = (
(187,398,l),
(187,398,o),
(223,284,o),
(271,200,c),
(225,113,o),
(187,0,o),
(187,0,c),
(286,0,l),
(286,0,o),
(318,102,o),
(368,201,c),
(327,291,o),
(286,398,o),
(286,398,c)
);
},
{
closed = 1;
nodes = (
(0,398,l),
(0,398,o),
(36,284,o),
(84,200,c),
(38,113,o),
(0,0,o),
(0,0,c),
(99,0,l),
(99,0,o),
(131,102,o),
(181,201,c),
(139,291,o),
(99,398,o),
(99,398,c)
);
}
);
width = 600;
}
);
unicode = 187;
},
{
glyphname = guilsinglleft;
lastChange = "2021-05-27 14:30:12 +0000";
layers = (
{
layerId = "EBE2A6F1-3CB0-4D17-AF87-54EF93F0B568";
shapes = (
{
closed = 1;
nodes = (
(82,398,o),
(42,291,o),
(0,201,c),
(50,102,o),
(82,0,o),
(82,0,c),
(181,0,l),
(181,0,o),
(143,113,o),
(97,200,c),
(145,284,o),
(181,398,o),
(181,398,c),
(82,398,l)
);
}
);
width = 600;
}
);
unicode = 8249;
},
{
glyphname = guilsinglright;
lastChange = "2021-05-27 14:30:12 +0000";
layers = (
{
layerId = "EBE2A6F1-3CB0-4D17-AF87-54EF93F0B568";
shapes = (
{
closed = 1;
nodes = (
(0,398,l),
(0,398,o),
(36,284,o),
(84,200,c),
(38,113,o),
(0,0,o),
(0,0,c),
(99,0,l),
(99,0,o),
(131,102,o),
(181,201,c),
(139,291,o),
(99,398,o),
(99,398,c)
);
}
);
width = 600;
}
);
unicode = 8250;
},
{
glyphname = quotesingle;
lastChange = "2021-05-27 14:30:12 +0000";
layers = (
{
background = {
shapes = (
{
closed = 1;
nodes = (
(121,575,o),
(150,604,o),
(150,640,cs),
(150,675,o),
(121,704,o),
(86,704,cs),
(50,704,o),
(21,675,o),
(21,640,cs),
(21,604,o),
(50,575,o),
(86,575,cs)
);
}
);
};
layerId = "EBE2A6F1-3CB0-4D17-AF87-54EF93F0B568";
shapes = (
{
closed = 1;
nodes = (
(43,457,o),
(124,496,o),
(126,566,cs),
(127,614,l),
(127,614,o),
(96,638,o),
(115,704,c),
(163,701,o),
(198,665,o),
(195,593,cs),
(190,515,o),
(144,446,o),
(53,403,c),
(20,446,l)
);
},
{
closed = 1;
nodes = (
(62,548,o),
(28,585,o),
(30,628,cs),
(32,672,o),
(70,707,o),
(113,704,cs),
(156,702,o),
(190,664,o),
(187,620,cs),
(186,585,o),
(148,543,o),
(105,545,cs)
);
}
);
width = 215;
}
);
unicode = 39;
},
{
glyphname = at;
lastChange = "2021-05-27 14:30:12 +0000";
layers = (
{
layerId = "EBE2A6F1-3CB0-4D17-AF87-54EF93F0B568";
shapes = (
{
closed = 1;
nodes = (
(245,85,o),
(133,206,o),
(133,354,c),
(133,493,o),
(238,613,o),
(404,613,c),
(498,613,l),
(498,505,l),
(492,505,l),
(474,518,o),
(448,532,o),
(404,532,c),
(308,532,o),
(217,462,o),
(217,354,cs),
(217,251,o),
(292,167,o),
(396,167,c),
(462,167,o),
(500,198,o),
(505,214,c),
(508,214,l),
(508,182,l),
(591,182,l),
(591,712,l),
(394,712,l),
(164,712,o),
(30,538,o),
(30,354,c),
(30,158,o),
(168,-12,o),
(372,-12,c),
(600,-12,l),
(600,85,l),
(382,85,l)
);
},
{
closed = 1;
nodes = (
(353,264,o),
(314,304,o),
(314,354,cs),
(314,404,o),
(354,444,o),
(404,444,cs),
(454,444,o),
(495,404,o),
(495,354,cs),
(495,304,o),
(453,264,o),
(403,264,cs)
);
}
);
width = 657;
},
{
associatedMasterId = "EBE2A6F1-3CB0-4D17-AF87-54EF93F0B568";
background = {
shapes = (
{
closed = 1;
nodes = (
(796,532,o),
(636,693,o),
(433,693,c),
(230,693,o),
(70,532,o),
(70,327,c),
(70,122,o),
(230,-38,o),
(433,-38,c),
(496,-38,o),
(554,-23,o),
(605,4,c),
(574,59,l),
(533,37,o),
(486,24,o),
(433,24,c),
(265,24,o),
(147,154,o),
(147,327,c),
(147,501,o),
(265,631,o),
(433,631,c),
(601,631,o),
(723,496,o),
(723,323,c),
(723,214,o),
(684,198,o),
(667,198,c),
(649,198,o),
(614,213,o),
(614,315,c),
(614,509,l),
(537,509,l),
(537,469,l),
(505,494,o),
(464,509,o),
(420,509,c),
(313,509,o),
(226,422,o),
(226,315,c),
(226,207,o),
(313,120,o),
(420,120,c),
(481,120,o),
(536,149,o),
(571,193,c),
(592,149,o),
(624,121,o),
(667,121,c),
(741,121,o),
(796,205,o),
(796,327,c)
);
},
{
closed = 1;
nodes = (
(356,198,o),
(303,250,o),
(303,315,cs),
(303,379,o),
(356,431,o),
(420,431,cs),
(485,431,o),
(537,379,o),
(537,315,cs),
(537,250,o),
(485,198,o),
(420,198,cs)
);
}
);
};
layerId = "6C18C6AA-C861-4C85-BDFC-D3C29428F27C";
name = "Apr 8 21, 11:54";
shapes = (
{
closed = 1;
nodes = (
(488,475,l),
(298,475,l),
(298,551,l),
(574,551,l),
(574,229,l),
(488,230,l)
);
},
{
closed = 1;
nodes = (
(661,179,o),
(705,231,o),
(705,363,c),
(712,516,o),
(591,619,o),
(433,619,c),
(265,619,o),
(158,501,o),
(158,327,c),
(158,154,o),
(265,34,o),
(437,34,c),
(484,34,o),
(534,45,o),
(576,65,c),
(612,-9,l),
(561,-36,o),
(498,-53,o),
(423,-53,c),
(220,-53,o),
(55,112,o),
(55,327,c),
(55,532,o),
(221,708,o),
(454,708,c),
(667,708,o),
(800,552,o),
(800,385,c),
(800,224,o),
(747,99,o),
(487,99,cs),
(388,99,l),
(302,99,o),
(232,169,o),
(232,255,cs),
(232,340,o),
(302,410,o),
(388,410,cs),
(513,410,l),
(513,334,l),
(389,334,l),
(345,334,o),
(313,299,o),
(313,256,cs),
(313,214,o),
(345,179,o),
(389,179,cs),
(527,179,ls)
);
}
);
width = 855;
},
{
associatedMasterId = "EBE2A6F1-3CB0-4D17-AF87-54EF93F0B568";
layerId = "24223C85-B486-4945-B0BD-4A07FAECB2CC";
name = "Apr 10 21, 16:28";
shapes = (
{
closed = 1;
nodes = (
(756,532,o),
(596,693,o),
(393,693,c),
(190,693,o),
(30,532,o),
(30,327,c),
(30,122,o),
(190,-38,o),
(393,-38,c),
(456,-38,o),
(514,-23,o),
(565,4,c),
(534,59,l),
(493,37,o),
(446,24,o),
(393,24,c),
(225,24,o),
(107,154,o),
(107,327,c),
(107,501,o),
(225,631,o),
(393,631,c),
(561,631,o),
(683,496,o),
(683,323,c),
(683,214,o),
(644,198,o),
(627,198,c),
(609,198,o),
(574,213,o),
(574,315,c),
(574,509,l),
(497,509,l),
(497,469,l),
(465,494,o),
(424,509,o),
(380,509,c),
(273,509,o),
(186,422,o),
(186,315,c),
(186,207,o),
(273,120,o),
(380,120,c),
(441,120,o),
(496,149,o),
(531,193,c),
(552,149,o),
(584,121,o),
(627,121,c),
(701,121,o),
(756,205,o),
(756,327,c)
);
},
{
closed = 1;
nodes = (
(316,198,o),
(263,250,o),
(263,315,cs),
(263,379,o),
(316,431,o),
(380,431,cs),
(445,431,o),
(497,379,o),
(497,315,cs),
(497,250,o),
(445,198,o),
(380,198,cs)
);
}
);
width = 786;
},
{
associatedMasterId = "EBE2A6F1-3CB0-4D17-AF87-54EF93F0B568";
layerId = "D709B5A8-B82E-429F-AB7A-465D7130FBB1";
name = "Apr 10 21, 16:29";
shapes = (
{
closed = 1;
nodes = (
(235,85,o),
(123,206,o),
(123,354,c),
(123,493,o),
(228,613,o),
(394,613,c),
(488,613,l),
(488,505,l),
(482,505,l),
(464,518,o),
(438,532,o),
(394,532,c),
(298,532,o),
(207,462,o),
(207,354,c),
(207,251,o),
(282,167,o),
(386,167,c),
(452,167,o),
(490,198,o),
(495,214,c),
(498,214,l),
(498,182,l),
(581,182,l),
(581,712,l),
(394,712,l),
(164,712,o),
(30,538,o),
(30,354,c),
(30,158,o),
(168,-12,o),
(372,-12,c),
(720,-12,l),
(720,85,l),
(372,85,l)
);
},
{
closed = 1;
nodes = (
(341,260,o),
(300,302,o),
(300,354,cs),
(300,406,o),
(342,448,o),
(394,448,cs),
(446,448,o),
(489,406,o),
(489,354,cs),
(489,302,o),
(445,260,o),
(393,260,cs)
);
},
{
closed = 1;
nodes = (
(628,-12,l),
(730,-12,l),
(730,712,l),
(628,712,l)
);
}
);
width = 786;
},
{
associatedMasterId = "EBE2A6F1-3CB0-4D17-AF87-54EF93F0B568";
layerId = "6C11E747-17BE-4299-A7A0-1B11CF8177D3";
name = "Apr 10 21, 16:29";
shapes = (
{
closed = 1;
nodes = (
(341,260,o),
(300,302,o),
(300,354,cs),
(300,406,o),
(342,448,o),
(394,448,cs),
(446,448,o),
(489,406,o),
(489,354,cs),
(489,302,o),
(445,260,o),
(393,260,cs)
);
},
{
closed = 0;
nodes = (
(714,354,l),
(714,158,o),
(576,-12,o),
(372,-12,cs),
(168,-12,o),
(30,158,o),
(30,354,c),
(30,538,o),
(164,712,o),
(394,712,c),
(581,712,l),
(581,271,l),
(498,182,l),
(498,214,l),
(495,214,l),
(490,198,o),
(452,167,o),
(386,167,c),
(282,167,o),
(207,251,o),
(207,354,c),
(207,462,o),
(298,532,o),
(394,532,c),
(438,532,o),
(464,518,o),
(482,505,c),
(488,505,l),
(488,613,l),
(394,613,l),
(228,613,o),
(123,493,o),
(123,354,c),
(123,206,o),
(235,85,o),
(372,85,cs),
(509,85,o),
(621,206,o),
(621,354,c)
);
}
);
width = 786;
}
);
metricLeft = o;
metricRight = i;
unicode = 64;
},
{
glyphname = ampersand;
lastChange = "2021-05-27 14:30:12 +0000";
layers = (
{
background = {
shapes = (
{
closed = 1;
nodes = (
(549,-4,l),
(631,66,l),
(249,509,l),
(167,439,l)
);
}
);
};
layerId = "EBE2A6F1-3CB0-4D17-AF87-54EF93F0B568";
shapes = (
{
closed = 1;
nodes = (
(578,450,l),
(578,334,o),
(555,249,o),
(468,166,c),
(528,184,l),
(357,384,l),
(323,349,l),
(403,374,o),
(496,441,o),
(496,535,cs),
(496,643,o),
(423,710,o),
(315,710,cs),
(215,710,o),
(134,625,o),
(134,531,cs),
(134,476,o),
(175,426,o),
(206,394,c),
(120,364,o),
(22,297,o),
(22,196,cs),
(22,105,o),
(99,0,o),
(263,0,cs),
(365,0,o),
(445,33,o),
(507,85,c),
(467,91,l),
(549,-4,l),
(631,66,l),
(549,151,l),
(531,104,l),
(641,200,o),
(673,316,o),
(675,449,c)
);
},
{
closed = 1;
nodes = (
(360,611,o),
(392,581,o),
(392,540,cs),
(392,500,o),
(350,465,o),
(300,445,c),
(274,476,o),
(247,503,o),
(247,540,cs),
(247,581,o),
(278,611,o),
(319,611,cs)
);
},
{
closed = 1;
nodes = (
(198,103,o),
(131,134,o),
(131,206,cs),
(131,284,o),
(218,312,o),
(311,336,c),
(252,340,l),
(443,119,l),
(451,157,l),
(404,123,o),
(341,103,o),
(267,103,cs)
);
}
);
width = 753;
},
{
associatedMasterId = "EBE2A6F1-3CB0-4D17-AF87-54EF93F0B568";
background = {
shapes = (
{
closed = 1;
nodes = (
(639.838,492.578,l),
(639.838,373.438,o),
(596.986,274.11,o),
(519.349,193.446,c),
(357.719,368.259,l),
(431.347,400.437,o),
(509.343,463.433,o),
(509.343,550.429,c),
(509.343,661.423,o),
(432.847,731.502,o),
(322.222,731.502,c),
(218.071,731.502,o),
(135.307,643.972,o),
(135.307,545.972,c),
(135.307,488.972,o),
(176.5,439.165,o),
(214,401.665,c),
(100.529,374.271,o),
(0,304.441,o),
(0,202.665,c),
(0,107.665,o),
(80,0,o),
(269,0,c),
(361.922,0,o),
(444.967,27.208,o),
(508.664,70.701,c),
(557.495,14.969,l),
(683.901,15.148,l),
(578.062,129.726,l),
(677.336,226.444,o),
(733.338,353.938,o),
(733.338,492.578,c)
);
},
{
closed = 1;
nodes = (
(371.606,633.493,o),
(411.698,593.293,o),
(411.698,543.969,c),
(411.698,494.627,o),
(360.333,452.998,o),
(297,431.665,c),
(267.002,464.663,o),
(232.747,497.998,o),
(232.747,543.969,c),
(232.747,593.293,o),
(272.862,633.493,o),
(322.222,633.493,c)
);
},
{
closed = 1;
nodes = (
(190.865,96.37,o),
(99.996,132.665,o),
(99.996,208.665,cs),
(99.996,279.665,o),
(187.002,311.999,o),
(276.856,335.938,c),
(448.852,140.949,l),
(400.246,111.506,o),
(334.471,96.37,o),
(267,96.37,cs)
);
}
);
};
layerId = "E0D6F615-3275-4D4F-9F61-6608068112A4";
name = "Apr 8 21, 13:04";
shapes = (
{
closed = 1;
nodes = (
(570,700,o),
(648,620,o),
(648,523,cs),
(648,425,o),
(569,346,o),
(471,346,cs),
(338,346,l),
(348,436,l),
(448,436,l),
(495,436,o),
(532,473,o),
(532,521,cs),
(532,568,o),
(495,606,o),
(448,606,cs),
(358,606,l),
(351,700,l),
(471,700,l)
);
},
{
closed = 1;
nodes = (
(385,100,l),
(738,100,l),
(738,0,l),
(275,0,l),
(275,700,l),
(385,700,l)
);
},
{
closed = 1;
nodes = (
(353,490,l),
(353,400,l),
(234,400,ls),
(146,400,o),
(77,330,o),
(77,242,cs),
(77,154,o),
(145,84,o),
(234,84,c),
(353,84,l),
(353,0,l),
(233,0,ls),
(98,0,o),
(-12,109,o),
(-12,245,cs),
(-12,380,o),
(97,490,o),
(233,490,c)
);
}
);
width = 753;
},
{
associatedMasterId = "EBE2A6F1-3CB0-4D17-AF87-54EF93F0B568";
background = {
shapes = (
{
closed = 1;
nodes = (
(639.838,492.578,l),
(639.838,373.438,o),
(596.986,274.11,o),
(519.349,193.446,c),
(357.719,368.259,l),
(431.347,400.437,o),
(509.343,463.433,o),
(509.343,550.429,c),
(509.343,661.423,o),
(432.847,731.502,o),
(322.222,731.502,c),
(218.071,731.502,o),
(135.307,643.972,o),
(135.307,545.972,c),
(135.307,488.972,o),
(176.5,439.165,o),
(214,401.665,c),
(100.529,374.271,o),
(0,304.441,o),
(0,202.665,c),
(0,107.665,o),
(80,0,o),
(269,0,c),
(361.922,0,o),
(444.967,27.208,o),
(508.664,70.701,c),
(557.495,14.969,l),
(683.901,15.148,l),
(578.062,129.726,l),
(677.336,226.444,o),
(733.338,353.938,o),
(733.338,492.578,c)
);
},
{
closed = 1;
nodes = (
(371.606,633.493,o),
(411.698,593.293,o),
(411.698,543.969,c),
(411.698,494.627,o),
(360.333,452.998,o),
(297,431.665,c),
(267.002,464.663,o),
(232.747,497.998,o),
(232.747,543.969,c),
(232.747,593.293,o),
(272.862,633.493,o),
(322.222,633.493,c)
);
},
{
closed = 1;
nodes = (
(190.865,96.37,o),
(99.996,132.665,o),
(99.996,208.665,cs),
(99.996,279.665,o),
(187.002,311.999,o),
(276.856,335.938,c),
(448.852,140.949,l),
(400.246,111.506,o),
(334.471,96.37,o),
(267,96.37,cs)
);
}
);
};
layerId = "50CE90C3-9949-4598-B1ED-0C60248263AD";
name = "Apr 8 21, 13:08";
shapes = (
{
closed = 1;
nodes = (
(239,770,o),
(351,759,o),
(413,685,cs),
(476,610,o),
(466,498,o),
(391,435,cs),
(289,350,l),
(239,425,l),
(315,489,l),
(352,520,o),
(356,572,o),
(326,609,cs),
(296,645,o),
(242,650,o),
(206,619,cs),
(138,562,l),
(72,629,l),
(163,706,l)
);
},
{
closed = 1;
nodes = (
(483,192,l),
(672,348,l),
(736,272,l),
(463,44,l),
(13,581,l),
(98,651,l)
);
},
{
closed = 1;
nodes = (
(208,470,l),
(266,401,l),
(175,324,ls),
(108,267,o),
(100,170,o),
(156,102,cs),
(213,35,o),
(310,25,o),
(378,82,c),
(469,159,l),
(523,94,l),
(431,17,ls),
(328,-69,o),
(173,-57,o),
(86,47,cs),
(-1,151,o),
(12,305,o),
(116,393,c)
);
},
{
closed = 1;
nodes = (
(739,360,l),
(739,271,l),
(483,271,l),
(483,360,l)
);
}
);
width = 753;
},
{
associatedMasterId = "EBE2A6F1-3CB0-4D17-AF87-54EF93F0B568";
background = {
shapes = (
{
closed = 1;
nodes = (
(639.838,492.578,l),
(639.838,373.438,o),
(596.986,274.11,o),
(519.349,193.446,c),
(357.719,368.259,l),
(431.347,400.437,o),
(509.343,463.433,o),
(509.343,550.429,c),
(509.343,661.423,o),
(432.847,731.502,o),
(322.222,731.502,c),
(218.071,731.502,o),
(135.307,643.972,o),
(135.307,545.972,c),
(135.307,488.972,o),
(176.5,439.165,o),
(214,401.665,c),
(100.529,374.271,o),
(0,304.441,o),
(0,202.665,c),
(0,107.665,o),
(80,0,o),
(269,0,c),
(361.922,0,o),
(444.967,27.208,o),
(508.664,70.701,c),
(557.495,14.969,l),
(683.901,15.148,l),
(578.062,129.726,l),
(677.336,226.444,o),
(733.338,353.938,o),
(733.338,492.578,c)
);
},
{
closed = 1;
nodes = (
(371.606,633.493,o),
(411.698,593.293,o),
(411.698,543.969,c),
(411.698,494.627,o),
(360.333,452.998,o),
(297,431.665,c),
(267.002,464.663,o),
(232.747,497.998,o),
(232.747,543.969,c),
(232.747,593.293,o),
(272.862,633.493,o),
(322.222,633.493,c)
);
},
{
closed = 1;
nodes = (
(190.865,96.37,o),
(99.996,132.665,o),
(99.996,208.665,cs),
(99.996,279.665,o),
(187.002,311.999,o),
(276.856,335.938,c),
(448.852,140.949,l),
(400.246,111.506,o),
(334.471,96.37,o),
(267,96.37,cs)
);
}
);
};
layerId = "EACDB568-7D35-44D1-83CC-AFE0ED2CF6E5";
name = "Apr 8 21, 13:09";
shapes = (
{
closed = 1;
nodes = (
(208,470,l),
(266,401,l),
(175,324,ls),
(108,267,o),
(100,170,o),
(156,102,cs),
(213,35,o),
(310,25,o),
(378,82,c),
(469,159,l),
(523,94,l),
(431,17,ls),
(328,-69,o),
(173,-57,o),
(86,47,cs),
(-1,151,o),
(12,305,o),
(116,393,c)
);
},
{
closed = 1;
nodes = (
(739,360,l),
(739,271,l),
(483,271,l),
(483,360,l)
);
},
{
closed = 1;
nodes = (
(67,521,o),
(77,641,o),
(158,706,cs),
(234,770,o),
(351,759,o),
(413,685,cs),
(476,610,o),
(466,498,o),
(391,435,cs),
(289,350,l),
(239,425,l),
(315,489,l),
(352,520,o),
(356,578,o),
(326,615,cs),
(296,651,o),
(245,649,o),
(215,624,cs),
(183,597,o),
(186,545,o),
(231,492,cs),
(483,192,l),
(672,348,l),
(736,272,l),
(463,44,l),
(135,439,ls)
);
}
);
width = 753;
},
{
associatedMasterId = "EBE2A6F1-3CB0-4D17-AF87-54EF93F0B568";
background = {
shapes = (
{
closed = 1;
nodes = (
(639.838,492.578,l),
(639.838,373.438,o),
(596.986,274.11,o),
(519.349,193.446,c),
(357.719,368.259,l),
(431.347,400.437,o),
(509.343,463.433,o),
(509.343,550.429,c),
(509.343,661.423,o),
(432.847,731.502,o),
(322.222,731.502,c),
(218.071,731.502,o),
(135.307,643.972,o),
(135.307,545.972,c),
(135.307,488.972,o),
(176.5,439.165,o),
(214,401.665,c),
(100.529,374.271,o),
(0,304.441,o),
(0,202.665,c),
(0,107.665,o),
(80,0,o),
(269,0,c),
(361.922,0,o),
(444.967,27.208,o),
(508.664,70.701,c),
(557.495,14.969,l),
(683.901,15.148,l),
(578.062,129.726,l),
(677.336,226.444,o),
(733.338,353.938,o),
(733.338,492.578,c)
);
},
{
closed = 1;
nodes = (
(371.606,633.493,o),
(411.698,593.293,o),
(411.698,543.969,c),
(411.698,494.627,o),
(360.333,452.998,o),
(297,431.665,c),
(267.002,464.663,o),
(232.747,497.998,o),
(232.747,543.969,c),
(232.747,593.293,o),
(272.862,633.493,o),
(322.222,633.493,c)
);
},
{
closed = 1;
nodes = (
(190.865,96.37,o),
(99.996,132.665,o),
(99.996,208.665,cs),
(99.996,279.665,o),
(187.002,311.999,o),
(276.856,335.938,c),
(448.852,140.949,l),
(400.246,111.506,o),
(334.471,96.37,o),
(267,96.37,cs)
);
}
);
};
layerId = "F5A40EE4-C721-44F4-83C2-1AA9A128BC41";
name = "Apr 8 21, 13:11";
shapes = (
{
closed = 1;
nodes = (
(208,470,l),
(266,401,l),
(175,324,ls),
(108,267,o),
(100,170,o),
(156,102,cs),
(213,35,o),
(310,25,o),
(378,82,c),
(408,108,o),
(439,132,o),
(469,159,cs),
(651,324,l),
(710,266,l),
(527,91,ls),
(497,63,o),
(465,40,o),
(434,14,cs),
(331,-72,o),
(173,-57,o),
(86,47,cs),
(-1,151,o),
(12,305,o),
(116,393,c)
);
},
{
closed = 1;
nodes = (
(709,355,l),
(709,266,l),
(473,266,l),
(473,355,l)
);
},
{
closed = 1;
nodes = (
(67,521,o),
(77,641,o),
(158,706,cs),
(234,770,o),
(351,759,o),
(413,685,cs),
(476,610,o),
(466,498,o),
(391,435,cs),
(289,350,l),
(239,425,l),
(315,489,l),
(352,520,o),
(356,578,o),
(326,615,cs),
(296,651,o),
(245,649,o),
(215,624,cs),
(183,597,o),
(187,545,o),
(231,492,cs),
(512,158,l),
(463,44,l),
(135,439,ls)
);
}
);
width = 715;
},
{
associatedMasterId = "EBE2A6F1-3CB0-4D17-AF87-54EF93F0B568";
background = {
shapes = (
{
closed = 1;
nodes = (
(549,-4,l),
(631,66,l),
(249,509,l),
(167,439,l)
);
}
);
};
layerId = "8218FF8A-7CE1-480D-8746-6B38CE67F8AE";
name = "Apr 16 21, 12:36";
shapes = (
{
closed = 1;
nodes = (
(639.838,492.578,l),
(639.838,373.438,o),
(596.986,274.11,o),
(519.349,193.446,c),
(357.719,368.259,l),
(431.347,400.437,o),
(509.343,463.433,o),
(509.343,550.429,c),
(509.343,661.423,o),
(432.847,731.502,o),
(322.222,731.502,c),
(218.071,731.502,o),
(135.307,643.972,o),
(135.307,545.972,c),
(135.307,488.972,o),
(176.5,439.165,o),
(214,401.665,c),
(100.529,374.271,o),
(0,304.441,o),
(0,202.665,c),
(0,107.665,o),
(80,0,o),
(269,0,c),
(361.922,0,o),
(444.967,27.208,o),
(508.664,70.701,c),
(557.495,14.969,l),
(683.901,15.148,l),
(578.062,129.726,l),
(677.336,226.444,o),
(733.338,353.938,o),
(733.338,492.578,c)
);
},
{
closed = 1;
nodes = (
(371.606,633.493,o),
(411.698,593.293,o),
(411.698,543.969,c),
(411.698,494.627,o),
(360.333,452.998,o),
(297,431.665,c),
(267.002,464.663,o),
(232.747,497.998,o),
(232.747,543.969,c),
(232.747,593.293,o),
(272.862,633.493,o),
(322.222,633.493,c)
);
},
{
closed = 1;
nodes = (
(190.865,96.37,o),
(99.996,132.665,o),
(99.996,208.665,cs),
(99.996,279.665,o),
(187.002,311.999,o),
(276.856,335.938,c),
(448.852,140.949,l),
(400.246,111.506,o),
(334.471,96.37,o),
(267,96.37,cs)
);
}
);
width = 753;
}
);
unicode = 38;
},
{
glyphname = paragraph;
lastChange = "2021-05-27 14:30:12 +0000";
layers = (
{
layerId = "EBE2A6F1-3CB0-4D17-AF87-54EF93F0B568";
shapes = (
{
closed = 1;
nodes = (
(489,927,l),
(596,927,l),
(596,0,l),
(489,0,l)
);
},
{
closed = 1;
nodes = (
(382,927,l),
(382,0,l),
(275,0,l),
(275,511,l),
(108,511,ls),
(-12,511,o),
(-110,589,o),
(-110,724,cs),
(-110,837,o),
(-27,927,o),
(106,927,c)
);
}
);
width = 600;
}
);
unicode = 182;
},
{
glyphname = section;
lastChange = "2021-05-27 14:30:12 +0000";
layers = (
{
layerId = "EBE2A6F1-3CB0-4D17-AF87-54EF93F0B568";
shapes = (
{
closed = 1;
nodes = (
(495,176,o),
(522,217,o),
(522,263,c),
(522,479,o),
(217,465,o),
(217,612,c),
(217,672,o),
(272,706,o),
(328,706,c),
(387,706,o),
(439,656,o),
(459,604,c),
(546,653,l),
(523,710,o),
(451,797,o),
(325,797,c),
(210,797,o),
(118,707,o),
(118,599,c),
(118,546,o),
(139,509,o),
(170,480,c),
(170,480,o),
(124,428,o),
(124,369,c),
(124,153,o),
(429,159,o),
(429,21,c),
(429,-39,o),
(374,-73,o),
(317,-73,c),
(259,-73,o),
(207,-24,o),
(187,29,c),
(100,-21,l),
(122,-78,o),
(194,-165,o),
(320,-165,c),
(447,-165,o),
(527,-80,o),
(527,21,c),
(527,106,o),
(476,153,o),
(476,153,c)
);
},
{
closed = 1;
nodes = (
(224,397,o),
(233,418,o),
(241,431,c),
(321,384,o),
(421,347,o),
(421,263,cs),
(421,235,o),
(412,219,o),
(402,204,c),
(329,249,o),
(224,294,o),
(224,369,cs)
);
}
);
width = 600;
}
);
unicode = 167;
},
{
glyphname = copyright;
lastChange = "2021-05-27 14:30:12 +0000";
layers = (
{
layerId = "EBE2A6F1-3CB0-4D17-AF87-54EF93F0B568";
shapes = (
{
closed = 1;
nodes = (
(90,458,o),
(140,405,o),
(209,405,c),
(278,405,o),
(328,458,o),
(328,531,c),
(328,602,o),
(278,656,o),
(209,656,c),
(140,656,o),
(90,602,o),
(90,531,c)
);
},
{
closed = 1;
nodes = (
(388,429,o),
(309,350,o),
(209,350,c),
(109,350,o),
(30,429,o),
(30,531,c),
(30,631,o),
(109,710,o),
(209,710,c),
(309,710,o),
(388,631,o),
(388,531,c)
);
},
{
closed = 1;
nodes = (
(242,508,l),
(241,504,o),
(229,489,o),
(211,489,cs),
(191,489,o),
(176,506,o),
(176,527,cs),
(176,547,o),
(191,564,o),
(211,564,cs),
(224,564,o),
(234,557,o),
(240,546,c),
(285,573,l),
(269,601,o),
(243,617,o),
(213,617,cs),
(163,617,o),
(126,577,o),
(126,527,cs),
(126,476,o),
(163,437,o),
(213,437,cs),
(232,437,o),
(251,443,o),
(266,455,cs),
(272,459,o),
(282,469,o),
(288,482,c)
);
}
);
width = 806;
},
{
associatedMasterId = "EBE2A6F1-3CB0-4D17-AF87-54EF93F0B568";
layerId = "BF2D6322-C791-47F9-87D3-92F054B4B8ED";
name = "Apr 8 21, 13:26";
shapes = (
{
closed = 1;
nodes = (
(149,197,o),
(254,82,o),
(403,82,c),
(552,82,o),
(658,197,o),
(658,352,c),
(658,506,o),
(552,621,o),
(403,621,c),
(254,621,o),
(149,506,o),
(149,352,c)
);
},
{
closed = 1;
nodes = (
(766,147,o),
(606,-14,o),
(403,-14,c),
(200,-14,o),
(40,147,o),
(40,352,c),
(40,557,o),
(200,717,o),
(403,717,c),
(606,717,o),
(766,557,o),
(766,352,c)
);
},
{
closed = 1;
nodes = (
(495,294,l),
(492,280,o),
(459,241,o),
(410,241,cs),
(352,241,o),
(312,288,o),
(312,345,cs),
(312,402,o),
(352,449,o),
(410,449,cs),
(446,449,o),
(472,429,o),
(488,398,c),
(566,444,l),
(533,505,o),
(477,539,o),
(411,539,cs),
(305,539,o),
(223,454,o),
(223,345,cs),
(223,236,o),
(305,151,o),
(411,151,cs),
(452,151,o),
(492,165,o),
(525,191,cs),
(537,200,o),
(560,221,o),
(574,249,c)
);
}
);
width = 806;
},
{
associatedMasterId = "EBE2A6F1-3CB0-4D17-AF87-54EF93F0B568";
layerId = "F7AFA994-28BC-497B-83D3-42FF374BD54D";
name = "Apr 8 21, 13:26";
shapes = (
{
closed = 1;
nodes = (
(90,475,o),
(140,422,o),
(209,422,c),
(278,422,o),
(328,475,o),
(328,548,c),
(328,619,o),
(278,673,o),
(209,673,c),
(140,673,o),
(90,619,o),
(90,548,c)
);
},
{
closed = 1;
nodes = (
(378,452,o),
(303,377,o),
(209,377,c),
(115,377,o),
(40,452,o),
(40,548,c),
(40,642,o),
(115,717,o),
(209,717,c),
(303,717,o),
(378,642,o),
(378,548,c)
);
},
{
closed = 1;
nodes = (
(251,520,l),
(251,514,o),
(235,495,o),
(212,495,cs),
(185,495,o),
(167,517,o),
(167,544,cs),
(167,570,o),
(185,592,o),
(212,592,cs),
(229,592,o),
(241,583,o),
(249,568,c),
(285,590,l),
(269,618,o),
(243,634,o),
(213,634,cs),
(163,634,o),
(126,594,o),
(126,544,cs),
(126,493,o),
(163,454,o),
(213,454,cs),
(232,454,o),
(251,460,o),
(266,472,cs),
(272,476,o),
(282,486,o),
(288,499,c)
);
}
);
width = 806;
}
);
unicode = 169;
},
{
glyphname = degree;
lastChange = "2021-05-27 14:30:12 +0000";
layers = (
{
layerId = "EBE2A6F1-3CB0-4D17-AF87-54EF93F0B568";
shapes = (
{
closed = 1;
nodes = (
(242,411,o),
(286,455,o),
(286,509,c),
(286,564,o),
(242,608,o),
(187,608,c),
(133,608,o),
(89,564,o),
(89,509,c),
(89,455,o),
(133,411,o),
(187,411,c)
);
},
{
closed = 1;
nodes = (
(84,322,o),
(0,406,o),
(0,509,cs),
(0,613,o),
(84,697,o),
(187,697,cs),
(291,697,o),
(375,613,o),
(375,509,cs),
(375,406,o),
(291,322,o),
(187,322,c)
);
}
);
width = 600;
}
);
unicode = 176;
},
{
glyphname = cent;
lastChange = "2021-05-27 14:30:12 +0000";
layers = (
{
layerId = "EBE2A6F1-3CB0-4D17-AF87-54EF93F0B568";
shapes = (
{
closed = 1;
nodes = (
(274,474,l),
(271,462,o),
(247,433,o),
(210,422,c),
(210,638,l),
(235,630,o),
(254,612,o),
(267,587,c),
(331,625,l),
(304,675,o),
(262,706,o),
(210,714,c),
(210,878,l),
(136,878,l),
(136,711,l),
(57,691,o),
(0,618,o),
(0,529,c),
(0,441,o),
(57,368,o),
(136,348,c),
(136,182,l),
(210,182,l),
(210,345,l),
(240,350,o),
(267,362,o),
(292,381,c),
(303,390,o),
(326,410,o),
(339,437,c),
(272,476,l)
);
},
{
closed = 1;
nodes = (
(75,575,o),
(99,615,o),
(136,632,c),
(136,427,l),
(99,445,o),
(75,484,o),
(75,529,cs)
);
}
);
width = 600;
}
);
unicode = 162;
},
{
glyphname = dollar;
lastChange = "2021-05-27 14:30:12 +0000";
layers = (
{
layerId = "EBE2A6F1-3CB0-4D17-AF87-54EF93F0B568";
shapes = (
{
closed = 1;
nodes = (
(193,778,l),
(267,778,l),
(267,-116,l),
(193,-116,l)
);
},
{
closed = 1;
nodes = (
(235,588,o),
(226,589,o),
(214,589,cs),
(166,589,o),
(135,543,o),
(135,509,cs),
(135,361,o),
(429,374,o),
(429,166,cs),
(429,38,o),
(331,-33,o),
(219,-33,cs),
(58,-33,o),
(0,114,o),
(0,114,c),
(88,163,l),
(98,127,o),
(140,61,o),
(221,61,cs),
(289,61,o),
(330,105,o),
(330,155,cs),
(330,306,o),
(36,296,o),
(36,494,cs),
(36,623,o),
(135,682,o),
(219,682,cs),
(232,682,o),
(256,680,o),
(256,680,c),
(248,585,l)
);
}
);
width = 600;
}
);
unicode = 36;
},
{
glyphname = euro;
lastChange = "2021-05-27 14:30:12 +0000";
layers = (
{
layerId = "EBE2A6F1-3CB0-4D17-AF87-54EF93F0B568";
shapes = (
{
closed = 1;
nodes = (
(30,548,o),
(192,710,o),
(392,710,cs),
(518,710,o),
(631,643,o),
(690,543,c),
(603,494,l),
(557,564,o),
(477,610,o),
(392,610,cs),
(252,610,o),
(142,497,o),
(142,349,cs),
(142,201,o),
(252,88,o),
(392,88,cs),
(477,88,o),
(557,134,o),
(603,204,c),
(690,155,l),
(631,55,o),
(518,-12,o),
(392,-12,cs),
(192,-12,o),
(30,150,o),
(30,349,cs)
);
},
{
closed = 1;
nodes = (
(470,459,l),
(470,369,l),
(-20,369,l),
(-20,459,l)
);
},
{
closed = 1;
nodes = (
(420,299,l),
(420,219,l),
(-20,219,l),
(-20,299,l)
);
}
);
width = 710;
},
{
associatedMasterId = "EBE2A6F1-3CB0-4D17-AF87-54EF93F0B568";
layerId = "F4AE0079-02C4-4A00-A739-C9072B5E9EAA";
name = "May 10 21, 16:01";
shapes = (
{
closed = 1;
nodes = (
(0,240,l),
(334,240,l),
(334,314,l),
(0,314,l)
);
},
{
closed = 1;
nodes = (
(0,389,l),
(334,389,l),
(334,463,l),
(0,463,l)
);
},
{
closed = 1;
nodes = (
(461,155,o),
(422,88,o),
(346,88,cs),
(248,88,o),
(181,199,o),
(181,351,cs),
(181,499,o),
(245,614,o),
(346,614,cs),
(411,614,o),
(448,568,o),
(480,498,c),
(570,541,l),
(523,649,o),
(449,717,o),
(346,717,cs),
(191,717,o),
(73,556,o),
(73,352,cs),
(73,147,o),
(185,-13,o),
(346,-13,cs),
(457,-13,o),
(537,58,o),
(585,165,c),
(485,199,l)
);
}
);
width = 600;
}
);
unicode = 8364;
},
{
glyphname = ruble;
lastChange = "2021-05-27 14:30:12 +0000";
layers = (
{
layerId = "EBE2A6F1-3CB0-4D17-AF87-54EF93F0B568";
shapes = (
{
closed = 1;
nodes = (
(218,243,l),
(218,0,l),
(108,0,l),
(108,700,l),
(365,700,ls),
(490,700,o),
(593,599,o),
(593,472,cs),
(593,346,o),
(491,243,o),
(365,243,cs)
);
},
{
closed = 1;
nodes = (
(427,343,o),
(483,402,o),
(483,471,cs),
(483,541,o),
(428,600,o),
(359,600,cs),
(218,600,l),
(218,343,l),
(359,343,ls)
);
},
{
closed = 1;
nodes = (
(200,343,l),
(200,243,l),
(0,243,l),
(0,343,l)
);
},
{
closed = 1;
nodes = (
(330,183,l),
(330,103,l),
(0,103,l),
(0,183,l)
);
}
);
width = 648;
}
);
unicode = 8381;
},
{
glyphname = sterling;
lastChange = "2021-05-27 14:30:12 +0000";
layers = (
{
layerId = "EBE2A6F1-3CB0-4D17-AF87-54EF93F0B568";
shapes = (
{
closed = 1;
nodes = (
(386,556,o),
(353,613,o),
(270,613,cs),
(201,613,o),
(159,572,o),
(159,519,cs),
(159,444,o),
(242,361,o),
(242,263,cs),
(242,196,o),
(206,141,o),
(190,111,c),
(219,111,o),
(463,111,o),
(463,111,c),
(463,0,l),
(30,0,l),
(30,19,l),
(87,71,o),
(149,165,o),
(149,246,cs),
(149,345,o),
(57,415,o),
(57,531,cs),
(57,644,o),
(151,714,o),
(265,714,cs),
(409,714,o),
(470,613,o),
(489,558,c),
(401,511,l)
);
},
{
closed = 1;
nodes = (
(411,401,l),
(411,301,l),
(41,301,l),
(41,401,l)
);
}
);
width = 600;
}
);
unicode = 163;
},
{
glyphname = yen;
lastChange = "2021-05-27 14:30:12 +0000";
layers = (
{
layerId = "EBE2A6F1-3CB0-4D17-AF87-54EF93F0B568";
shapes = (
{
closed = 1;
nodes = (
(62,303,l),
(452,303,l),
(452,393,l),
(62,393,l)
);
},
{
closed = 1;
nodes = (
(62,163,l),
(452,163,l),
(452,243,l),
(62,243,l)
);
},
{
closed = 1;
nodes = (
(197,0,l),
(317,0,l),
(317,544,l),
(504,602,l),
(471,700,l),
(257,628,l),
(43,700,l),
(10,602,l),
(197,544,l)
);
}
);
width = 514;
}
);
unicode = 165;
},
{
glyphname = plus;
lastChange = "2021-05-27 14:30:12 +0000";
layers = (
{
layerId = "EBE2A6F1-3CB0-4D17-AF87-54EF93F0B568";
shapes = (
{
closed = 1;
nodes = (
(315,302,l),
(30,302,l),
(30,202,l),
(315,202,l),
(315,-98,l),
(425,-98,l),
(425,202,l),
(710,202,l),
(710,302,l),
(425,302,l),
(425,602,l),
(315,602,l)
);
}
);
width = 740;
}
);
unicode = 43;
},
{
glyphname = equal;
lastChange = "2021-05-27 14:30:12 +0000";
layers = (
{
layerId = "EBE2A6F1-3CB0-4D17-AF87-54EF93F0B568";
shapes = (
{
closed = 1;
nodes = (
(0,404,l),
(0,303,l),
(590,303,l),
(590,404,l)
);
},
{
closed = 1;
nodes = (
(0,200,l),
(0,99,l),
(590,99,l),
(590,200,l)
);
}
);
width = 600;
}
);
unicode = 61;
},
{
glyphname = emptyset;
lastChange = "2021-05-27 14:30:12 +0000";
layers = (
{
layerId = "EBE2A6F1-3CB0-4D17-AF87-54EF93F0B568";
shapes = (
{
closed = 1;
nodes = (
(169,179,o),
(225,65,o),
(357,65,cs),
(495,65,o),
(541,179,o),
(541,332,cs),
(541,484,o),
(495,598,o),
(357,598,cs),
(219,598,o),
(169,484,o),
(169,332,cs)
);
},
{
closed = 1;
nodes = (
(648,128,o),
(547,-32,o),
(357,-32,cs),
(169,-32,o),
(63,128,o),
(63,332,cs),
(63,536,o),
(176,696,o),
(357,696,cs),
(541,696,o),
(648,536,o),
(648,332,cs)
);
},
{
closed = 1;
nodes = (
(112,-41,l),
(53,7,l),
(621,729,l),
(681,682,l)
);
}
);
width = 711;
}
);
unicode = 8709;
},
{
glyphname = percent;
lastChange = "2021-05-27 14:30:12 +0000";
layers = (
{
layerId = "EBE2A6F1-3CB0-4D17-AF87-54EF93F0B568";
shapes = (
{
closed = 1;
nodes = (
(289,-27,l),
(190,21,l),
(583,721,l),
(682,673,l)
);
},
{
closed = 1;
nodes = (
(252,431,o),
(296,475,o),
(296,529,cs),
(296,584,o),
(252,628,o),
(197,628,cs),
(143,628,o),
(99,584,o),
(99,529,cs),
(99,475,o),
(143,431,o),
(197,431,cs)
);
},
{
closed = 1;
nodes = (
(94,342,o),
(10,426,o),
(10,529,cs),
(10,633,o),
(94,717,o),
(197,717,cs),
(301,717,o),
(384,633,o),
(384,529,cs),
(384,426,o),
(301,342,o),
(197,342,cs)
);
},
{
closed = 1;
nodes = (
(733,75,o),
(777,119,o),
(777,174,cs),
(777,228,o),
(733,272,o),
(679,272,cs),
(624,272,o),
(580,228,o),
(580,174,cs),
(580,119,o),
(624,75,o),
(679,75,cs)
);
},
{
closed = 1;
nodes = (
(575,-13,o),
(491,70,o),
(491,174,cs),
(491,277,o),
(575,361,o),
(679,361,cs),
(782,361,o),
(866,277,o),
(866,174,cs),
(866,70,o),
(782,-13,o),
(679,-13,cs)
);
}
);
width = 1036;
},
{
associatedMasterId = "EBE2A6F1-3CB0-4D17-AF87-54EF93F0B568";
layerId = "B2613465-0076-4E22-9A12-A4F3D4BD9A14";
name = "Apr 7 21, 13:07";
shapes = (
{
closed = 1;
nodes = (
(242,431,o),
(286,475,o),
(286,529,c),
(286,584,o),
(242,628,o),
(187,628,c),
(133,628,o),
(89,584,o),
(89,529,c),
(89,475,o),
(133,431,o),
(187,431,c)
);
},
{
closed = 1;
nodes = (
(84,342,o),
(0,426,o),
(0,529,c),
(0,633,o),
(84,717,o),
(187,717,c),
(291,717,o),
(374,633,o),
(374,529,c),
(374,426,o),
(291,342,o),
(187,342,c)
);
},
{
closed = 1;
nodes = (
(633,75,o),
(677,119,o),
(677,174,c),
(677,228,o),
(633,272,o),
(579,272,c),
(524,272,o),
(480,228,o),
(480,174,c),
(480,119,o),
(524,75,o),
(579,75,c)
);
},
{
closed = 1;
nodes = (
(475,-13,o),
(391,70,o),
(391,174,cs),
(391,277,o),
(475,361,o),
(579,361,cs),
(682,361,o),
(766,277,o),
(766,174,cs),
(766,70,o),
(682,-13,o),
(579,-13,c)
);
},
{
closed = 1;
nodes = (
(912,479,l),
(1227,479,l),
(1227,585,l),
(912,585,l)
);
},
{
closed = 1;
nodes = (
(504,387,l),
(683,698,l),
(592,751,l),
(394,387,l)
);
},
{
closed = 1;
nodes = (
(273,296,l),
(94,-15,l),
(185,-68,l),
(383,296,l)
);
}
);
width = 1036;
}
);
unicode = 37;
},
{
glyphname = perthousand;
lastChange = "2021-05-27 14:30:12 +0000";
layers = (
{
layerId = "EBE2A6F1-3CB0-4D17-AF87-54EF93F0B568";
shapes = (
{
closed = 1;
nodes = (
(252,431,o),
(296,475,o),
(296,529,c),
(296,584,o),
(252,628,o),
(197,628,c),
(143,628,o),
(99,584,o),
(99,529,c),
(99,475,o),
(143,431,o),
(197,431,c)
);
},
{
closed = 1;
nodes = (
(94,342,o),
(10,426,o),
(10,529,c),
(10,633,o),
(94,717,o),
(197,717,c),
(301,717,o),
(384,633,o),
(384,529,c),
(384,426,o),
(301,342,o),
(197,342,c)
);
},
{
closed = 1;
nodes = (
(733,75,o),
(777,119,o),
(777,174,cs),
(777,228,o),
(733,272,o),
(679,272,c),
(624,272,o),
(580,228,o),
(580,174,c),
(580,119,o),
(624,75,o),
(679,75,c)
);
},
{
closed = 1;
nodes = (
(575,-13,o),
(491,70,o),
(491,174,cs),
(491,277,o),
(575,361,o),
(679,361,cs),
(782,361,o),
(866,277,o),
(866,174,cs),
(866,70,o),
(782,-13,o),
(679,-13,c)
);
},
{
closed = 1;
nodes = (
(1133,75,o),
(1177,119,o),
(1177,174,cs),
(1177,228,o),
(1133,272,o),
(1079,272,c),
(1024,272,o),
(980,228,o),
(980,174,c),
(980,119,o),
(1024,75,o),
(1079,75,c)
);
},
{
closed = 1;
nodes = (
(975,-13,o),
(891,70,o),
(891,174,cs),
(891,277,o),
(975,361,o),
(1079,361,cs),
(1182,361,o),
(1266,277,o),
(1266,174,cs),
(1266,70,o),
(1182,-13,o),
(1079,-13,c)
);
},
{
closed = 1;
nodes = (
(289,-27,l),
(190,21,l),
(583,721,l),
(682,673,l)
);
}
);
width = 1286;
}
);
unicode = 8240;
},
{
glyphname = dieresis;
lastChange = "2021-05-27 14:30:12 +0000";
layers = (
{
layerId = "EBE2A6F1-3CB0-4D17-AF87-54EF93F0B568";
shapes = (
{
closed = 1;
nodes = (
(203,574,o),
(238,609,o),
(238,652,cs),
(238,696,o),
(203,731,o),
(159,731,cs),
(115,731,o),
(80,696,o),
(80,652,cs),
(80,609,o),
(115,574,o),
(159,574,cs)
);
},
{
closed = 1;
nodes = (
(493,574,o),
(528,609,o),
(528,652,cs),
(528,696,o),
(493,731,o),
(449,731,cs),
(405,731,o),
(370,696,o),
(370,652,cs),
(370,609,o),
(405,574,o),
(449,574,cs)
);
}
);
width = 600;
}
);
unicode = 168;
},
{
glyphname = grave;
lastChange = "2021-05-27 14:30:12 +0000";
layers = (
{
layerId = "EBE2A6F1-3CB0-4D17-AF87-54EF93F0B568";
shapes = (
{
closed = 1;
nodes = (
(-3,653,l),
(367,554,l),
(392,651,l),
(22,750,l)
);
}
);
width = 600;
},
{
associatedMasterId = "EBE2A6F1-3CB0-4D17-AF87-54EF93F0B568";
layerId = "F21C12F0-45D9-4D07-AB33-C1CD98814B9F";
name = "Apr 15 21, 10:06";
shapes = (
{
closed = 1;
nodes = (
(13,625,l),
(396,576,l),
(396,699,l),
(13,699,l)
);
}
);
width = 600;
}
);
unicode = 96;
},
{
glyphname = acute;
lastChange = "2021-05-27 14:30:12 +0000";
layers = (
{
associatedMasterId = "EBE2A6F1-3CB0-4D17-AF87-54EF93F0B568";
layerId = "DBF3DCCE-BF3D-46C8-BD88-D03638B8B741";
name = "Apr 9 21, 18:02";
shapes = (
{
closed = 1;
nodes = (
(406,581,l),
(386,719,l),
(-7,645,l),
(13,561,l)
);
}
);
width = 600;
},
{
layerId = "EBE2A6F1-3CB0-4D17-AF87-54EF93F0B568";
shapes = (
{
closed = 1;
nodes = (
(-3,651,l),
(22,554,l),
(392,653,l),
(367,750,l)
);
}
);
width = 600;
},
{
associatedMasterId = "EBE2A6F1-3CB0-4D17-AF87-54EF93F0B568";
layerId = "A2462140-4B2D-4307-BCD7-C98AB1BAD4F5";
name = "Apr 15 21, 10:03";
shapes = (
{
closed = 1;
nodes = (
(23,699,l),
(23,576,l),
(406,625,l),
(406,699,l)
);
}
);
width = 600;
}
);
unicode = 180;
},
{
glyphname = circumflex;
lastChange = "2021-05-27 14:30:12 +0000";
layers = (
{
background = {
shapes = (
{
closed = 1;
nodes = (
(238,619,l),
(36,572,l),
(36,700,l),
(439,700,l),
(439,572,l)
);
}
);
};
layerId = "EBE2A6F1-3CB0-4D17-AF87-54EF93F0B568";
shapes = (
{
closed = 1;
nodes = (
(138,686,l),
(449,558,l),
(491,650,l),
(246,750,l)
);
},
{
closed = 1;
nodes = (
(1,650,l),
(43,558,l),
(354,686,l),
(246,750,l)
);
}
);
width = 600;
}
);
unicode = 710;
},
{
glyphname = aacc;
lastChange = "2021-05-27 14:30:12 +0000";
layers = (
{
background = {
shapes = (
{
closed = 1;
nodes = (
(173,80,o),
(130,123,o),
(130,177,cs),
(130,231,o),
(172,274,o),
(227,274,cs),
(280,274,o),
(322,231,o),
(322,178,cs),
(322,123,o),
(280,80,o),
(227,80,cs)
);
},
{
closed = 1;
nodes = (
(422,531,l),
(63,531,l),
(63,441,l),
(322,441,l),
(322,317,l),
(317,317,l),
(309,332,o),
(261,359,o),
(221,359,cs),
(120,359,o),
(38,277,o),
(38,175,cs),
(38,74,o),
(119,-9,o),
(221,-9,cs),
(321,-9,o),
(422,55,o),
(422,202,cs)
);
}
);
};
layerId = "EBE2A6F1-3CB0-4D17-AF87-54EF93F0B568";
shapes = (
{
closed = 1;
nodes = (
(323,431,l),
(323,315,l),
(318,315,l),
(310,327,o),
(271,359,o),
(212,359,cs),
(111,359,o),
(29,277,o),
(29,175,cs),
(29,74,o),
(110,-9,o),
(212,-9,cs),
(271,-9,o),
(310,24,o),
(318,35,c),
(323,35,l),
(323,0,l),
(426,0,l),
(426,530,l),
(73,530,l),
(73,431,l)
);
},
{
closed = 1;
nodes = (
(169,86,o),
(127,127,o),
(127,177,cs),
(127,229,o),
(168,268,o),
(220,268,cs),
(270,268,o),
(309,229,o),
(309,178,cs),
(309,127,o),
(270,86,o),
(220,86,cs)
);
}
);
width = 463;
},
{
associatedMasterId = "EBE2A6F1-3CB0-4D17-AF87-54EF93F0B568";
layerId = "F8E753D6-4281-4DCB-BC40-176852E42ABC";
name = "Apr 9 21, 15:34";
shapes = (
{
closed = 1;
nodes = (
(323,440,l),
(323,321,l),
(319,321,l),
(299,339,o),
(259,362,o),
(207,362,cs),
(104,362,o),
(20,279,o),
(20,175,cs),
(20,72,o),
(103,-13,o),
(207,-13,cs),
(267,-13,o),
(307,20,o),
(318,37,c),
(323,37,l),
(323,0,l),
(423,0,l),
(423,530,l),
(73,530,l),
(73,440,l)
);
},
{
closed = 1;
nodes = (
(157,80,o),
(114,123,o),
(114,177,cs),
(114,231,o),
(156,274,o),
(211,274,cs),
(264,274,o),
(306,231,o),
(306,178,cs),
(306,123,o),
(264,80,o),
(211,80,cs)
);
}
);
width = 463;
}
);
},
{
glyphname = eacc;
lastChange = "2021-05-27 14:30:12 +0000";
layers = (
{
background = {
shapes = (
{
closed = 1;
nodes = (
(187,94,l),
(187,215,l),
(192,215,l),
(200,203,o),
(239,171,o),
(298,171,cs),
(399,171,o),
(481,253,o),
(481,355,cs),
(481,456,o),
(400,539,o),
(298,539,cs),
(239,539,o),
(200,506,o),
(192,495,c),
(187,495,l),
(187,530,l),
(87,530,l),
(87,0,l),
(437,0,l),
(437,94,l)
);
},
{
closed = 1;
nodes = (
(342,446,o),
(384,404,o),
(384,353,cs),
(384,300,o),
(343,260,o),
(290,260,cs),
(239,260,o),
(199,300,o),
(199,352,cs),
(199,404,o),
(239,446,o),
(290,446,cs)
);
}
);
};
layerId = "EBE2A6F1-3CB0-4D17-AF87-54EF93F0B568";
shapes = (
{
closed = 1;
nodes = (
(97,0,l),
(477,0,l),
(477,94,l),
(197,94,l),
(197,214,l),
(202,214,l),
(210,199,o),
(258,172,o),
(298,172,cs),
(399,172,o),
(481,254,o),
(481,356,cs),
(481,457,o),
(400,540,o),
(298,540,cs),
(198,540,o),
(97,476,o),
(97,329,cs)
);
},
{
closed = 1;
nodes = (
(340,441,o),
(380,402,o),
(380,353,cs),
(380,303,o),
(341,265,o),
(290,265,cs),
(242,265,o),
(204,303,o),
(204,352,cs),
(204,402,o),
(242,441,o),
(290,441,cs)
);
}
);
width = 521;
},
{
associatedMasterId = "EBE2A6F1-3CB0-4D17-AF87-54EF93F0B568";
background = {
shapes = (
{
closed = 1;
nodes = (
(186,90,l),
(186,220,l),
(191,220,l),
(202,198,o),
(242,165,o),
(302,165,cs),
(405,165,o),
(489,248,o),
(489,352,cs),
(489,455,o),
(406,540,o),
(302,540,cs),
(242,540,o),
(202,507,o),
(191,485,c),
(186,485,l),
(186,530,l),
(86,530,l),
(86,0,l),
(436,0,l),
(436,90,l)
);
},
{
closed = 1;
nodes = (
(353,449,o),
(397,405,o),
(397,350,cs),
(397,295,o),
(354,251,o),
(298,251,cs),
(244,251,o),
(201,295,o),
(201,349,cs),
(201,405,o),
(244,449,o),
(298,449,cs)
);
}
);
};
layerId = "5A9AFE88-BC9F-450B-84D6-70FBB29D5AE6";
name = "Apr 9 21, 15:38";
shapes = (
{
closed = 0;
nodes = (
(196,194,l),
(199,197,l),
(220,187,o),
(245,180,o),
(271,180,cs),
(370,180,o),
(451,257,o),
(451,356,cs),
(451,456,o),
(371,540,o),
(271,540,cs),
(192,540,o),
(85,484,o),
(85,330,cs),
(86,0,l),
(456,0,l),
(456,90,l),
(196,90,l),
(196,194,l)
);
},
{
closed = 1;
nodes = (
(313,442,o),
(351,404,o),
(351,356,cs),
(351,310,o),
(313,272,o),
(266,272,cs),
(220,272,o),
(183,310,o),
(183,356,cs),
(183,404,o),
(220,442,o),
(266,442,cs)
);
}
);
width = 521;
},
{
associatedMasterId = "EBE2A6F1-3CB0-4D17-AF87-54EF93F0B568";
background = {
shapes = (
{
closed = 1;
nodes = (
(186,90,l),
(186,220,l),
(191,220,l),
(202,198,o),
(242,165,o),
(302,165,cs),
(405,165,o),
(489,248,o),
(489,352,cs),
(489,455,o),
(406,540,o),
(302,540,cs),
(242,540,o),
(202,507,o),
(191,485,c),
(186,485,l),
(186,530,l),
(86,530,l),
(86,0,l),
(436,0,l),
(436,90,l)
);
},
{
closed = 1;
nodes = (
(353,449,o),
(397,405,o),
(397,350,cs),
(397,295,o),
(354,251,o),
(298,251,cs),
(244,251,o),
(201,295,o),
(201,349,cs),
(201,405,o),
(244,449,o),
(298,449,cs)
);
}
);
};
layerId = "23CCBED3-1C90-4FD8-AFCB-986D1969FB24";
name = "Apr 9 21, 15:39";
shapes = (
{
closed = 0;
nodes = (
(271,540,l),
(192,540,o),
(85,484,o),
(85,330,cs),
(86,0,l),
(456,0,l),
(456,90,l),
(186,90,l),
(186,220,l),
(191,220,l),
(202,198,o),
(242,165,o),
(302,165,cs),
(405,165,o),
(489,248,o),
(489,352,cs),
(489,455,o),
(406,540,o),
(302,540,cs)
);
},
{
closed = 1;
nodes = (
(353,449,o),
(397,405,o),
(397,350,cs),
(397,295,o),
(354,251,o),
(298,251,cs),
(244,251,o),
(201,295,o),
(201,349,cs),
(201,405,o),
(244,449,o),
(298,449,cs)
);
}
);
width = 521;
}
);
},
{
glyphname = oacc;
lastChange = "2021-05-27 14:30:12 +0000";
layers = (
{
layerId = "EBE2A6F1-3CB0-4D17-AF87-54EF93F0B568";
shapes = (
{
closed = 1;
nodes = (
(498,-10,o),
(619,109,o),
(619,265,cs),
(619,421,o),
(498,540,o),
(348,540,cs),
(198,540,o),
(77,421,o),
(77,265,cs),
(77,109,o),
(198,-10,o),
(348,-10,cs)
);
},
{
closed = 1;
nodes = (
(260,91,o),
(183,158,o),
(183,265,cs),
(183,372,o),
(260,439,o),
(348,439,cs),
(436,439,o),
(513,372,o),
(513,265,cs),
(513,158,o),
(436,91,o),
(348,91,cs)
);
}
);
width = 696;
}
);
},
{
glyphname = uacc;
lastChange = "2021-05-27 14:30:12 +0000";
layers = (
{
layerId = "EBE2A6F1-3CB0-4D17-AF87-54EF93F0B568";
shapes = (
{
closed = 1;
nodes = (
(589,72,o),
(483,-10,o),
(328,-10,cs),
(173,-10,o),
(67,72,o),
(70,290,c),
(70,520,l),
(180,520,l),
(180,290,l),
(178,160,o),
(224,92,o),
(328,92,cs),
(435,92,o),
(478,160,o),
(476,290,c),
(476,520,l),
(586,520,l),
(586,290,l)
);
}
